<svg width="88" height="53" viewBox="0 0 88 53" fill="none" xmlns="http://www.w3.org/2000/svg">
<path d="M27.4173 8.35245C28.7101 8.36838 29.9841 8.66433 31.1498 9.21968C32.3155 9.77502 33.345 10.5763 34.1665 11.5677C35.2334 12.7134 38.1116 16.0272 38.1364 16.0641L38.2603 16.1996L49.5997 0.763901H41.8334C41.8334 0.763901 38.6078 4.76754 38.4093 5.03856C37.7022 4.32405 34.2283 0.677734 29.2658 0.677734C22.703 0.677734 18.7952 4.90317 16.0286 9.47352C14.1305 12.6272 0 35.836 0 35.836H5.75631C5.88037 35.6143 18.6711 14.401 19.7256 12.7626C20.4893 11.4081 21.6069 10.2834 22.9607 9.5072C24.3145 8.73098 25.8542 8.33204 27.4173 8.35245Z" fill="#00498B"/>
<path d="M70.1443 7.05878C67.663 2.84568 64.3134 0.800781 59.9465 0.800781C56.0634 0.800781 53.1477 2.74721 49.5127 7.76104C48.0488 9.78136 40.022 20.6836 38.9303 22.1619C38.5581 21.6322 37.268 19.8953 35.3947 17.6162C32.5041 14.093 30.4322 12.7871 27.5415 12.7871C23.8197 12.7871 21.8472 14.8199 19.5645 18.5648C18.8821 19.6859 9.41627 35.6759 9.31702 35.8114H15.3586L22.8023 23.3199C24.7253 20.1416 26.0651 20.1415 27.132 20.1415C28.199 20.1415 29.5388 20.6837 31.4493 23.3199C33.6824 26.3997 38.6822 33.5446 38.6822 33.5446C38.6822 33.5446 53.6937 13.1321 54.5869 11.9002C56.8449 8.79582 58.4453 8.20451 60.207 8.20451C61.3483 8.20451 63.5194 8.40156 65.5044 11.6907L79.8084 35.7498H87.2521L70.1443 7.05878Z" fill="#3DB171"/>
<path d="M65.3429 17.5797C63.4324 14.3275 62.229 12.8369 59.8098 12.8369C57.7628 12.8369 55.9763 14.9188 53.8797 17.7645L40.5928 35.8487H47.8132L55.6785 25.0819C57.986 22.0761 58.3211 21.3862 59.5121 21.3862C60.7031 21.3862 61.1993 22.3717 62.9238 25.0819L69.251 35.8364H76.248L65.3429 17.5797Z" fill="#C92B20"/>
<path d="M22.5046 52.6391H18.7828L9.18045 43.4492V52.6391H5.45862V38.9897H9.18045L18.7579 48.1182V38.9897H22.4798L22.5046 52.6391Z" fill="#00498B"/>
<path d="M41.6227 52.6393H29.2784C27.9301 52.6783 26.6115 52.2419 25.5565 51.4074C25.0791 51.0447 24.6938 50.5762 24.431 50.0394C24.1682 49.5026 24.0353 48.9122 24.043 48.3153V43.3139C24.0343 42.7169 24.1666 42.1262 24.4295 41.5892C24.6923 41.0522 25.0784 40.5838 25.5565 40.2218C26.6089 39.3825 27.9293 38.9455 29.2784 38.9899H41.6227V42.2175H29.2166C28.2241 42.2175 27.7276 42.5994 27.7276 43.3509V48.377C27.7276 49.1407 28.2241 49.5227 29.2166 49.5227H41.6227V52.6393Z" fill="#00498B"/>
<path d="M61.7453 48.3769C61.7525 48.9724 61.6207 49.5615 61.3603 50.098C61.0998 50.6345 60.7179 51.1037 60.2442 51.469C59.1918 52.3083 57.8714 52.7453 56.5223 52.7009H43.1237V44.0776H46.8455V49.5103H56.5347C57.49 49.5103 57.9737 49.1284 57.9737 48.3646V43.3508C57.9737 42.5994 57.4897 42.2174 56.5469 42.2174H43.1361V39.0392H56.5347C57.8848 38.9881 59.2075 39.4259 60.2566 40.2711C60.7317 40.6351 61.1145 41.104 61.3751 41.6407C61.6357 42.1775 61.7669 42.7673 61.7577 43.3632L61.7453 48.3769Z" fill="#00498B"/>
<path d="M82.0416 52.6388H76.9553L68.9779 45.0011H78.5802C79.275 45.0011 79.61 44.533 79.61 43.5844C79.61 42.6358 79.275 42.1677 78.5802 42.1677H67.0055V52.6388H63.2837V38.9894H78.7789C79.4151 38.9617 80.0493 39.0756 80.6353 39.3228C81.2213 39.5701 81.7444 39.9445 82.1658 40.4185C82.9117 41.3048 83.3204 42.4231 83.3204 43.5782C83.3204 44.7333 82.9117 45.8518 82.1658 46.7381C81.7454 47.2174 81.2213 47.5961 80.6326 47.8457C80.0439 48.0953 79.4059 48.2093 78.7665 48.1794H77.3396L82.0416 52.6388Z" fill="#00498B"/>
</svg>
