<svg width="205" height="205" viewBox="0 0 205 205" fill="none" xmlns="http://www.w3.org/2000/svg">
<g clip-path="url(#clip0_101_2970)">
<path d="M149.765 140.118C124.108 154.628 82.5383 154.628 56.8885 140.118C31.2386 125.609 31.2316 102.074 56.8885 87.5743C82.5453 73.0749 124.126 73.0644 149.776 87.5743C175.426 102.084 175.415 125.609 149.765 140.118Z" fill="#D9D9D9"/>
<path d="M145.499 130.339C110.077 150.852 49.6026 140.833 37.8398 112.906C36.4559 109.671 35.8439 106.158 36.0526 102.644C36.7548 91.8753 45.203 83.3505 54.7852 77.8023C79.8382 63.2853 120.446 63.2853 145.499 77.8023C157.399 84.6891 163.642 93.612 164.232 102.644C164.885 112.613 158.642 122.716 145.499 130.339Z" fill="#A1FFFE"/>
<path d="M36.0068 105.702V111.817V111.838C36.358 137.8 81.1688 155.217 122.423 146.361C125.169 145.771 127.848 145.067 130.46 144.247C135.663 142.66 140.674 140.497 145.401 137.797C157.55 130.769 163.782 121.614 164.14 112.388V106.822C164.14 106.822 155.966 91.4314 145.394 85.309C120.355 70.8026 79.7784 70.8026 54.7465 85.309C44.5006 91.2377 36.0068 105.702 36.0068 105.702Z" fill="#0A457A"/>
<path d="M145.492 132.273C110.074 152.786 49.599 142.771 37.8362 114.843C37.049 112.949 36.5028 110.963 36.2105 108.932C36.1824 108.685 36.1543 108.439 36.1227 108.192C36.0911 107.946 36.0735 107.699 36.056 107.449C36.0244 106.966 36.0068 106.48 36.0068 105.998C36.0068 94.5559 44.785 85.5309 54.7851 79.7325C79.8416 65.2226 120.446 65.2226 145.492 79.7325C170.538 94.2424 170.541 117.76 145.492 132.273Z" fill="url(#paint0_linear_101_2970)"/>
<path d="M161.872 96.1306C160.959 97.5396 159.499 99.2552 157.336 99.8012C153.473 100.774 150.741 97.2261 149.052 98.3463C146.907 99.773 150.98 105.744 148.536 112.99C147.8 115.378 146.399 117.504 144.498 119.12C140.524 122.389 135.819 121.906 135.078 121.822C133.476 121.638 129.79 121.216 128.452 118.704C126.51 115.058 130.531 108.925 130.934 108.319C132.546 105.913 134.586 104.578 134.558 101.978C134.523 98.607 131.823 97.3107 128.554 96.5779C124.6 95.6938 123.533 96.6061 118.926 96.0601C115.871 95.7079 112.957 95.3556 112.507 93.8796C111.98 92.1782 115.242 90.5894 116.131 86.2953C116.35 85.4385 116.315 84.5359 116.029 83.6991C115.186 81.4481 112.009 80.0989 109.516 79.8805C106.401 79.6092 99.684 79.8805 90.962 80.9725C90.4459 80.9029 89.922 80.9159 89.41 81.0113C88.9992 81.0747 88.1565 81.3953 88.146 81.6771C88.1214 82.3992 89.3819 85.4463 88.0757 87.5423C87.5841 88.3349 87.858 88.9162 87.1909 89.582C86.4289 90.3429 85.2948 90.2864 83.943 90.3181C81.1936 90.3675 73.2933 90.6106 71.8501 91.146C69.1043 92.1641 65.5088 93.4921 64.0586 96.9937C62.6541 100.351 63.6899 104.863 67.2679 107.692C70.0348 109.88 73.1177 110.035 77.0012 110.183C79.6379 110.277 82.2768 110.069 84.8664 109.563C90.0631 108.506 93.6762 106.512 94.8068 107.9C95.0632 108.217 95.7724 110.63 95.6811 113.212C95.5266 117.531 100.825 120.61 99.5681 123.685C99.3399 124.242 99.2626 123.91 97.2893 126.073C94.9473 128.645 93.5533 131.241 89.3187 134.281C85.53 136.997 81.004 137.071 77.4155 137.099C75.4211 137.099 67.6787 136.969 58.4546 132.217C52.7558 129.275 45.4629 125.524 42.0991 117.26C40.5409 113.327 40.008 109.06 40.5506 104.863V104.8C40.5506 104.8 40.5506 104.8 40.5506 104.775C40.5506 98.1984 45.2557 88.571 58.2194 81.0641C85.7337 65.0994 120.404 67.0685 143.652 81.0641C150.435 85.1548 156.575 90.2321 161.872 96.1306V96.1306Z" fill="#005995"/>
<path d="M161.967 96.1305C159.649 98.3568 156.426 99.7026 154.446 98.5542C152.3 97.3071 146.04 93.5696 146.868 99.8083C147.697 106.047 150.38 118.288 138.462 120.317C126.545 122.346 127.82 114.551 133.617 106.001C137.725 99.935 136.012 98.2054 134.67 97.7157C134.05 97.5061 133.46 97.216 132.915 96.8527C127.563 93.1292 106.141 98.4133 115.298 87.7537C117.942 84.6889 117.37 83.6743 117.212 82.85C116.64 79.9368 111.299 78.7884 110.769 78.6792C108.294 78.1825 107.732 78.7814 103.315 79.0949C93.6269 79.7994 89.5082 79.6515 89.5082 79.6515C88.5496 79.6198 87.0679 79.5458 86.5201 80.4018C85.7757 81.5713 87.6718 83.1354 87.2224 85.7774C87.1557 86.1578 86.8396 87.803 85.4983 88.7928C84.6802 89.3987 83.7778 89.5396 82.0467 89.5749C79.1289 89.6242 77.6331 89.2895 76.1092 89.2226C73.7455 89.1191 71.3886 89.5451 69.2095 90.4696C67.4539 91.1742 63.1807 92.9355 61.7551 97.1169C59.8836 102.616 64.4553 107.777 64.9925 108.365C65.0018 108.383 65.0166 108.398 65.0346 108.407C66.865 110.355 69.3904 111.495 72.0572 111.577C75.3297 111.718 78.1457 111.652 80.407 111.528C84.1851 111.32 86.0707 111.211 88.0686 110.672C91.629 109.7 92.8966 108.27 93.9464 109.21C94.8243 109.982 93.0862 113.216 96.3165 117.57C101.468 124.506 94.912 123.91 92.5244 128.546C91.5307 130.48 89.1676 132.175 85.853 133.562C77.3873 137.11 67.7734 136.733 59.4657 132.816C47.2746 127.081 36.6425 117.876 36.0034 105.032V104.965C36.0034 104.965 36.0034 104.965 36.0034 104.941C36.0034 97.9517 41 87.7501 54.7642 79.7642C71.9237 69.8196 96.3798 66.6845 118.129 70.3657C128.139 72.053 137.574 75.1847 145.474 79.7642C151.156 83.0473 155.545 86.8096 158.642 90.8078C159.94 92.4555 161.055 94.2403 161.967 96.1305Z" fill="#27A448"/>
<path d="M92.542 128.518C91.5483 130.452 89.1887 132.147 85.8706 133.534C77.4049 137.082 67.791 136.705 59.4834 132.788C53.6617 130.047 48.1876 126.514 43.9951 122.17C48.0787 126.183 53.2543 129.473 58.7425 132.065C67.0572 135.969 76.65 136.353 85.1367 132.805C88.4514 131.417 90.8039 129.73 91.8081 127.785C94.1783 123.174 100.744 123.756 95.5933 116.809C92.8194 113.064 93.7218 110.147 93.4655 108.918C93.6483 108.962 93.8165 109.053 93.9535 109.182C94.8313 109.954 93.0933 113.187 96.3236 117.541C101.478 124.478 94.9191 123.896 92.542 128.518Z" fill="#20853A"/>
<path d="M115.899 80.8423C114.108 79.3875 111.187 78.7569 110.797 78.6794C108.339 78.1827 107.756 78.7816 103.343 79.0951C93.6516 79.7996 89.5364 79.6517 89.5364 79.6517C88.5778 79.62 87.0785 79.546 86.5483 80.402C85.8004 81.5715 87.7 83.1356 87.2505 85.7776C87.1873 86.1581 86.8713 87.8032 85.53 88.793C84.7084 89.3989 83.806 89.5398 82.0749 89.5751C79.1606 89.6244 77.6613 89.2897 76.1374 89.2228C73.7738 89.1203 71.417 89.5462 69.2377 90.4698C67.4821 91.1744 63.2089 92.9357 61.7868 97.1171C60.0136 102.334 64.0375 107.252 64.9083 108.242C64.7073 108.067 64.5162 107.881 64.336 107.685C64.336 107.685 64.3114 107.65 64.3044 107.636C63.7636 107.051 59.1849 101.883 61.0564 96.3844C62.482 92.2065 66.7447 90.4592 68.5109 89.7371C70.695 88.8216 73.0523 88.396 75.4176 88.49C76.9414 88.5746 78.4337 88.9057 81.3481 88.8635C83.0862 88.8318 83.9816 88.6803 84.8102 88.0744C86.1515 87.088 86.464 85.45 86.5307 85.059C86.9696 82.424 85.0665 80.8564 85.8285 79.6904C86.3762 78.8274 87.858 78.9119 88.813 78.9366C88.813 78.9366 92.9283 79.0775 102.626 78.387C107.033 78.0735 107.595 77.4641 110.081 77.9714C110.523 78.0489 114.34 78.8732 115.899 80.8423Z" fill="#20853A"/>
<path d="M135.162 97.9308C135.01 97.8428 134.852 97.7674 134.688 97.7054C134.068 97.4953 133.478 97.2051 132.932 96.8422C128.856 94.0065 115.457 96.3913 113.353 92.9673C116.865 95.2958 128.452 93.4922 132.212 96.1025C132.753 96.5217 134.863 97.427 135.162 97.9308Z" fill="#20853A"/>
<path d="M161.988 96.1307C159.667 98.3571 156.447 99.7028 154.467 98.5544C152.321 97.3074 146.061 93.5698 146.889 99.8085C147.718 106.047 150.401 118.288 138.483 120.317C133.887 121.096 131.254 120.416 130.077 118.803C131.482 119.877 133.94 120.24 137.764 119.592C149.681 117.559 146.995 105.328 146.17 99.0863C145.344 92.8441 151.601 96.5852 153.747 97.8322C155.724 98.9806 158.94 97.6315 161.257 95.4051C160.352 93.5034 159.237 91.7086 157.936 90.0541C157.135 89.0225 156.278 88.0359 155.369 87.0986C156.555 88.2444 157.657 89.4747 158.666 90.7798C159.962 92.4383 161.076 94.2323 161.988 96.1307V96.1307Z" fill="#20853A"/>
<path d="M158.666 90.7798C158.417 91.7344 157.764 92.6715 156.826 93.7776C153.666 97.4905 148.048 90.2373 144.958 91.6428C144.578 91.8692 144.248 92.1713 143.989 92.5305C142.5 94.5244 143.965 97.0607 144.611 101.256C145.007 103.831 145.513 107.52 143.557 109.978C141.314 112.828 136.247 113.438 135.07 111.849C133.936 110.32 136.229 106.509 137.139 104.994C139.038 101.845 140.85 100.791 140.453 99.1779C140.387 98.9031 140.229 98.033 137.967 96.2717C134.407 93.4887 130.836 92.5165 130.927 92.2171C131.018 91.9176 136.054 93.5451 136.724 92.3228C137.047 91.7239 136.212 90.6882 136.106 90.5614C133.048 86.8556 124.344 90.2303 123.501 88.1519C123.301 87.6622 123.118 86.8731 125.13 84.8546C130.748 79.2183 126.25 73.6208 118.132 70.3447C128.146 72.0321 137.578 75.1638 145.481 79.7433C151.18 83.0194 155.569 86.7745 158.666 90.7798Z" fill="#5CCF59"/>
<path d="M106.306 71.7608C93.9323 72.793 88.6619 72.9551 88.6057 72.4865C88.5566 72.1131 91.8712 71.5142 91.815 71.1373C91.7378 70.6406 85.9266 71.2571 82.2889 71.7608C75.0873 72.7578 73.293 73.7476 72.7664 75.1884C72.4819 75.9634 72.8331 76.143 72.661 76.8476C71.569 81.3742 55.9719 79.0669 53.5105 84.9497C52.7416 86.785 54.1215 87.3452 53.3034 89.4165C51.4178 94.1862 43.6895 92.2346 40.6628 97.103C39.2583 99.3892 39.648 102.035 40.4556 107.28C41.0034 110.841 41.4247 113.498 43.3875 114.614C45.7015 115.928 48.0856 113.797 49.9887 115.35C51.3195 116.435 50.5646 117.788 51.8427 119.845C53.8441 123.062 58.3069 123.125 58.2121 123.798C58.0928 124.629 51.4775 123.759 51.2212 124.834C50.9157 126.119 59.9994 129.473 63.4369 130.752C66.109 131.741 67.4468 132.235 68.2017 132.414C76.2074 134.32 84.322 131.537 87.9737 128.363C89.2202 127.278 89.6556 126.405 92.9421 123.273C93.5812 122.667 93.8551 122.424 94.0798 121.924C95.3825 119.06 92.3031 114.065 89.4238 113.719C89.2565 113.695 89.087 113.688 88.9182 113.698C88.2721 113.748 87.6191 114.149 84.7644 115.174C81.6499 116.287 79.7152 116.981 77.3099 117.355C70.7263 118.376 69.7045 117.045 65.8176 114.029C61.4039 110.602 60.8491 110.338 60.2803 109.876C59.1918 109.33 56.5092 104.592 55.1573 104.786C54.1917 104.937 53.2683 107.639 54.0162 109.876C54.9256 112.578 57.9593 113.642 57.8786 113.786C57.7206 114.072 51.3125 113.216 49.0442 108.527C46.8286 103.948 49.8096 98.3113 52.7732 95.5424C55.8526 92.6855 58.2578 93.5768 61.4671 90.0401C64.3393 86.8697 63.2543 85.2422 65.2979 84.1184C69.6659 81.7265 75.7158 88.5675 80.607 85.6789C81.2643 85.3251 81.8342 84.828 82.2749 84.2241C84.3817 81.1242 83.8234 77.5874 85.8458 75.7697C87.4751 74.3007 89.6134 74.7128 95.1121 75.0898C108.171 75.9493 110.067 73.5363 115.611 76.1466C119.824 78.1087 122.507 81.265 123.065 80.726C123.49 80.3104 122.202 78.2109 121.201 76.9885C117.086 71.9088 109.526 71.6693 106.306 71.7608Z" fill="#5CCF59"/>
<path d="M127.942 123.065C129.347 123.491 130.239 123.992 130.843 124.827C131.545 125.781 131.942 127.292 131.359 128.564C131.06 129.226 130.439 129.934 128.876 130.537C126.306 131.527 125.014 131.115 119.456 130.329C112.479 129.343 111.668 129.466 109.722 128.458C109.396 128.289 105.031 126.031 104.996 123.823C104.951 120.916 112.37 117.323 115.762 119.528C116.84 120.233 116.433 120.811 117.591 121.709C120.119 123.675 122.897 121.55 127.942 123.065Z" fill="#005995"/>
<path d="M116.577 122.442C118.223 124.492 122.493 122.167 128.21 124.104C129.832 124.654 130.155 125.14 130.362 125.556C131.328 127.504 129.337 130.537 125.446 129.92C118.87 128.881 112.897 129.445 110.678 128.398C107.921 127.095 104.954 125.693 104.979 123.819C105.018 120.649 113.599 117.362 115.744 119.525C116.612 120.391 115.734 121.374 116.577 122.442Z" fill="#27A448"/>
<path d="M125.464 129.92C118.887 128.881 112.918 129.448 110.695 128.402C107.939 127.095 104.975 125.693 105 123.822C105 123.703 105.016 123.585 105.049 123.47C105.421 125.122 108.146 126.419 110.695 127.623C112.918 128.68 118.887 128.106 125.464 129.142C128.462 129.617 130.341 127.923 130.583 126.228C130.889 128.127 128.926 130.47 125.464 129.92Z" fill="#20853A"/>
<path d="M113.244 120.677C112.503 120.24 111.678 120.536 110.137 121.093C108.943 121.522 107.679 121.987 107.5 122.924C107.457 123.223 107.511 123.528 107.654 123.794C108.999 126.493 111.896 125.767 114.382 126.391C115.435 126.655 116.418 126.743 124.214 127.74C125.646 127.92 127.725 128.166 128.146 127.324C128.194 127.209 128.219 127.086 128.219 126.961C128.219 126.837 128.194 126.713 128.146 126.598C127.827 125.795 126.44 125.848 124.881 125.517C123.975 125.327 122.935 125.302 120.281 125.246C115.207 125.144 110.239 125.144 111.067 123.484C111.77 122.047 112.886 123.41 113.775 123.062C113.937 123.008 114.076 122.901 114.171 122.759C114.498 122.216 113.985 121.117 113.244 120.677Z" fill="#5CCF59"/>
<g style="mix-blend-mode:color-dodge">
<path style="mix-blend-mode:color-dodge" d="M145.499 130.34C124.319 142.606 94.1992 143.958 70.8773 137.086C55.182 132.474 42.5695 124.143 37.8398 112.91C36.4581 109.675 35.8462 106.161 36.0526 102.648C36.7548 91.8791 45.2029 83.3543 54.7852 77.8026C79.8381 63.2891 120.446 63.2891 145.499 77.8026C154.242 82.8646 159.934 89.0293 162.574 95.5251C163.505 97.7945 164.065 100.2 164.232 102.648C164.885 112.614 158.642 122.717 145.499 130.34Z" fill="url(#paint1_linear_101_2970)"/>
</g>
<path style="mix-blend-mode:color-dodge" d="M114.796 101.186C103.35 107.816 83.8094 104.578 80.0102 95.5497C79.5618 94.5052 79.3634 93.37 79.4308 92.2348C79.652 88.7544 82.3873 85.9997 85.4843 84.2067C93.5813 79.5144 106.703 79.5144 114.796 84.2067C118.659 86.433 120.66 89.3146 120.85 92.2348C121.06 95.4651 119.034 98.7236 114.796 101.186Z" fill="url(#paint2_linear_101_2970)"/>
<g style="mix-blend-mode:multiply">
<g style="mix-blend-mode:screen">
<path d="M99.09 87.2627C99.0681 87.6066 103.244 88.9132 104.719 87.1554C104.861 87.014 104.971 86.8447 105.044 86.6581C105.117 86.4715 105.15 86.2717 105.141 86.0716C104.933 84.6412 101.36 83.5215 98.3881 84.1817C95.0375 84.9272 93.0633 86.9326 95.1993 89.5596C98.3031 93.3832 107.752 92.0491 108.618 87.3287C108.749 86.5707 108.654 85.7905 108.344 85.0868C106.534 81.2741 97.9988 79.885 94.0175 83.7609C93.3375 84.4239 92.2599 85.7552 91.824 88.1787C92.1859 87.0316 92.9564 85.3729 94.1957 84.4954C99.3587 80.8478 111.196 83.5243 105.95 88.8279C103.373 91.4274 95.6517 90.3904 96.052 87.2352C96.2384 85.7552 99.2874 84.6687 101.434 85.3866C102.06 85.5957 102.956 86.0716 102.896 86.4594C102.789 87.2186 99.1065 86.9436 99.09 87.2627Z" fill="black"/>
</g>
<g style="mix-blend-mode:screen">
<path d="M127.91 79.7644C129.169 82.9251 128.253 86.028 128.209 86.028C128.328 84.8829 128.148 83.7265 127.688 82.6719C127.248 81.7545 126.589 80.9606 125.769 80.3613C126.481 82.6797 126.583 85.1437 126.065 87.5134C125.322 90.7951 123.542 92.8858 122.572 93.9971C116.213 101.287 105.917 102.12 102.811 102.365C98.8981 102.672 94.9617 102.364 91.1439 101.452C86.9405 100.442 74.0919 97.3531 71.9724 88.4074C71.616 86.9027 71.0978 83.2744 73.8918 78.1937C72.4029 79.8689 69.2305 83.9291 69.6555 88.9219C70.3794 97.5594 88.1004 110.928 110.746 106.068C115.489 105.047 122.103 103.625 127.016 97.8674C128.275 96.393 132.388 91.5791 131.773 85.2715C131.577 82.8283 130.673 80.496 129.171 78.5622C126.347 74.9862 122.421 74.1912 121.371 74.0151C122.103 74.2572 126.281 75.6712 127.91 79.7644Z" fill="black"/>
</g>
<g style="mix-blend-mode:screen">
<path d="M118.245 89.0701C118.711 85.8599 117.466 83.1091 115.27 81.4448C117.302 84.578 117.19 88.5969 115.421 91.3478C110.719 98.6979 89.839 100.054 84.2043 88.509C85.6055 102.896 116.307 102.458 118.245 89.0701Z" fill="black"/>
</g>
<g style="mix-blend-mode:screen">
<path d="M102.704 94.5995C109.874 93.9201 114.384 87.9838 109.731 84.2729C110.37 84.9435 110.77 85.8071 110.869 86.7294C111.015 88.4322 109.929 89.6755 109.364 90.3247C108.015 91.8679 105.572 92.828 103.567 93.2021C102.24 93.4524 99.5314 93.9586 96.4632 92.8115C94.8437 92.1982 93.3786 91.2346 92.1721 89.9891C94.4863 93.9393 98.2235 95.0341 102.704 94.5995Z" fill="black"/>
</g>
<g style="mix-blend-mode:screen">
<path d="M79.647 74.8567C71.6955 79.4616 70.8565 89.436 77.5166 93.631C76.9846 92.9928 74.2564 89.5983 74.9364 85.241C75.7124 80.2648 81.0509 75.8222 85.4845 75.1813C83.0131 76.888 80.9714 79.1483 79.5209 81.7832C90.1677 70.4746 105.843 73.0935 115.966 79.4341C113.381 77.0492 107.806 72.6231 99.5752 71.2201C97.1157 70.7938 88.0071 70.0125 79.647 74.8567Z" fill="black"/>
</g>
<g style="mix-blend-mode:screen">
<path d="M105.226 71.5502C111.588 72.4525 118.081 75.7865 120.666 81.7695L116.786 80.4711C118.342 81.7916 119.417 83.5934 119.841 85.5931C120.452 88.7236 119.073 91.1938 118.401 92.3931C115.111 98.2826 107.883 99.438 106.68 99.6113C107.946 99.6746 114.631 99.8671 119.613 94.8276C124.765 89.6231 126.775 82.5343 120.584 76.741C114.73 71.2614 103.779 71.3467 105.226 71.5502Z" fill="black"/>
</g>
<g style="mix-blend-mode:screen">
<path d="M78.1225 81.06C71.4706 88.7622 79.9212 97.5263 88.1469 98.7394C87.3929 98.3791 82.6439 96.0106 81.4375 90.7923C81.0354 89.1367 81.0637 87.4053 81.5197 85.7638C83.5076 79.1151 93.1893 77.1126 94.9551 76.7467C104.385 74.7936 112.248 79.3187 114.796 80.9389C115.051 81.1012 108.141 75.5941 98.6347 75.4043C96.2355 75.3575 90.4611 75.319 84.651 78.9803C82.2555 80.4975 80.1541 82.438 78.4488 84.7075C77.8346 83.8658 77.8127 81.7834 79.1781 80.0834C78.7865 80.3628 78.4318 80.6909 78.1225 81.06V81.06Z" fill="black"/>
</g>
<g style="mix-blend-mode:screen">
<path d="M112.506 81.2825C108.969 77.888 98.8514 76.0147 91.6484 78.7682C89.8826 79.4449 87.8097 80.3087 86.2331 82.2562C85.0541 83.7142 84.4289 85.1171 84.4454 86.5475C84.4673 88.5391 85.6217 89.9366 86.3126 90.7728C89.0079 94.0325 93.044 94.6707 94.478 94.8275C94.1188 94.7422 90.675 93.8647 89.4658 90.7013C88.3334 87.7194 90.0416 84.9933 90.2747 84.6192C92.5669 80.9606 98.6978 79.6678 105.473 81.6181C99.7014 79.1946 92.205 79.3376 87.8508 85.4307C88.4692 83.8582 89.5023 82.4842 90.8395 81.4558C94.1737 78.9525 101.676 78.064 107.332 80.6443C109.136 81.4695 111.267 82.4406 112.506 84.7705C115.094 89.6587 111.637 93.4933 107.332 94.5029C114.151 93.7216 118.522 87.062 112.506 81.2825Z" fill="black"/>
</g>
<g style="mix-blend-mode:screen">
<path d="M139.012 89.238C137.858 84.4956 134.428 81.8108 133.301 81.0186C134.009 84.1188 133.971 87.3436 133.191 90.4264C131.741 96.0408 128.162 99.3582 126.079 101.24C119.811 106.898 112.643 108.213 108.508 108.917C104.217 109.649 88.9531 111.588 75.9565 101.782C73.1443 99.6548 70.6416 97.1448 68.5204 94.3243C68.8673 95.5487 69.3082 96.7443 69.8393 97.9003C70.8349 100.059 72.1331 102.063 73.6944 103.853C70.5493 102.405 67.7643 100.274 65.5412 97.6136C63.3181 94.9532 61.7124 91.8301 60.8403 88.4705C61.05 91.8804 61.978 95.2068 63.563 98.2304C66.7409 104.23 71.6736 107.135 75.0955 109.151C80.7329 112.471 85.7478 113.506 88.8928 114.125C90.7436 114.49 98.739 115.957 108.942 114.017C112.525 113.335 116.893 112.469 121.982 109.69C125.789 107.615 129.218 104.909 132.127 101.688C130.408 105.054 127.982 108.006 125.015 110.34C127.014 109.649 133.413 107.151 136.978 100.5C138.042 98.4752 140.257 94.3435 139.012 89.238Z" fill="black"/>
</g>
</g>
<path d="M99.8981 79.1848C99.8799 79.5509 103.842 80.9419 105.245 79.0706C105.379 78.92 105.484 78.7396 105.552 78.5409C105.621 78.3422 105.652 78.1297 105.643 77.9168C105.448 76.3939 102.053 75.205 99.2344 75.9078C96.0534 76.6985 94.1792 78.8363 96.2044 81.6301C99.1537 85.7008 108.121 84.2805 108.946 79.2551C109.07 78.448 108.979 77.6179 108.686 76.8683C106.965 72.8094 98.8647 71.3305 95.0825 75.4598C94.4395 76.1626 93.4165 77.58 93 80.1454C93.3436 78.9242 94.0725 77.1583 95.2517 76.2241C100.151 72.3408 111.391 75.1903 106.411 80.8365C103.964 83.6069 96.6339 82.4999 97.0139 79.1409C97.191 77.5653 100.086 76.4086 102.124 77.1729C102.715 77.3955 103.568 77.9021 103.511 78.318C103.412 79.138 99.9216 78.8451 99.8981 79.1848Z" fill="#DDF1FB"/>
<path d="M132.937 77.2311C132.739 74.7935 131.825 72.4663 130.305 70.5369C127.443 66.9689 123.468 66.1757 122.405 66C123.14 66.2305 127.374 67.6468 129.025 71.7253C130.299 74.8789 129.37 77.9749 129.328 77.9749C129.446 76.8324 129.265 75.6791 128.8 74.6264C128.352 73.709 127.679 72.9166 126.843 72.3209C127.567 74.6337 127.671 77.0924 127.146 79.4569C126.394 82.7313 124.592 84.8172 123.61 85.926C117.172 93.1993 106.749 94.0309 103.603 94.2752C99.6414 94.5815 95.6552 94.274 91.7891 93.364C87.5336 92.3567 74.5284 89.2745 72.3826 80.3489C72.0218 78.8476 71.4971 75.2275 74.3258 70.1582C72.8212 71.8296 69.6067 75.8807 70.0398 80.8622C70.7726 89.4776 88.7134 102.819 111.637 97.9667C116.439 96.9484 123.135 95.5295 128.112 89.785C129.397 88.3276 133.561 83.5245 132.937 77.2311Z" fill="#DDF1FB"/>
<path d="M118.902 80.7281C119.378 77.4746 118.09 74.6867 115.847 73C117.933 76.1755 117.806 80.2486 116.004 83.0366C111.184 90.4859 89.7646 91.8604 84 80.1595C85.4337 94.7403 116.913 94.297 118.902 80.7281Z" fill="#DDF1FB"/>
<path d="M103.286 86.9089C110.288 86.194 114.693 79.9201 110.146 76C110.772 76.7078 111.163 77.6202 111.26 78.595C111.402 80.3937 110.342 81.7072 109.79 82.393C108.473 84.0233 106.087 85.0374 104.129 85.4326C102.83 85.6971 100.185 86.2318 97.1909 85.02C95.6088 84.3729 94.1778 83.3548 93 82.0385C95.2601 86.2027 98.9101 87.3593 103.286 86.9089Z" fill="#DDF1FB"/>
<path d="M82.7995 70.3175C81.9139 71.3072 81.1377 72.384 80.4836 73.5303C91.1512 62.5877 106.871 65.1217 117 71.2571C114.409 68.9494 108.824 64.6665 100.574 63.309C98.1017 62.9017 88.9836 62.1458 80.6072 66.8332C72.6402 71.2891 71.816 80.9408 78.4726 85C77.9397 84.3825 75.2089 81.0978 75.8902 76.8815C76.6677 72.0663 82.0166 67.7675 86.4589 67.1473C85.1043 68.0482 83.8745 69.1137 82.7995 70.3175V70.3175Z" fill="#DDF1FB"/>
<path d="M67.8833 81.0658C68.5943 64.887 94.2794 52.7138 120 65.6536C93.5358 49.6176 63.9525 65.6755 65.0285 81.0851C65.3908 86.2445 69.7302 90 69.7302 90C68.3959 87.2203 67.7616 84.1517 67.8833 81.0658Z" fill="#DDF1FB"/>
<path d="M106.129 63.0665C112.381 63.964 118.765 67.2803 121.304 73.2316L117.49 71.9428C119.021 73.254 120.079 75.0457 120.495 77.035C121.093 80.1488 119.74 82.6059 119.08 83.8017C115.846 89.6572 108.743 90.8064 107.56 90.9816C108.802 91.0418 115.375 91.2333 120.271 86.2205C125.335 81.0436 127.31 73.9923 121.225 68.2298C115.483 62.7792 104.703 62.864 106.129 63.0665Z" fill="#EEF7FC"/>
<path d="M89.3963 91C88.6422 90.6295 83.9039 88.1946 82.7006 82.83C82.2971 81.1278 82.3247 79.3489 82.781 77.6606C84.7662 70.8283 94.4257 68.7667 96.1945 68.3906C105.604 66.3827 113.454 71.0347 115.993 72.7004C116.248 72.8672 109.339 67.2056 99.8654 67.0105C97.4727 66.9624 91.7086 66.9228 85.9057 70.6868C83.5093 72.2507 81.4116 74.2457 79.7146 76.5746C79.1019 75.7093 79.0797 73.5685 80.441 71.8208C80.0517 72.1082 79.6996 72.4446 79.393 72.822C72.7528 80.7572 81.1868 89.7529 89.3963 91Z" fill="#EEF7FC"/>
<path d="M91.4123 73.1548C94.7531 70.5629 102.279 69.6429 107.951 72.3145C109.76 73.169 111.897 74.1744 113.139 76.5869C115.732 81.6482 112.268 85.6186 107.951 86.6639C114.8 85.855 119.178 78.9595 113.139 72.9753C109.593 69.4606 99.4438 67.5238 92.2235 70.372C90.4527 71.0727 88.3741 71.9671 86.793 73.9836C85.6107 75.4932 84.9838 76.9457 85.0003 78.4268C85.0223 80.4889 86.1799 81.9359 86.8728 82.8017C89.5756 86.1769 93.623 86.8377 95.061 87C94.7008 86.9117 91.2446 86.0031 90.0348 82.7277C88.8965 79.6402 90.6094 76.8176 90.8597 76.4302C93.1583 72.6421 99.3036 71.3034 106.101 73.3228C100.326 70.8135 92.7926 70.9617 88.4263 77.2705C89.0438 75.644 90.0758 74.2215 91.4123 73.1548V73.1548Z" fill="#EEF7FC"/>
<path d="M139.633 81.2252C138.486 76.4794 135.08 73.8066 133.958 73C134.664 76.102 134.627 79.3295 133.852 82.4144C132.411 88.0328 128.858 91.3526 126.788 93.2355C120.564 98.8979 113.446 100.214 109.339 100.918C105.078 101.651 89.9189 103.591 77.0119 93.7778C74.2188 91.6476 71.7333 89.1339 69.6271 86.3095C69.9716 87.5348 70.4095 88.7312 70.9369 89.8881C71.9256 92.0481 73.2149 94.0541 74.7654 95.8451C71.642 94.3963 68.8763 92.2635 66.6685 89.6012C64.4607 86.9389 62.8661 83.8136 62 80.4517C62.2087 83.8634 63.1293 87.192 64.7012 90.2184C67.8599 96.2222 72.7586 99.1291 76.1569 101.147C81.7554 104.469 86.7358 105.504 89.8563 106.124C91.6971 106.49 99.6374 107.957 109.767 106.017C113.326 105.334 117.664 104.467 122.72 101.689C126.499 99.6103 129.905 96.9032 132.795 93.6814C131.085 97.0469 128.675 99.9991 125.732 102.336C127.717 101.645 134.072 99.1456 137.612 92.4894C138.674 90.4689 140.869 86.3343 139.633 81.2252Z" fill="#EEF7FC"/>
</g>
<defs>
<linearGradient id="paint0_linear_101_2970" x1="86.0776" y1="83.1249" x2="129.554" y2="153.417" gradientUnits="userSpaceOnUse">
<stop stop-color="#005995"/>
<stop offset="1" stop-color="#068BE5"/>
</linearGradient>
<linearGradient id="paint1_linear_101_2970" x1="80.5404" y1="84.9148" x2="148.043" y2="150.545" gradientUnits="userSpaceOnUse">
<stop stop-color="#001440"/>
<stop offset="1" stop-color="#005995"/>
</linearGradient>
<linearGradient id="paint2_linear_101_2970" x1="97.0539" y1="84.9535" x2="106.669" y2="108.911" gradientUnits="userSpaceOnUse">
<stop stop-color="#001440"/>
<stop offset="1" stop-color="#005995"/>
</linearGradient>
<clipPath id="clip0_101_2970">
<rect width="133" height="96" fill="white" transform="translate(36 55)"/>
</clipPath>
</defs>
</svg>
