<svg width="205" height="205" viewBox="0 0 205 205" fill="none" xmlns="http://www.w3.org/2000/svg">
<g clip-path="url(#clip0_76_73)">
<path d="M55.643 143.786C81.5834 158.736 123.612 158.736 149.544 143.786C175.476 128.835 175.484 104.593 149.544 89.6379C123.603 74.6831 81.5668 74.6872 55.6306 89.6379C29.6943 104.589 29.7109 128.831 55.643 143.786Z" fill="#D9D9D9"/>
<path d="M165.017 109.502C165.017 109.502 156.467 95.0026 146.121 89.0455C120.923 74.5174 80.0775 74.5174 54.8755 89.0455C44.2264 95.189 36 110.608 36 110.608V116.184C36.3609 125.422 42.6375 134.593 54.8672 141.644C80.0651 156.172 120.903 156.172 146.105 141.644C158.575 134.457 164.864 125.074 164.993 115.629L165.017 109.502Z" fill="url(#paint0_linear_76_73)"/>
<path d="M164.947 112.19C164.545 115.561 163.434 118.808 161.686 121.718C160.609 123.522 159.359 125.216 157.953 126.776C157.778 126.984 157.583 127.191 157.384 127.39C154.109 130.834 150.333 133.767 146.183 136.089C121.006 150.588 80.1936 150.588 55.0165 136.089C52.0621 134.403 49.2828 132.429 46.7196 130.194C45.2739 128.937 43.9221 127.576 42.6748 126.122C38.348 121.01 36.17 115.446 36.1451 109.879C36.1451 109.261 36.17 108.636 36.2239 108.006C36.9541 99.0873 43.2266 90.305 55.0331 83.5028C88.1006 64.4469 144.026 71.4892 160.711 96.2951C161.746 97.8273 162.625 99.4594 163.333 101.167C164.805 104.643 165.361 108.439 164.947 112.19Z" fill="#59A152"/>
<path d="M47.5867 113.048C45.9805 112.744 44.4907 112 43.2847 110.898C40.8827 108.574 40.7956 105.276 40.5924 105.313C40.3891 105.351 40.1319 109.572 41.8867 114.336C42.5131 116.039 44.8653 122.48 50.4906 125.612C53.8965 127.509 55.112 126.308 66.5162 126.258C77.8456 126.209 83.5249 127.364 90.5026 125.289C93.2323 124.46 95.8956 123.47 95.8956 123.47C100.795 121.552 103.081 119.841 112.353 116.913C117.753 115.203 123.248 113.805 128.81 112.725C138.147 110.942 147.643 110.125 157.148 110.285C158 110.303 158.827 109.998 159.463 109.431C160.099 108.865 160.496 108.079 160.574 107.231C160.657 106.368 160.668 105.499 160.608 104.634C160.384 101.734 160.267 100.239 159.363 99.406C157.812 97.981 155.629 98.2503 154.953 98.3332C153.526 98.5072 152.095 99.1616 152.157 99.5137C152.261 100.119 156.82 98.9877 157.965 100.91C158.134 101.242 158.222 101.61 158.222 101.983C158.222 102.356 158.134 102.723 157.965 103.056C157.003 105.044 153.402 105.127 151.742 105.206C137.385 105.823 135.758 110.666 127.109 108.52C124.91 107.977 122.031 106.929 118.721 108.105C117.171 108.678 115.774 109.596 114.634 110.79C112.349 112.973 108.457 114.862 96.995 116.175C83.5042 117.704 63.7243 117.944 63.4339 115.314C63.2887 113.988 67.9972 112 68.4908 111.772C71.2703 110.583 73.8838 110.347 73.8838 109.729C73.8838 109.373 73.0002 109.137 72.8094 109.083C71.0629 108.607 69.7685 109.767 69.1504 109.191C68.8102 108.876 69.0965 108.424 68.831 108.118C68.1341 107.327 65.0435 109.05 63.438 109.837C61.7206 110.653 54.2284 114.622 47.5867 113.048Z" fill="#7ACD5E"/>
<path style="mix-blend-mode:color-dodge" d="M59.9159 113.371C57.3148 114.154 56.9622 114.73 54.4524 115.475C52.6707 116.048 50.8179 116.37 48.9473 116.432C46.4334 116.49 45.5 115.981 45.2137 116.432C44.5956 117.385 47.6406 121.478 51.8513 123.653C54.9751 125.264 56.4478 124.643 67.7523 124.61C75.7879 124.585 78.2853 124.892 83.2262 123.893C86.3624 123.259 90.3407 122.133 90.2785 121.693C90.2163 121.345 87.5945 121.536 85.9186 121.644C73.5478 122.472 60.9903 122.286 60.7705 120.786C60.6917 120.235 62.2971 119.796 62.21 118.823C62.1104 117.7 59.9117 117.526 59.6711 116.478C59.5052 115.753 60.2644 114.568 63.9814 112.509C62.6044 112.682 61.2444 112.97 59.9159 113.371Z" fill="url(#paint1_linear_76_73)"/>
<path d="M164.993 112.311C164.59 115.68 163.479 118.927 161.732 121.839C160.654 123.642 159.403 125.338 157.998 126.901C157.824 127.108 157.625 127.315 157.43 127.51C154.155 130.954 150.379 133.887 146.229 136.209C121.052 150.708 80.2393 150.708 55.0622 136.209C52.1065 134.526 49.327 132.551 46.7653 130.314C52.087 131.165 57.4866 131.424 62.8655 131.089C66.4456 130.861 66.2797 130.604 70.2332 130.389C78.6173 129.933 80.6043 131.023 86.5698 130.024C89.2404 129.584 91.8601 128.877 94.3897 127.916C100.098 125.733 102.595 122.878 120.43 117.394C120.426 117.398 134.58 113.04 164.993 112.311Z" fill="url(#paint2_linear_76_73)"/>
<path d="M159.558 112.509C157.322 113.338 156.729 113.926 156.762 114.369C156.832 115.38 160.147 115.612 160.176 116.623C160.176 116.813 160.218 117.451 157.944 118.238C153.999 119.597 153.427 120.815 153.211 122.319C152.995 123.823 151.921 126.462 148.191 127.402C146.847 127.737 145.926 127.124 145.188 127.816C144.877 128.145 144.652 128.544 144.532 128.98C144.283 129.809 144.532 130.248 144.462 130.637C144.171 132.294 137.384 131.934 130.772 134.506C128.967 135.207 127.009 136.188 127.113 136.511C127.246 136.926 130.95 136.23 132.133 136.01C133.995 135.658 134.883 135.381 134.929 135.509C135.012 135.729 132.489 137.009 129.693 138.015C126.312 139.229 125.13 139.109 120.948 140.592C114.203 142.986 116.642 142.013 107.536 142.025C104.757 142.025 105.308 142.195 103.164 142.166C98.7332 142.112 92.4607 141.338 92.3363 139.946C92.2326 138.802 96.269 137.758 96.1362 137.299C95.8956 136.47 83.276 139.929 82.4463 137.87C82.1144 137.062 83.8153 135.919 83.3797 135.149C82.8155 134.146 79.5921 134.933 77.3561 135.294C68.9181 136.644 61.3222 133.744 61.3679 133.197C61.3679 132.965 62.795 133.177 65.8316 132.609C68.8683 132.042 69.5279 131.437 71.5856 131.366C73.5395 131.308 74.7052 131.781 75.8875 132.066C77.298 132.39 78.8413 132.431 86.5781 130.037C94.315 127.642 97.443 126.151 104.417 124.73L104.607 124.693C114.399 122.671 123.909 119.472 132.929 115.165C137.907 114.295 143.321 113.57 149.108 113.093C152.721 112.779 156.214 112.596 159.558 112.509Z" fill="#5D5691"/>
<path style="mix-blend-mode:color-dodge" d="M157.409 127.402C137.156 149.184 85.7526 153.79 55.0249 136.076C33.4321 123.649 30.3539 104.543 45.7904 90.2178C32.6687 104.303 36.4148 122.207 57.0161 134.088C86.5408 151.11 135.526 147.663 157.409 127.402Z" fill="url(#paint3_linear_76_73)"/>
<path d="M143.437 95.9884C143.325 96.763 148 97.517 147.963 98.6935C147.938 99.9363 142.715 100.5 142.769 101.075C142.844 102.028 157.318 101.308 157.397 102.182C157.397 102.38 156.812 102.973 153.895 103.267C150.702 103.615 147.547 104.253 144.47 105.173C136.555 107.513 130.73 107.194 126.632 106.283C119.791 104.771 114.705 105.516 114.502 106.453C114.311 107.281 117.949 108.11 117.932 109.154C117.862 112.977 68.5655 116.043 68.3 113.71C68.1009 111.983 81.0192 109.278 78.1858 108.582C76.8848 108.251 75.6587 107.676 74.5725 106.888C70.6854 104.816 67.8022 104.791 65.8607 105.127C63.4546 105.541 63.1932 106.477 57.0244 108.797C54.9905 109.538 52.8621 109.988 50.7022 110.135C50.1836 110.135 49.7605 110.135 49.4161 110.135C48.1257 110.076 46.851 109.827 45.6327 109.398C45.0656 109.161 44.5848 108.756 44.2554 108.238C43.8972 107.611 43.7668 106.879 43.8862 106.167C43.9942 105.576 44.2283 105.015 44.5726 104.523C44.9169 104.03 45.3634 103.617 45.8816 103.313L49.6692 100.968C47.9725 100.305 46.6367 99.5054 46.6367 98.5858C46.6367 96.8707 51.3203 95.8476 51.2 95.1351C51.1046 94.6172 48.574 94.4805 41.4594 95.1351C42.1235 94.237 42.8323 93.3729 43.5834 92.5459C43.8572 92.2394 44.1517 91.9286 44.4504 91.6262C44.5541 91.5143 44.6579 91.4026 44.7699 91.299C46.8853 89.1874 49.2029 87.2878 51.6895 85.6277C52.7059 84.9442 53.7637 84.2815 54.8631 83.6435C54.8631 83.6435 54.8631 83.6435 54.8879 83.6435C56.8678 82.5036 58.9046 81.4652 60.9904 80.5324L61.9445 80.1181C63.178 79.5851 64.4377 79.081 65.7238 78.606C66.3792 78.3658 67.0305 78.1338 67.6943 77.9101L68.7024 77.5745C70.0105 77.1354 71.3436 76.7308 72.7015 76.3608C73.0873 76.2489 73.4856 76.1453 73.8797 76.0418C75.2625 75.6717 76.6716 75.3376 78.107 75.0393C78.1109 75.0411 78.1151 75.042 78.1194 75.042C78.1237 75.042 78.128 75.0411 78.1318 75.0393C78.8454 74.8819 79.5589 74.7369 80.2849 74.6002C81.7535 74.3143 83.2428 74.0657 84.7404 73.842L86.5201 73.6017C87.1673 73.5189 87.8227 73.432 88.474 73.3615C89.4199 73.2593 90.3698 73.1681 91.324 73.0881C98.2058 72.494 105.128 72.5482 112 73.2497C112.145 73.2497 112.286 73.2745 112.415 73.2952C113.911 73.4554 115.402 73.6474 116.887 73.8711C118.131 74.0575 119.417 74.2853 120.674 74.5049C122.182 74.7811 123.679 75.0987 125.167 75.4577C125.69 75.5778 126.225 75.7062 126.748 75.8471C126.872 75.9838 127.001 76.1205 127.163 76.2613C127.572 76.6515 128.021 76.9973 128.503 77.2929C128.615 77.3633 128.735 77.4296 128.859 77.5C131.713 79.1239 132.979 78.3285 137.368 79.5713C140.156 81.2035 142.417 82.3551 144.312 83.2457L144.843 83.4985C145.532 83.8216 146.171 84.1074 146.764 84.3725C148.517 85.1305 150.185 86.069 151.742 87.1729L151.776 87.2019C152.431 87.6659 153.12 88.2044 153.875 88.859C153.987 88.9542 154.09 89.0496 154.202 89.1324C157.214 91.6926 156.642 90.661 158.542 93.4366C159.064 94.0579 159.554 94.6793 160.019 95.3132C158.8 94.4293 157.349 93.9209 155.845 93.8508C154.431 93.8177 154.086 94.2651 151.282 94.7125C150.008 94.9196 149.959 94.8409 147.49 95.1515C143.69 95.6031 143.458 95.8268 143.437 95.9884Z" fill="#5D5691"/>
<path d="M159.483 95.0521C153.261 90.7231 148.59 90.1349 145.399 90.4498C142.446 90.748 140.284 91.8706 136.804 90.9012C133.668 90.0313 131.237 87.9517 130.365 88.7596C129.693 89.3644 130.681 90.9262 130.017 91.473C128.959 92.3015 125.425 88.9666 124.595 89.6543C123.699 90.4166 127.084 95.0397 126.175 95.8682C125.03 96.9163 117.708 90.7481 116.949 91.6097C116.895 91.6511 116.879 91.734 116.845 91.908C116.215 94.7456 122.263 99.5261 122.653 99.8078C122.638 99.7924 122.622 99.7785 122.604 99.7665L127.246 99.8783C126.693 101.008 126.139 102.135 125.586 103.259C124.19 102.458 122.714 101.806 121.181 101.316C116.061 99.6878 114.838 101.361 109.503 100.259C108.225 99.9943 106.765 99.5883 105.296 99.1451C103.915 99.5966 95.5057 102.273 95.626 103.288C95.6758 103.739 96.3313 104.116 96.6507 104.307C100.43 106.295 105.201 106.378 105.201 106.378C109.349 106.457 111.457 106.013 111.535 106.378C111.656 106.9 107.387 108.271 106.275 108.632C103.706 109.461 101.091 110.14 98.4429 110.666C91.0046 112.107 84.2053 113.491 74.6265 111.908C74.6265 111.908 91.1333 108.743 92.859 106.701C94.5848 104.659 94.0371 104.216 93.8131 102.836C93.5891 101.457 94.1409 100.587 98.2271 98.5527C99.0426 98.1356 99.9291 97.8742 100.841 97.7821C96.6217 96.5394 94.9913 96.7962 91.4693 97.3679C87.9472 97.9396 83.5872 98.9421 81.3097 98.3911C80.2767 98.1316 79.3034 97.6759 78.443 97.0489C77.9194 96.6169 77.4388 96.1355 77.0077 95.6114C76.0411 94.5095 75.9332 94.0828 75.6594 93.8218C74.2863 92.579 69.947 96.5642 64.4586 98.5692C60.4802 100.036 57.1697 99.812 55.3776 99.0374C54.0127 98.3994 53.3033 96.8128 54.133 94.7829C54.9627 92.9602 57.1324 92.4631 57.0369 92.2021C56.9415 91.9411 55.7716 92.3885 53.1332 92.7531L52.7765 92.7986C49.1141 93.3009 45.4817 94.0007 41.895 94.8948C42.5505 94.0165 43.2516 93.1632 44.0107 92.3305C44.2845 92.0198 44.575 91.7132 44.8736 91.4149C44.9732 91.3072 45.0769 91.1955 45.1889 91.0919C47.2849 88.9955 49.5833 87.1111 52.0505 85.4662C53.0682 84.7951 54.1178 84.1392 55.1991 83.4985C55.1991 83.4985 55.1992 83.4985 55.2282 83.4985C57.1914 82.3693 59.21 81.3392 61.2767 80.4122L62.2267 79.998C63.4463 79.4802 64.7158 78.9747 65.9603 78.4983C66.6075 78.258 67.2588 78.0302 67.9142 77.8065L68.914 77.4751C70.2139 77.0498 71.5372 76.6494 72.8841 76.2738C73.2657 76.1619 73.6599 76.0584 74.054 75.959C75.4368 75.5999 76.8334 75.2671 78.2439 74.9605C78.2478 74.9624 78.2521 74.9634 78.2564 74.9634C78.2607 74.9634 78.2649 74.9624 78.2688 74.9605L80.4053 74.5256C81.8614 74.2439 83.3382 73.9954 84.8234 73.7758C85.4125 73.6888 86.0016 73.6142 86.5906 73.5355C87.1797 73.4568 87.8808 73.3656 88.528 73.2993C89.4697 73.1958 90.4072 73.1005 91.3531 73.026C98.181 72.4361 105.049 72.4901 111.867 73.1875C112.012 73.1875 112.149 73.2124 112.282 73.2289C113.767 73.3919 115.247 73.5825 116.721 73.8007C117.966 73.9871 119.21 74.2148 120.455 74.4303C121.948 74.7064 123.433 75.0227 124.91 75.3789C125.433 75.4991 125.96 75.6234 126.482 75.7601C126.603 75.8968 126.727 76.0335 126.872 76.1744C127.276 76.5647 127.723 76.9079 128.204 77.1976C128.316 77.268 128.436 77.3343 128.557 77.4006C131.39 79.012 132.643 78.2042 136.999 79.4387C139.762 81.0585 142.01 82.2018 143.885 83.0884L144.416 83.3368C145.096 83.66 145.731 83.9417 146.32 84.2027C147.362 84.6667 148.274 85.0644 149.112 85.4455C149.834 85.9302 150.56 86.4355 151.269 86.9699L151.303 86.9948C152.013 87.5251 152.705 88.0774 153.377 88.6518C153.489 88.7471 153.593 88.8425 153.705 88.9253C155.858 90.7416 157.797 92.7971 159.483 95.0521Z" fill="#443F6E"/>
<path d="M158.459 93.4326C154.435 91.1003 148.025 87.6702 143.661 88.5443C140.131 89.3977 137.891 88.8964 136.426 88.1301C130.892 87.024 126.092 86.618 122.587 86.8873C119.239 87.1358 117.078 87.9892 116.572 89.4102C116.111 90.6944 117.372 94.5387 121.965 97.1983C127.951 99.1909 129.158 99.9697 129.083 100.305C128.942 100.906 124.483 100.541 120.89 99.7003C113.348 97.9356 113.56 95.9099 108.86 95.1891C105.516 94.6795 101.235 95.189 99.0319 94.7499C96.5428 94.2321 94.7423 94.4972 92.2532 94.9363C88.8432 95.537 84.7031 96.4401 82.5459 95.9057C81.5541 95.6569 80.6191 95.221 79.7913 94.6216C79.2921 94.2108 78.8337 93.753 78.4223 93.2545C77.5055 92.2023 77.4017 91.7921 77.1362 91.5436C75.8295 90.3546 71.6852 94.1699 66.4208 96.0755C62.6208 97.4757 59.4845 97.2604 57.7339 96.5354C55.8463 95.7442 56.6304 94.1824 58.1487 92.8071C58.5265 92.4811 58.8623 92.1096 59.1485 91.701C60.169 90.044 57.4891 90.2718 55.5683 90.5203C55.4536 90.5227 55.3395 90.538 55.2282 90.566C52.5275 90.9222 43.1188 92.9976 43.1188 92.9976C50.9677 83.9833 56.7673 83.2004 61.65 78.2127C61.9487 77.9061 63.2181 76.5929 65.3836 74.3559L67.7939 71.8994C69.6027 70.0683 70.3286 69.4759 70.8223 68.8587C74.1411 64.7161 83.2387 50.9668 83.2387 50.9668H99.7911C99.7911 50.9668 99.8906 51.1159 100.077 51.3811C107.304 61.5801 107.69 61.7624 109.503 62.3755C113.05 63.5562 114.34 65.1966 115.518 66.1039C119.281 68.9333 118.194 70.4992 121.164 72.1893C123.429 73.4735 124.383 72.7486 128.046 73.8713C130.867 74.7371 132.481 75.8473 134.891 77.2889C145.321 83.5567 148.121 82.7157 153.559 87.7241C155.406 89.4331 157.05 91.3485 158.459 93.4326Z" fill="#4C467A"/>
<path d="M122.562 86.7546C123.246 90.2923 123.039 91.3487 122.624 91.5186C122.209 91.6884 121.857 90.9303 120.571 90.4912C119.081 89.9858 116.791 89.9237 116.978 92.0737C116.553 90.8364 115.765 89.7553 114.717 88.9709C113.693 88.2459 112.763 88.1424 111.606 86.999C111.374 86.7712 111.017 86.2575 110.432 85.4829C110.17 85.1432 108.42 78.9666 107.574 75.9549C107.279 74.898 106.664 73.9576 105.815 73.2622C103.491 71.3525 98.8576 67.533 98.6875 67.2803C98.4718 66.953 97.2812 62.2346 97.2107 61.9404C102.413 67.8892 102.434 68.0176 103.102 68.4816L107.453 71.485C108.393 72.141 109.101 73.078 109.473 74.1611C111.133 78.8547 113.477 81.3361 115.443 82.7529C115.427 82.7529 116.256 83.3328 122.562 86.7546Z" fill="#443F6E"/>
<path d="M99.5255 94.7708C97.945 94.8371 97.75 94.0003 92.274 94.9696C89.0382 93.6937 86.2795 91.5438 85.8314 90.5537C85.122 88.9753 86.0057 87.0697 87.076 84.8244C88.1463 82.5791 88.4865 82.72 88.5736 81.8791C88.8018 79.6462 86.4662 78.1755 84.7653 76.0214C83.3715 74.2608 81.8406 71.3361 81.6789 66.3608C80.1779 70.6722 79.4751 75.2203 79.6046 79.7829C79.7913 84.7913 80.8491 86.3904 79.5258 88.5818C78.7583 89.8701 71.2289 92.9439 68.831 94.572C68.1714 95.0152 67.3376 95.5496 66.4125 96.1089C62.6125 97.5091 59.4762 97.2937 57.7256 96.5687C55.838 95.7775 56.6221 94.2157 58.1404 92.8404C58.5182 92.5144 58.854 92.1428 59.1402 91.7343C60.1565 90.0772 57.4808 90.3051 55.56 90.5537C51.3615 91.1092 47.2041 91.9395 43.1146 93.0392C43.1146 93.0392 47.4706 88.4617 49.0636 87.2396C53.8841 83.5112 57.9869 81.9909 61.65 78.2708C63.9068 75.9675 64.5996 75.2136 67.8105 71.9575C69.6192 70.1264 70.3452 69.5341 70.8389 68.9169C74.1577 64.7743 83.2552 51.0249 83.2552 51.0249H87.7978C86.3583 53.6637 85.6323 57.4335 88.5487 56.9571C85.8563 58.929 85.0639 60.9796 84.7818 61.978C83.2303 67.5415 88.3621 73.7223 90.0588 75.2343C91.2453 76.2948 93.4936 78.7058 93.9085 79.8616C94.3524 81.1044 93.5352 81.6926 92.942 85.1641C92.5893 87.2354 92.4151 88.2586 92.5271 89.0374C92.6391 89.8162 93.3816 92.5545 99.5255 94.7708Z" fill="#5D5691"/>
<path d="M92.249 94.7912C84.9187 96.0837 81.8032 97.0365 78.4346 93.1093C77.5178 92.0571 77.4141 91.6512 77.1486 91.4026C75.3938 89.7994 68.4908 97.2685 60.6543 96.9495C59.6642 96.905 58.686 96.7166 57.7504 96.3902C60.2258 96.1998 62.6271 95.4581 64.7779 94.2195C67.3831 92.6867 67.4163 91.6179 70.8927 88.8341C75.0412 85.52 75.9414 85.4248 77.5303 83.6228C78.2148 82.8605 77.7917 77.8231 77.5303 76.543C77.2689 75.263 81.6331 66.2114 81.6331 66.2114C81.6331 66.2114 81.0399 71.9323 81.6331 74.1528C82.2941 76.4311 83.1261 78.6565 84.1222 80.8099C84.9768 82.6907 83.2676 87.2972 82.4131 89.265C82.0687 90.0479 82.6454 90.9718 83.4543 91.792C85.9725 94.3231 88.7353 94.3438 92.249 94.7912Z" fill="#343259"/>
<path d="M158.467 93.3578C154.63 91.1291 147.955 87.5374 143.686 88.4654C143.101 88.6062 138.841 89.5342 136.455 88.0511C134.547 86.8829 135.501 85.172 133.643 83.1877C132.008 81.4437 130.623 82.0858 125.951 80.7022C121.994 79.5422 115.236 76.1453 111.917 73.1544C111.813 73.0715 111.718 72.9762 111.623 72.8892C110.264 71.4757 108.766 70.203 107.15 69.0904C103.131 66.2735 101.081 62.6032 98.7664 60.6437C96.4516 58.6843 90.988 57.9137 90.988 57.9137L94.4893 57.4332C96.9328 57.0977 99.0775 53.5059 100.152 51.3394C107.37 61.5219 107.76 61.6959 109.573 62.3214C113.112 63.4979 114.402 65.1384 115.572 66.025C119.335 68.8502 118.326 70.3125 121.297 71.9944C123.558 73.2745 124.512 72.5537 128.171 73.6722C130.983 74.538 132.522 75.7435 134.924 77.1934C145.345 83.457 148.141 82.616 153.555 87.6161C155.41 89.3331 157.059 91.26 158.467 93.3578Z" fill="#343259"/>
<path d="M122.11 97.5505C125.586 99.1744 127.2 99.6715 127.088 100.036C126.918 100.691 120.865 100.74 115.593 97.8198C111.257 95.4254 107.756 91.2247 106.881 89.9695C104.392 86.4193 103.624 87.107 101.488 83.619C99.6749 80.6943 100.081 77.521 98.5839 74.5715C96.3893 70.259 92.0127 70.5034 91.9463 67.4296C91.9048 65.5655 93.5186 64.7411 92.9295 62.9059C92.5147 61.6425 91.4277 61.0169 91.4319 59.4096C91.4319 59.1569 91.4319 58.3242 91.7721 58.2123C92.3778 58.0135 94.1035 60.1014 94.5516 62.5662C94.9664 64.8488 93.9542 65.6152 94.6802 66.9201C94.8162 67.1412 94.9776 67.3456 95.1614 67.5291C96.1363 68.5937 97.0116 68.7719 97.7583 69.3104C98.505 69.8489 98.6254 70.3957 99.3804 71.8705C101.33 75.6651 102.284 75.3586 103.143 77.9312C103.612 79.3148 103.558 81.1748 105.28 85.015C107.906 90.8229 120.679 96.8794 122.11 97.5505Z" fill="#343259"/>
<path d="M67.574 78.6018C66.9061 80.9093 66.6945 82.0982 65.8649 83.4694C63.8155 86.8746 59.916 90.8225 59.1858 91.5599C59.2774 91.4448 59.3415 91.3104 59.3731 91.1668C59.4047 91.0232 59.4031 90.8742 59.3683 90.7314C59.0489 89.9898 56.9083 90.2259 55.6098 90.3916C54.1786 90.4745 44.7533 92.5168 43.1644 92.8772C43.5212 92.7529 54.5685 88.7346 59.1028 86.3858C63.7242 83.9955 62.9526 83.2291 64.9107 80.5861C66.8688 77.9432 68.0013 77.1436 67.574 78.6018Z" fill="#343259"/>
</g>
<defs>
<linearGradient id="paint0_linear_76_73" x1="76.4891" y1="116.2" x2="174.409" y2="112.727" gradientUnits="userSpaceOnUse">
<stop stop-color="#D97652"/>
<stop offset="1" stop-color="#B65341"/>
</linearGradient>
<linearGradient id="paint1_linear_76_73" x1="56.3648" y1="97.0036" x2="82.5529" y2="148.882" gradientUnits="userSpaceOnUse">
<stop stop-color="#5CCF59"/>
<stop offset="1"/>
</linearGradient>
<linearGradient id="paint2_linear_76_73" x1="35.1703" y1="143.931" x2="124.369" y2="130.43" gradientUnits="userSpaceOnUse">
<stop stop-color="#5D5691"/>
<stop offset="1" stop-color="#443F6E"/>
</linearGradient>
<linearGradient id="paint3_linear_76_73" x1="36.141" y1="118.599" x2="157.409" y2="118.599" gradientUnits="userSpaceOnUse">
<stop stop-color="#FEB42B"/>
<stop offset="1"/>
</linearGradient>
<clipPath id="clip0_76_73">
<rect width="133" height="104" fill="white" transform="translate(36 51)"/>
</clipPath>
</defs>
</svg>
