<?xml version="1.0" encoding="utf-8"?>
<!-- Generator: Adobe Illustrator 26.0.1, SVG Export Plug-In . SVG Version: 6.00 Build 0)  -->
<svg version="1.1" id="圖層_1" xmlns="http://www.w3.org/2000/svg" xmlns:xlink="http://www.w3.org/1999/xlink" x="0px" y="0px"
	 viewBox="0 0 765 69" style="enable-background:new 0 0 765 69;" xml:space="preserve">
<style type="text/css">
	.st0{clip-path:url(#SVGID_00000173839121055385072480000002325646002453655215_);}
	.st1{fill:#00498B;}
	.st2{fill:#FFFFFF;}
</style>
<g>
	<defs>
		<rect id="SVGID_1_" y="0" width="765" height="69"/>
	</defs>
	<clipPath id="SVGID_00000163067721998979697390000016169493089208217530_">
		<use xlink:href="#SVGID_1_"  style="overflow:visible;"/>
	</clipPath>
	<g style="clip-path:url(#SVGID_00000163067721998979697390000016169493089208217530_);">
		<path class="st1" d="M16.3,62.9h-2.5L3.7,51.1v11.8h-3v-17h2.5l10.2,11.8V45.9h3L16.3,62.9z"/>
		<path class="st1" d="M26.9,59.3c-0.2,0.5-0.5,0.9-0.9,1.2c-0.5,0.4-1.1,0.6-1.8,0.6c-0.2,0-0.5,0-0.7-0.1
			c-0.2-0.1-0.4-0.2-0.6-0.4c-0.2-0.2-0.3-0.4-0.4-0.6c-0.1-0.2-0.1-0.5-0.1-0.7c0-1.2,1.2-2.1,3.5-2.6l1.5-0.3v1.2
			C27.3,58.2,27.1,58.8,26.9,59.3z M30.7,59.1v-3.2c0-0.8,0-1.6-0.2-2.3c-0.1-0.5-0.4-0.9-0.7-1.3c-0.6-0.6-1.3-1-2.1-1.3
			c-0.8-0.3-1.6-0.4-2.4-0.3c-1.9,0-3.8,0.6-5.4,1.7l1.2,1.5c1-0.8,2.2-1.3,3.4-1.3c0.6,0,1.3,0.2,1.8,0.6c0.5,0.4,0.8,1,0.9,1.6
			L25,55c-1.3,0.2-2.5,0.6-3.6,1.2c-0.7,0.3-1.3,0.8-1.8,1.4c-0.4,0.6-0.7,1.4-0.7,2.1c0,0.5,0.1,0.9,0.3,1.4s0.5,0.8,0.9,1.1
			c0.8,0.7,1.8,1,2.8,1c0.8,0,1.6-0.2,2.4-0.5c0.7-0.3,1.4-0.8,2-1.4c0,0.6,0.1,1.1,0.3,1.6h3.8C30.8,61.7,30.6,60.4,30.7,59.1z"/>
		<path class="st1" d="M42.3,62.5c-1.2,0.5-2.4,0.7-3.6,0.7c-0.6,0.1-1.3,0-1.9-0.3c-0.6-0.2-1.1-0.6-1.6-1.1c-0.5-1-0.8-2-0.7-3.1
			v-6.2h-1.9v-1.6h1.9v-3l3.6-0.7v3.6h3.5v1.6h-3.5V58c-0.1,0.9,0.1,1.7,0.4,2.5c0.2,0.3,0.4,0.5,0.6,0.6c0.3,0.1,0.6,0.2,0.9,0.1
			c0.6,0,1.2-0.1,1.7-0.4L42.3,62.5z"/>
		<path class="st1" d="M47.8,47.1c0,0.2,0,0.5-0.2,0.7c-0.1,0.2-0.3,0.4-0.4,0.6c-0.2,0.2-0.4,0.3-0.7,0.4c-0.3,0.1-0.5,0.1-0.8,0.1
			c-0.5,0-1.1-0.2-1.5-0.5c-0.2-0.1-0.3-0.3-0.5-0.6c-0.1-0.2-0.2-0.5-0.2-0.7c0-0.3,0-0.5,0.1-0.8c0.1-0.2,0.2-0.5,0.4-0.6
			c0.4-0.4,1-0.5,1.5-0.5c0.3,0,0.5,0,0.8,0.1c0.3,0.1,0.5,0.2,0.7,0.4c0.2,0.2,0.4,0.4,0.5,0.6C47.8,46.6,47.8,46.9,47.8,47.1z
			 M47.6,62.9h-3.5V50.8h3.6L47.6,62.9z"/>
		<path class="st1" d="M59.9,60.3c-0.3,0.4-0.6,0.7-1.1,0.9c-0.4,0.2-0.9,0.3-1.4,0.3c-0.5,0-1-0.1-1.4-0.3
			c-0.4-0.2-0.8-0.5-1.1-0.9c-0.7-1-1-2.2-0.9-3.4c-0.1-1.2,0.3-2.3,0.9-3.3c0.3-0.4,0.6-0.7,1.1-0.9c0.4-0.2,0.9-0.3,1.4-0.3
			c0.5,0,1,0.1,1.4,0.3c0.4,0.2,0.8,0.5,1.1,0.9c0.7,1,1,2.2,0.9,3.3C60.8,58,60.5,59.2,59.9,60.3z M62.4,52.3
			c-1.4-1.2-3.2-1.9-5-1.8c-1.9-0.1-3.7,0.6-5.1,1.8c-0.6,0.6-1.2,1.2-1.5,2c-0.3,0.8-0.5,1.6-0.5,2.5c0,0.9,0.1,1.7,0.5,2.5
			c0.3,0.8,0.9,1.5,1.5,2.1c1.4,1.2,3.2,1.9,5.1,1.8c1.9,0.1,3.7-0.6,5.1-1.8c0.6-0.6,1.2-1.3,1.5-2.1c0.3-0.8,0.5-1.7,0.5-2.5
			c0-0.8-0.2-1.7-0.5-2.4C63.6,53.6,63.1,52.9,62.4,52.3z"/>
		<path class="st1" d="M79.8,62.9h-3.6V56c0.1-0.8-0.1-1.6-0.4-2.3c-0.2-0.4-0.6-0.6-1-0.8c-0.4-0.2-0.8-0.3-1.2-0.2
			c-0.6-0.1-1.2,0.1-1.7,0.4c-0.5,0.3-0.9,0.8-1.1,1.3c-0.2,0.7-0.3,1.3-0.3,2v6.5H67V50.8h3.6v1.6c0.6-0.6,1.3-1.1,2.1-1.4
			c0.8-0.3,1.6-0.5,2.5-0.5c0.9-0.1,1.7,0.1,2.5,0.5c0.8,0.4,1.4,1,1.8,1.8c0.3,1.1,0.5,2.2,0.4,3.3V62.9z"/>
		<path class="st1" d="M90.2,59.3c-0.2,0.5-0.5,0.9-0.9,1.2c-0.5,0.4-1.1,0.6-1.8,0.6c-0.2,0-0.5,0-0.7-0.1
			c-0.2-0.1-0.4-0.2-0.6-0.4c-0.2-0.2-0.3-0.4-0.4-0.6c-0.1-0.2-0.1-0.5-0.1-0.7c0-1.2,1.2-2.1,3.4-2.6l1.5-0.3v1.2
			C90.6,58.2,90.4,58.8,90.2,59.3z M94,59.1v-3.2c0-0.8,0-1.6-0.2-2.3c-0.1-0.5-0.4-0.9-0.7-1.3c-0.6-0.6-1.3-1-2.1-1.3
			c-0.8-0.3-1.6-0.4-2.4-0.3c-1.9,0-3.8,0.6-5.3,1.7l1.2,1.5c1-0.8,2.2-1.3,3.4-1.3c0.6,0,1.3,0.2,1.8,0.6c0.5,0.4,0.8,1,0.9,1.6
			L88.3,55c-1.2,0.2-2.5,0.6-3.6,1.2C84,56.5,83.4,57,83,57.6c-0.4,0.6-0.7,1.4-0.7,2.1c0,0.5,0.1,0.9,0.3,1.4
			c0.2,0.4,0.5,0.8,0.9,1.1c0.8,0.7,1.8,1,2.8,1c0.8,0,1.6-0.2,2.4-0.5c0.7-0.3,1.4-0.8,2-1.4c0,0.6,0.1,1.1,0.3,1.6h3.8
			C94.2,61.7,93.9,60.4,94,59.1z"/>
		<path class="st1" d="M101,62.9h-3.6V45.1h3.6V62.9z"/>
		<path class="st1" d="M121.9,58.6c0,0.7-0.2,1.3-0.5,1.9c-0.3,0.6-0.8,1.1-1.4,1.5c-1.4,0.9-3.1,1.4-4.8,1.3c-2,0-3.9-0.5-5.6-1.6
			l1.5-2.1c1.1,0.9,2.5,1.4,3.9,1.5c0.8,0,1.5-0.2,2.2-0.6c0.3-0.2,0.5-0.4,0.6-0.7c0.1-0.3,0.2-0.6,0.2-0.9c0-0.8-0.7-1.8-2.1-2.9
			c-0.6-0.5-1.7-1.3-3-2.3c-0.7-0.4-1.2-0.9-1.6-1.5c-0.4-0.6-0.7-1.4-0.7-2.1c0-0.6,0.2-1.2,0.5-1.7c0.3-0.5,0.7-1,1.3-1.3
			c1.3-0.8,2.8-1.3,4.4-1.2c1.7,0,3.4,0.5,4.8,1.4l-1.5,1.8c-0.9-0.6-1.9-0.9-3-1c-0.6,0-1.2,0.1-1.8,0.5c-0.2,0.1-0.4,0.3-0.5,0.6
			c-0.1,0.2-0.2,0.5-0.2,0.7c0,0.6,0.6,1.4,1.7,2.3l3,2.2c0.7,0.5,1.3,1.1,1.8,1.8C121.6,56.9,121.9,57.7,121.9,58.6z"/>
		<path class="st1" d="M135.7,62.1c-1.4,0.8-3,1.2-4.7,1.2c-1.9,0.1-3.7-0.6-5.1-1.8c-0.6-0.5-1.2-1.2-1.5-2
			c-0.3-0.8-0.5-1.6-0.5-2.5c0-0.9,0.2-1.7,0.5-2.5c0.4-0.8,0.9-1.5,1.6-2c1.5-1.2,3.4-1.9,5.4-1.8c1.4,0,2.9,0.3,4.1,1l-1.1,1.7
			c-0.8-0.4-1.7-0.6-2.6-0.6c-0.5,0-1.1,0.1-1.6,0.3c-0.5,0.2-1,0.5-1.4,0.9c-0.4,0.4-0.7,0.9-0.9,1.4c-0.2,0.5-0.3,1.1-0.3,1.6
			c0,0.6,0.1,1.1,0.3,1.7c0.2,0.5,0.5,1,0.9,1.5c0.4,0.4,0.9,0.7,1.4,0.9c0.5,0.2,1.1,0.3,1.6,0.3c1,0,2-0.3,2.8-0.8L135.7,62.1z"/>
		<path class="st1" d="M141.6,47.1c0,0.2-0.1,0.5-0.2,0.7c-0.1,0.2-0.3,0.4-0.4,0.6c-0.4,0.4-0.9,0.6-1.5,0.5
			c-0.5,0-1.1-0.2-1.5-0.5c-0.2-0.1-0.3-0.3-0.5-0.6c-0.1-0.2-0.2-0.5-0.2-0.7c0-0.3,0-0.5,0.1-0.8c0.1-0.2,0.2-0.5,0.4-0.6
			c0.4-0.4,0.9-0.5,1.5-0.5c0.5,0,1.1,0.2,1.5,0.5c0.2,0.2,0.4,0.4,0.5,0.6C141.6,46.6,141.6,46.9,141.6,47.1z M141.4,62.9h-3.6
			V50.8h3.6L141.4,62.9z"/>
		<path class="st1" d="M147.9,55.6c0.1-2.2,1.1-3.3,3-3.3c1.6,0,2.5,0.9,2.6,2.7c0,0.3,0,0.4,0,0.6H147.9z M155.9,53.2
			c-0.5-0.9-1.2-1.6-2.1-2.1c-0.9-0.5-1.9-0.7-2.9-0.6c-1.8-0.1-3.5,0.5-4.8,1.7c-0.6,0.6-1.2,1.2-1.5,2c-0.3,0.8-0.5,1.6-0.5,2.5
			c0,0.9,0.2,1.9,0.6,2.7c0.4,0.9,1,1.6,1.7,2.2c1.4,1.1,3.1,1.7,4.9,1.6c1.8,0,3.7-0.5,5.3-1.4l-1-1.7c-1.1,0.6-2.3,0.9-3.5,1
			c-1.1,0-2.2-0.3-3-1.1c-0.4-0.4-0.7-0.8-0.9-1.4c-0.2-0.5-0.3-1.1-0.3-1.6h8.1c0,0,0.1-0.1,0.3-0.2c0.2-0.1,0.4-0.2,0.4-0.2
			C156.7,55.5,156.4,54.3,155.9,53.2L155.9,53.2z"/>
		<path class="st1" d="M172.1,62.9h-3.6V56c0.1-0.8-0.1-1.6-0.4-2.3c-0.2-0.3-0.6-0.6-0.9-0.8c-0.4-0.2-0.8-0.3-1.2-0.2
			c-0.6-0.1-1.2,0.1-1.7,0.4s-0.9,0.8-1.1,1.3c-0.2,0.7-0.3,1.3-0.2,2v6.5h-3.6V50.8h3.6v1.6c0.6-0.6,1.3-1.1,2.1-1.4
			c0.8-0.3,1.6-0.5,2.5-0.5c0.9-0.1,1.7,0.1,2.5,0.5c0.8,0.4,1.4,1,1.8,1.8c0.3,1.1,0.5,2.2,0.4,3.3V62.9z"/>
		<path class="st1" d="M186.5,62.1c-1.4,0.8-3.1,1.2-4.7,1.2c-1.9,0.1-3.7-0.6-5.1-1.8c-0.7-0.5-1.2-1.2-1.5-2
			c-0.4-0.8-0.5-1.6-0.5-2.5c0-0.9,0.2-1.7,0.5-2.5c0.4-0.8,0.9-1.5,1.6-2c1.5-1.2,3.4-1.9,5.4-1.8c1.4,0,2.9,0.3,4.1,1l-1.1,1.7
			c-0.8-0.4-1.7-0.6-2.6-0.6c-0.6,0-1.1,0.1-1.6,0.3c-0.5,0.2-1,0.5-1.4,0.9c-0.4,0.4-0.7,0.9-0.9,1.4c-0.2,0.5-0.3,1.1-0.3,1.6
			c0,0.6,0.1,1.1,0.3,1.7c0.2,0.5,0.5,1,0.9,1.4c0.4,0.4,0.9,0.7,1.4,0.9c0.5,0.2,1.1,0.3,1.6,0.3c1,0,2-0.3,2.8-0.8L186.5,62.1z"/>
		<path class="st1" d="M191.2,55.6c0.1-2.2,1.1-3.3,3-3.3c1.6,0,2.5,0.9,2.6,2.7c0,0.3,0,0.4,0,0.6H191.2z M199.3,53.2
			c-0.5-0.9-1.2-1.6-2.1-2.1c-0.9-0.5-1.9-0.7-2.9-0.6c-1.8-0.1-3.5,0.5-4.8,1.7c-0.6,0.6-1.2,1.2-1.5,2c-0.3,0.8-0.5,1.6-0.5,2.5
			c0,0.9,0.2,1.9,0.6,2.7c0.4,0.9,1,1.6,1.7,2.2c1.4,1.1,3.1,1.7,4.9,1.6c1.8,0,3.6-0.5,5.3-1.4l-1-1.7c-1.1,0.6-2.3,0.9-3.5,1
			c-1.1,0-2.2-0.3-3-1.1c-0.4-0.4-0.7-0.8-0.9-1.4c-0.2-0.5-0.3-1.1-0.3-1.6h8.1c0,0,0.1-0.1,0.4-0.2c0.2-0.1,0.3-0.2,0.3-0.2
			C200,55.5,199.8,54.3,199.3,53.2L199.3,53.2z"/>
		<path class="st1" d="M215.9,59.3c-0.2,0.5-0.5,0.9-0.9,1.2c-0.5,0.4-1.1,0.6-1.8,0.6c-0.2,0-0.5,0-0.7-0.1
			c-0.2-0.1-0.4-0.2-0.6-0.4c-0.2-0.2-0.3-0.4-0.4-0.6c-0.1-0.2-0.1-0.5-0.1-0.7c0-1.2,1.1-2.1,3.4-2.6l1.5-0.3v1.2
			C216.3,58.2,216.2,58.8,215.9,59.3z M219.7,59.1v-3.2c0-0.8,0-1.6-0.2-2.3c-0.1-0.5-0.4-0.9-0.7-1.3c-0.6-0.6-1.3-1-2.1-1.3
			c-0.8-0.3-1.6-0.4-2.4-0.3c-1.9,0-3.8,0.6-5.4,1.7l1.2,1.5c1-0.8,2.2-1.3,3.4-1.3c0.6,0,1.3,0.2,1.8,0.6c0.5,0.4,0.8,1,0.9,1.6
			l-2.2,0.5c-1.3,0.2-2.5,0.6-3.6,1.2c-0.7,0.3-1.3,0.8-1.8,1.4c-0.4,0.6-0.7,1.4-0.7,2.1c0,0.5,0.1,0.9,0.3,1.4
			c0.2,0.4,0.5,0.8,0.9,1.1c0.8,0.7,1.7,1,2.8,1c0.8,0,1.6-0.2,2.4-0.5c0.7-0.3,1.4-0.8,2-1.4c0,0.6,0.1,1.1,0.3,1.6h3.8
			C219.9,61.7,219.7,60.4,219.7,59.1z"/>
		<path class="st1" d="M236,62.9h-3.6V56c0.1-0.8-0.1-1.6-0.4-2.3c-0.2-0.4-0.6-0.6-1-0.8c-0.4-0.2-0.8-0.3-1.2-0.2
			c-0.6-0.1-1.2,0.1-1.7,0.4c-0.5,0.3-0.9,0.8-1.1,1.3c-0.2,0.7-0.3,1.3-0.2,2v6.5h-3.6V50.8h3.6v1.6c0.6-0.6,1.3-1.1,2.1-1.4
			s1.6-0.5,2.5-0.5c0.9-0.1,1.7,0.1,2.5,0.5c0.8,0.4,1.4,1,1.8,1.8c0.3,1.1,0.5,2.2,0.4,3.3L236,62.9z"/>
		<path class="st1" d="M248.2,60.1c-0.3,0.4-0.7,0.7-1.1,1c-0.4,0.2-0.9,0.3-1.4,0.3c-0.5,0-1-0.1-1.4-0.3c-0.4-0.2-0.8-0.6-1-1
			c-0.7-1-1-2.2-0.9-3.4c-0.1-1.1,0.3-2.2,0.9-3.1c0.3-0.4,0.7-0.7,1.1-0.9c0.4-0.2,0.9-0.3,1.3-0.3c0.5,0,1,0.1,1.4,0.3
			c0.4,0.2,0.8,0.5,1.1,0.9c0.7,0.9,1,2,1,3.1C249.2,57.9,248.9,59.1,248.2,60.1z M252.7,45.1h-3.5v7.2c-0.5-0.6-1.2-1.1-1.9-1.4
			c-0.7-0.3-1.5-0.5-2.3-0.5c-0.8,0-1.7,0.1-2.5,0.4c-0.8,0.3-1.5,0.8-2.1,1.4c-0.6,0.6-1.1,1.3-1.4,2.1c-0.3,0.8-0.5,1.6-0.4,2.5
			c-0.1,1.6,0.5,3.2,1.5,4.4c0.6,0.6,1.2,1.1,2,1.5c0.8,0.3,1.6,0.5,2.5,0.5c0.9,0,1.7-0.2,2.5-0.6c0.8-0.4,1.5-0.9,2-1.5v1.8h3.5
			L252.7,45.1z"/>
		<path class="st1" d="M276.1,48.2h-6v14.7h-3.8V48.2h-5.8V46h15.6V48.2z"/>
		<path class="st1" d="M278.4,55.6c0.1-2.2,1.1-3.3,3-3.3c1.6,0,2.5,0.9,2.6,2.7c0,0.2,0,0.4,0,0.6H278.4z M286.5,53.2
			c-0.5-0.9-1.2-1.6-2.1-2.1c-0.9-0.5-1.9-0.7-2.9-0.6c-1.8-0.1-3.5,0.5-4.8,1.7c-0.6,0.6-1.2,1.2-1.5,2s-0.5,1.6-0.5,2.5
			c0,0.9,0.2,1.9,0.6,2.7c0.4,0.9,1,1.6,1.7,2.2c1.4,1.1,3.1,1.7,4.9,1.6c1.8,0,3.6-0.5,5.3-1.4l-1-1.7c-1.1,0.6-2.3,0.9-3.5,1
			c-1.1,0-2.2-0.3-3-1.1c-0.4-0.4-0.7-0.8-0.9-1.4c-0.2-0.5-0.3-1.1-0.3-1.6h8.2c0,0,0.1-0.1,0.3-0.2c0.2-0.1,0.3-0.2,0.3-0.2
			C287.3,55.5,287.1,54.3,286.5,53.2L286.5,53.2z"/>
		<path class="st1" d="M300.7,62.1c-1.4,0.8-3,1.2-4.7,1.2c-1.9,0.1-3.7-0.6-5.1-1.8c-0.6-0.5-1.2-1.2-1.5-2
			c-0.3-0.8-0.5-1.6-0.5-2.5c0-0.9,0.2-1.7,0.5-2.5c0.4-0.8,0.9-1.5,1.6-2c1.5-1.2,3.4-1.9,5.4-1.8c1.4,0,2.9,0.3,4.1,1l-1.1,1.7
			c-0.8-0.4-1.7-0.6-2.6-0.6c-0.5,0-1.1,0.1-1.6,0.3c-0.5,0.2-1,0.5-1.4,0.9c-0.4,0.4-0.7,0.9-0.9,1.4c-0.2,0.5-0.3,1.1-0.3,1.6
			c0,0.6,0.1,1.1,0.3,1.7c0.2,0.5,0.5,1,0.9,1.4c0.4,0.4,0.9,0.7,1.4,0.9c0.5,0.2,1.1,0.3,1.6,0.3c1,0,2-0.3,2.8-0.8L300.7,62.1z"/>
		<path class="st1" d="M315.5,62.9h-3.6V56c0.1-0.8-0.1-1.6-0.4-2.3c-0.2-0.4-0.6-0.6-0.9-0.8s-0.8-0.3-1.2-0.2
			c-0.6-0.1-1.1,0-1.6,0.3c-0.5,0.3-0.9,0.7-1.1,1.2c-0.3,0.7-0.4,1.5-0.3,2.2v6.5h-3.6V45.1h3.6v7.2c1.2-1.2,2.9-1.9,4.6-1.9
			c0.9-0.1,1.7,0,2.5,0.5c0.8,0.4,1.4,1,1.8,1.8c0.3,1.1,0.5,2.2,0.4,3.3V62.9z"/>
		<path class="st1" d="M331.8,62.9h-3.6V56c0.1-0.8-0.1-1.6-0.4-2.3c-0.2-0.3-0.6-0.6-0.9-0.8c-0.4-0.2-0.8-0.3-1.2-0.2
			c-0.6-0.1-1.2,0.1-1.7,0.4c-0.5,0.3-0.9,0.8-1.1,1.3c-0.2,0.7-0.3,1.3-0.2,2v6.5h-3.6V50.8h3.6v1.6c0.6-0.6,1.3-1.1,2.1-1.4
			s1.6-0.5,2.5-0.5c0.9-0.1,1.7,0.1,2.5,0.5c0.8,0.4,1.4,1,1.8,1.8c0.3,1.1,0.5,2.2,0.4,3.3L331.8,62.9z"/>
		<path class="st1" d="M343.9,60.3c-0.3,0.4-0.6,0.7-1.1,0.9c-0.4,0.2-0.9,0.3-1.4,0.3c-0.5,0-1-0.1-1.4-0.3
			c-0.4-0.2-0.8-0.5-1.1-0.9c-0.7-1-1-2.2-0.9-3.4c-0.1-1.2,0.3-2.3,0.9-3.3c0.3-0.4,0.6-0.7,1.1-0.9c0.4-0.2,0.9-0.3,1.4-0.3
			c0.5,0,1,0.1,1.4,0.3s0.8,0.5,1.1,0.9c0.7,1,1,2.2,0.9,3.3C344.8,58,344.5,59.2,343.9,60.3z M346.5,52.3c-1.4-1.2-3.2-1.9-5-1.8
			c-1.9-0.1-3.7,0.6-5.1,1.8c-0.6,0.6-1.2,1.2-1.5,2c-0.3,0.8-0.5,1.6-0.5,2.5c0,0.9,0.1,1.7,0.5,2.5s0.9,1.5,1.5,2.1
			c1.4,1.2,3.2,1.9,5.1,1.8c1.9,0.1,3.7-0.6,5.1-1.8c0.6-0.6,1.1-1.3,1.5-2.1c0.3-0.8,0.5-1.7,0.5-2.5c0-0.8-0.2-1.7-0.5-2.4
			C347.6,53.6,347.1,52.9,346.5,52.3z"/>
		<path class="st1" d="M354.6,62.9H351V45.1h3.6L354.6,62.9z"/>
		<path class="st1" d="M366.6,60.3c-0.3,0.4-0.6,0.7-1.1,0.9c-0.4,0.2-0.9,0.3-1.4,0.3c-0.5,0-1-0.1-1.4-0.3
			c-0.4-0.2-0.8-0.5-1.1-0.9c-0.7-1-1-2.2-0.9-3.4c-0.1-1.2,0.3-2.3,0.9-3.3c0.3-0.4,0.6-0.7,1.1-0.9c0.4-0.2,0.9-0.3,1.4-0.3
			c0.5,0,1,0.1,1.4,0.3c0.4,0.2,0.8,0.5,1.1,0.9c0.7,1,1,2.2,0.9,3.3C367.6,58,367.3,59.2,366.6,60.3z M369.2,52.3
			c-1.4-1.2-3.2-1.9-5-1.8c-1.9-0.1-3.7,0.6-5.1,1.8c-0.6,0.6-1.2,1.2-1.5,2c-0.3,0.8-0.5,1.6-0.5,2.5c0,0.9,0.1,1.7,0.5,2.5
			c0.3,0.8,0.9,1.5,1.5,2.1c1.4,1.2,3.2,1.9,5.1,1.8c1.9,0.1,3.7-0.6,5.1-1.8c0.6-0.6,1.1-1.3,1.5-2.1c0.3-0.8,0.5-1.7,0.5-2.5
			c0-0.8-0.2-1.7-0.5-2.4C370.3,53.6,369.8,52.9,369.2,52.3z"/>
		<path class="st1" d="M382.4,60.1c-0.3,0.4-0.6,0.7-1.1,1c-0.4,0.2-0.9,0.3-1.4,0.3c-0.5,0-0.9-0.1-1.4-0.3c-0.4-0.2-0.8-0.6-1-0.9
			c-0.7-1-1-2.2-0.9-3.4c-0.1-1.1,0.2-2.2,0.9-3.1c0.3-0.4,0.6-0.7,1-0.9s0.9-0.3,1.3-0.3c0.5,0,1,0.1,1.4,0.3
			c0.4,0.2,0.8,0.5,1.1,0.9c0.7,0.9,1,2,0.9,3.2C383.4,57.9,383.1,59.1,382.4,60.1z M386.9,50.8h-3.5v1.7c-0.5-0.6-1.1-1.2-1.8-1.5
			c-0.7-0.3-1.5-0.5-2.3-0.5c-0.8,0-1.7,0.1-2.4,0.5c-0.8,0.3-1.5,0.8-2.1,1.4c-0.6,0.6-1.1,1.3-1.4,2.1c-0.3,0.8-0.5,1.6-0.4,2.5
			c-0.1,1.6,0.5,3.2,1.5,4.4c0.6,0.6,1.3,1.1,2,1.5c0.8,0.3,1.6,0.5,2.5,0.5c0.9,0,1.7-0.2,2.5-0.6c0.8-0.4,1.5-0.9,2-1.5v0.9
			c0,0.8-0.1,1.7-0.3,2.5c-0.6,1.5-2,2.3-4.3,2.3c-1.6,0-3.1-0.4-4.5-1.1l-0.7,2c1.8,0.8,3.8,1.2,5.7,1.1c4,0,6.4-1.6,7.2-4.8
			c0.2-1.2,0.3-2.5,0.3-3.8L386.9,50.8z"/>
		<path class="st1" d="M402,51.1l-6.6,13.4c-0.6,1.3-1.4,2.5-2.4,3.4c-1.3,0.8-2.7,1.2-4.2,1.1H388v-2.2h0.7c0.7,0,1.3-0.1,1.9-0.3
			c0.5-0.3,1-0.6,1.3-1.1c0.7-1,1.2-2.1,1.7-3.3l-5.3-10.9l3.5-0.6l3.5,8.5l3.8-8.5L402,51.1z"/>
		<path class="st1" d="M425.6,47.1l-1.2,2.1c-1.3-0.7-2.7-1-4.1-1c-1.8-0.1-3.6,0.5-5,1.7c-0.6,0.6-1.1,1.3-1.4,2.1
			c-0.3,0.8-0.5,1.6-0.4,2.5c0,0.9,0.1,1.7,0.5,2.5c0.3,0.8,0.8,1.5,1.4,2.1c1.4,1.2,3.2,1.9,5.1,1.8c1.4,0,2.8-0.3,4-0.9l1,2.1
			c-1.7,0.8-3.6,1.3-5.6,1.2c-2.7,0.1-5.4-0.8-7.5-2.4c-1-0.7-1.7-1.7-2.2-2.8c-0.5-1.1-0.8-2.3-0.8-3.5c0-1.2,0.2-2.4,0.8-3.5
			c0.5-1.1,1.3-2.1,2.2-2.8c2.1-1.7,4.8-2.6,7.6-2.5C421.9,45.7,423.8,46.2,425.6,47.1z"/>
		<path class="st1" d="M430.6,55.6c0.1-2.2,1.1-3.3,3-3.3c1.6,0,2.5,0.9,2.6,2.7c0,0.3,0,0.4,0,0.6H430.6z M438.7,53.2
			c-0.5-0.9-1.2-1.6-2.1-2.1c-0.9-0.5-1.9-0.7-2.9-0.6c-1.8-0.1-3.5,0.5-4.8,1.7c-0.6,0.6-1.2,1.2-1.5,2c-0.3,0.8-0.5,1.6-0.5,2.5
			c0,0.9,0.2,1.9,0.6,2.7c0.4,0.9,1,1.6,1.7,2.2c1.4,1.1,3.1,1.7,4.9,1.6c1.8,0,3.7-0.5,5.3-1.4l-1-1.7c-1.1,0.6-2.3,0.9-3.5,1
			c-1.1,0-2.2-0.3-3-1.1c-0.4-0.4-0.7-0.8-0.9-1.4c-0.2-0.5-0.3-1.1-0.3-1.6h8.1c0,0,0.1-0.1,0.3-0.2c0.2-0.1,0.4-0.2,0.4-0.2
			C439.4,55.5,439.2,54.3,438.7,53.2L438.7,53.2z"/>
		<path class="st1" d="M454.9,62.9h-3.6V56c0.1-0.8-0.1-1.6-0.4-2.3c-0.2-0.3-0.6-0.6-0.9-0.8c-0.4-0.2-0.8-0.3-1.2-0.2
			c-0.6-0.1-1.2,0.1-1.7,0.4s-0.9,0.8-1.1,1.3c-0.2,0.7-0.3,1.3-0.2,2v6.5h-3.6V50.8h3.6v1.6c0.6-0.6,1.3-1.1,2.1-1.4
			s1.6-0.5,2.5-0.5c0.9-0.1,1.7,0.1,2.5,0.5c0.8,0.4,1.4,1,1.8,1.8c0.3,1.1,0.5,2.2,0.4,3.3L454.9,62.9z"/>
		<path class="st1" d="M466.5,62.5c-1.2,0.5-2.4,0.7-3.7,0.7c-0.6,0.1-1.3,0-1.9-0.3c-0.6-0.2-1.1-0.6-1.6-1.1c-0.5-1-0.8-2-0.7-3.1
			v-6.2h-1.9v-1.6h1.9v-3l3.6-0.7v3.6h3.5v1.6h-3.5V58c-0.1,0.9,0.1,1.7,0.4,2.5c0.2,0.3,0.4,0.5,0.6,0.6c0.3,0.1,0.6,0.2,0.9,0.1
			c0.6,0,1.2-0.1,1.7-0.4L466.5,62.5z"/>
		<path class="st1" d="M470.8,55.6c0.1-2.2,1.1-3.3,3-3.3c1.6,0,2.5,0.9,2.6,2.7c0,0.3,0,0.4,0,0.6H470.8z M478.9,53.2
			c-0.5-0.9-1.2-1.6-2.1-2.1s-1.9-0.7-2.9-0.6c-1.8-0.1-3.5,0.5-4.8,1.7c-0.6,0.6-1.2,1.2-1.5,2c-0.3,0.8-0.5,1.6-0.5,2.5
			c0,0.9,0.2,1.9,0.6,2.7c0.4,0.9,1,1.6,1.7,2.2c1.4,1.1,3.1,1.7,4.9,1.6c1.8,0,3.6-0.5,5.3-1.4l-1-1.7c-1.1,0.6-2.3,0.9-3.5,1
			c-1.1,0-2.2-0.3-3-1.1c-0.4-0.4-0.7-0.8-0.9-1.4c-0.2-0.5-0.3-1.1-0.3-1.6h8.1c0,0,0.1-0.1,0.4-0.2c0.2-0.1,0.3-0.2,0.3-0.2
			C479.7,55.5,479.4,54.3,478.9,53.2L478.9,53.2z"/>
		<path class="st1" d="M491.3,51.7l-1.3,2.3c-0.5-0.3-1.1-0.5-1.7-0.5c-0.5,0-0.9,0.1-1.3,0.4c-0.4,0.3-0.7,0.7-0.8,1.1
			c-0.3,0.9-0.4,1.9-0.3,2.9V63h-3.6V50.9h3.6V53l0.5-0.8c0.2-0.5,0.6-0.9,1-1.2c0.4-0.3,0.9-0.5,1.4-0.5
			C489.7,50.6,490.6,51,491.3,51.7z"/>
		<path class="st1" d="M506.6,45.7l-0.6,1.6c-0.5-0.2-0.9-0.2-1.4-0.2c-0.4,0-0.7,0-1.1,0.2c-0.3,0.2-0.5,0.5-0.7,0.9
			c-0.1,0.4-0.2,0.8-0.1,1.3v1.5h3.2v1.6h-3.2v10.4h-3.5V52.5H497v-1.6h2.2v-1.3c0-0.6,0-1.1,0.2-1.7c0.2-0.5,0.5-1,0.9-1.5
			c0.5-0.5,1.1-0.8,1.7-1.1c0.6-0.2,1.3-0.3,2-0.3C504.8,45.1,505.7,45.3,506.6,45.7z"/>
		<path class="st1" d="M515.9,60.3c-0.3,0.4-0.6,0.7-1.1,0.9c-0.4,0.2-0.9,0.3-1.4,0.3c-0.5,0-1-0.1-1.4-0.3
			c-0.4-0.2-0.8-0.5-1.1-0.9c-0.7-1-1-2.2-0.9-3.4c-0.1-1.2,0.3-2.3,0.9-3.3c0.3-0.4,0.6-0.7,1.1-0.9c0.4-0.2,0.9-0.3,1.4-0.3
			c0.5,0,1,0.1,1.4,0.3c0.4,0.2,0.8,0.5,1.1,0.9c0.7,1,1,2.2,0.9,3.3C516.8,58,516.5,59.2,515.9,60.3z M518.5,52.3
			c-1.4-1.2-3.2-1.9-5-1.8c-1.9-0.1-3.7,0.6-5.2,1.8c-0.6,0.6-1.2,1.2-1.5,2c-0.3,0.8-0.5,1.6-0.5,2.5c0,0.9,0.1,1.7,0.5,2.5
			c0.3,0.8,0.9,1.5,1.5,2.1c1.4,1.2,3.2,1.9,5.1,1.8c1.9,0.1,3.7-0.6,5.1-1.8c0.6-0.6,1.1-1.3,1.5-2.1c0.3-0.8,0.5-1.7,0.5-2.5
			c0-0.8-0.2-1.7-0.5-2.4S519.1,52.9,518.5,52.3z"/>
		<path class="st1" d="M532.1,51.7l-1.3,2.3c-0.5-0.3-1.1-0.5-1.7-0.5c-0.5,0-0.9,0.1-1.3,0.4c-0.4,0.3-0.7,0.7-0.8,1.1
			c-0.3,0.9-0.4,1.9-0.3,2.9V63h-3.6V50.9h3.6V53l0.5-0.8c0.2-0.5,0.6-0.9,1-1.2c0.4-0.3,0.9-0.5,1.5-0.5
			C530.5,50.6,531.4,51,532.1,51.7z"/>
		<path class="st1" d="M550.6,59.4c-0.6,0.5-1.3,0.8-2.1,1c-1.1,0.2-2.2,0.3-3.3,0.3h-1.5V48.2h1.6c1.5-0.1,3.1,0.2,4.5,0.7
			c1,0.5,1.8,1.3,2.3,2.2c0.5,0.9,0.7,2,0.6,3.1c0.1,1-0.1,2-0.4,2.9C551.9,58,551.3,58.8,550.6,59.4z M551.9,47.1
			c-0.8-0.4-1.7-0.7-2.6-0.9c-1.4-0.2-2.8-0.3-4.2-0.3h-5.2v17h5.2c2.4,0.1,4.8-0.3,7.1-1.3c1.5-0.7,2.7-1.8,3.5-3.1
			c0.8-1.4,1.2-3,1.1-4.6c0-1.5-0.4-3-1.3-4.2C554.6,48.5,553.4,47.6,551.9,47.1z"/>
		<path class="st1" d="M563.6,47.1c0,0.2-0.1,0.5-0.2,0.7c-0.1,0.2-0.3,0.4-0.4,0.6c-0.4,0.4-0.9,0.6-1.5,0.5
			c-0.5,0-1.1-0.2-1.5-0.5c-0.2-0.1-0.4-0.3-0.5-0.6c-0.1-0.2-0.2-0.5-0.2-0.7c0-0.3,0-0.5,0.1-0.8c0.1-0.2,0.2-0.5,0.4-0.6
			c0.4-0.4,0.9-0.5,1.5-0.5c0.3,0,0.5,0,0.8,0.1c0.3,0.1,0.5,0.2,0.7,0.4c0.2,0.2,0.4,0.4,0.5,0.6C563.5,46.6,563.5,46.9,563.6,47.1
			z M563.3,62.9h-3.6V50.8h3.6V62.9z"/>
		<path class="st1" d="M575.4,59.6c0,0.5-0.1,1.1-0.4,1.5s-0.6,0.8-1.1,1.1c-1.1,0.7-2.3,1.1-3.6,1c-1.6,0-3.2-0.5-4.5-1.4l1.2-1.7
			c0.8,0.7,1.8,1.2,2.9,1.3c0.5,0,1-0.1,1.4-0.4c0.2-0.1,0.3-0.3,0.4-0.5c0.1-0.2,0.1-0.4,0.1-0.6c0-0.4-0.2-0.8-0.4-1
			c-0.6-0.6-1.2-1.1-1.9-1.5c-0.7-0.4-1.4-0.9-2-1.5c-0.3-0.3-0.5-0.6-0.7-1s-0.2-0.7-0.3-1.1c0-0.5,0.1-1,0.3-1.4
			c0.2-0.4,0.6-0.8,1-1c1-0.7,2.2-1,3.3-0.9c1.4,0,2.7,0.3,3.9,1l-1,1.5c-0.7-0.4-1.5-0.7-2.3-0.7c-0.4,0-0.8,0.1-1.2,0.3
			c-0.1,0.1-0.3,0.2-0.3,0.4c-0.1,0.1-0.1,0.3-0.1,0.5c0,0.5,0.6,1.1,1.9,2c1,0.6,1.9,1.3,2.8,2.2c0.3,0.3,0.4,0.6,0.6,0.9
			C575.3,58.9,575.4,59.2,575.4,59.6z"/>
		<path class="st1" d="M584.8,59.3c-0.2,0.5-0.5,0.9-0.9,1.2c-0.5,0.4-1.1,0.6-1.8,0.6c-0.2,0-0.5,0-0.7-0.1
			c-0.2-0.1-0.4-0.2-0.6-0.4c-0.2-0.2-0.3-0.4-0.4-0.6c-0.1-0.2-0.1-0.5-0.1-0.7c0-1.2,1.2-2.1,3.5-2.6l1.5-0.3v1.2
			C585.2,58.2,585.1,58.8,584.8,59.3z M588.6,59.1v-3.2c0-0.8,0-1.6-0.2-2.3c-0.1-0.5-0.4-0.9-0.7-1.3c-0.6-0.6-1.3-1-2.1-1.3
			c-0.8-0.3-1.6-0.4-2.4-0.3c-1.9,0-3.8,0.6-5.4,1.7l1.2,1.5c1-0.8,2.2-1.3,3.4-1.3c0.6,0,1.3,0.2,1.8,0.6c0.5,0.4,0.8,1,0.9,1.6
			L583,55c-1.3,0.2-2.5,0.6-3.6,1.2c-0.7,0.3-1.3,0.8-1.7,1.4c-0.4,0.6-0.7,1.4-0.7,2.1c0,0.5,0.1,0.9,0.3,1.4
			c0.2,0.4,0.5,0.8,0.9,1.1c0.8,0.7,1.8,1,2.8,1c0.8,0,1.6-0.2,2.4-0.5c0.7-0.3,1.4-0.8,2-1.4c0,0.6,0.1,1.1,0.3,1.6h3.8
			C588.8,61.7,588.6,60.4,588.6,59.1z"/>
		<path class="st1" d="M600.4,59.6c0,0.5-0.1,1-0.4,1.5c-0.3,0.5-0.6,0.8-1.1,1.1c-1.1,0.7-2.4,1.1-3.7,1c-1.6,0-3.2-0.5-4.5-1.4
			l1.2-1.7c0.8,0.7,1.8,1.2,2.9,1.3c0.5,0,1-0.1,1.4-0.4c0.2-0.1,0.3-0.3,0.4-0.5c0.1-0.2,0.1-0.4,0.1-0.6c0-0.4-0.2-0.8-0.4-1
			c-0.6-0.6-1.2-1.1-1.9-1.5c-0.7-0.4-1.4-0.9-2-1.5c-0.6-0.5-0.9-1.3-0.9-2.1c0-0.5,0.1-1,0.3-1.4c0.2-0.4,0.6-0.8,1-1
			c1-0.7,2.1-1,3.3-0.9c1.4,0,2.7,0.3,3.9,1l-1,1.5c-0.7-0.4-1.5-0.7-2.3-0.7c-0.4,0-0.8,0.1-1.2,0.3c-0.1,0.1-0.3,0.2-0.3,0.4
			c-0.1,0.1-0.1,0.3-0.1,0.5c0,0.5,0.6,1.1,1.9,2c1,0.6,1.9,1.3,2.8,2.2c0.3,0.3,0.5,0.6,0.6,0.9C600.4,58.9,600.4,59.2,600.4,59.6z
			"/>
		<path class="st1" d="M611.2,62.5c-1.2,0.5-2.4,0.7-3.7,0.7c-0.6,0.1-1.3,0-1.9-0.3c-0.6-0.2-1.1-0.6-1.6-1.1c-0.5-1-0.8-2-0.7-3.1
			v-6.2h-1.9v-1.6h1.9v-3l3.6-0.7v3.6h3.5v1.6H607V58c-0.1,0.9,0.1,1.7,0.4,2.5c0.2,0.3,0.4,0.5,0.6,0.6c0.3,0.1,0.6,0.2,0.9,0.1
			c0.6,0,1.2-0.1,1.7-0.4L611.2,62.5z"/>
		<path class="st1" d="M615.5,55.6c0.1-2.2,1.1-3.3,3-3.3c1.6,0,2.5,0.9,2.6,2.7c0,0.3,0,0.4,0,0.6H615.5z M623.5,53.2
			c-0.5-0.9-1.2-1.6-2.1-2.1c-0.9-0.5-1.9-0.7-2.9-0.6c-1.8-0.1-3.5,0.5-4.8,1.7c-0.6,0.5-1.2,1.2-1.5,2s-0.5,1.6-0.5,2.5
			c0,0.9,0.2,1.9,0.6,2.7c0.4,0.9,1,1.6,1.7,2.2c1.4,1.1,3.1,1.7,4.9,1.6c1.8,0,3.6-0.5,5.3-1.4l-1-1.7c-1.1,0.6-2.3,0.9-3.5,1
			c-1.1,0-2.2-0.3-3-1.1c-0.4-0.4-0.7-0.8-0.9-1.4c-0.2-0.5-0.3-1.1-0.2-1.6h8.1c0,0,0.1-0.1,0.3-0.2c0.2-0.1,0.4-0.2,0.4-0.2
			C624.3,55.5,624,54.3,623.5,53.2L623.5,53.2z"/>
		<path class="st1" d="M635.9,51.7l-1.3,2.3c-0.5-0.3-1.1-0.5-1.7-0.5c-0.5,0-0.9,0.1-1.3,0.4s-0.7,0.7-0.8,1.1
			c-0.3,0.9-0.4,1.9-0.3,2.9V63h-3.6V50.9h3.6V53l0.5-0.8c0.2-0.5,0.6-0.9,1-1.2c0.4-0.3,0.9-0.5,1.4-0.5
			C634.3,50.6,635.2,51,635.9,51.7z"/>
		<path class="st1" d="M651.6,53.1c-0.9,0.6-1.9,0.9-3,0.8h-1.1v-5.8h1.5c0.9-0.1,1.7,0.1,2.5,0.5c0.4,0.2,0.6,0.6,0.8,0.9
			c0.2,0.4,0.3,0.8,0.2,1.2c0,0.4,0,0.9-0.2,1.3C652.1,52.5,651.9,52.8,651.6,53.1z M653,55.4c1-0.4,1.8-1.1,2.4-1.9
			c0.6-0.9,0.9-1.9,0.9-2.9c0-0.7-0.1-1.4-0.5-2.1c-0.3-0.6-0.8-1.2-1.5-1.6c-0.7-0.5-1.6-0.8-2.5-0.8c-0.9-0.1-1.8-0.1-2.7-0.1
			h-5.5v17h3.8v-6.9h2.3l3.9,7.2l3.9-0.7L653,55.4z"/>
		<path class="st1" d="M662.2,55.6c0.1-2.2,1.1-3.3,3-3.3c1.6,0,2.5,0.9,2.6,2.7c0,0.3,0,0.4,0,0.6H662.2z M670.3,53.2
			c-0.5-0.9-1.2-1.6-2.1-2.1s-1.9-0.7-2.9-0.6c-1.8-0.1-3.5,0.5-4.8,1.7c-0.6,0.6-1.2,1.2-1.5,2c-0.3,0.8-0.5,1.6-0.5,2.5
			c0,0.9,0.2,1.9,0.6,2.7c0.4,0.9,1,1.6,1.7,2.2c1.4,1.1,3.1,1.7,4.9,1.6c1.8,0,3.7-0.5,5.3-1.4l-1-1.7c-1.1,0.6-2.3,0.9-3.5,1
			c-1.1,0-2.2-0.3-3-1.1c-0.4-0.4-0.7-0.8-0.9-1.4c-0.2-0.5-0.3-1.1-0.3-1.6h8.1c0,0,0.1-0.1,0.4-0.2c0.2-0.1,0.3-0.2,0.3-0.2
			C671.1,55.5,670.8,54.3,670.3,53.2L670.3,53.2z"/>
		<path class="st1" d="M682.4,60.1c-0.3,0.4-0.7,0.7-1.1,1c-0.4,0.2-0.9,0.3-1.4,0.3c-0.5,0-1-0.1-1.4-0.3c-0.4-0.2-0.8-0.6-1-1
			c-0.7-1-1-2.2-0.9-3.4c-0.1-1.1,0.3-2.2,0.9-3.1c0.3-0.4,0.7-0.7,1.1-0.9c0.4-0.2,0.9-0.3,1.3-0.3c0.5,0,1,0.1,1.4,0.3
			c0.4,0.2,0.8,0.5,1.1,0.9c0.7,0.9,1,2,1,3.1C683.4,57.9,683.1,59.1,682.4,60.1z M686.8,45.1h-3.5v7.2c-0.5-0.6-1.2-1.1-1.9-1.4
			c-0.7-0.3-1.5-0.5-2.3-0.5c-0.8,0-1.7,0.1-2.5,0.4c-0.8,0.3-1.5,0.8-2.1,1.4c-0.6,0.6-1.1,1.3-1.4,2.1c-0.3,0.8-0.5,1.6-0.4,2.5
			c-0.1,1.6,0.5,3.2,1.5,4.4c0.6,0.6,1.2,1.1,2,1.5c0.8,0.3,1.6,0.5,2.5,0.5c0.9,0,1.7-0.2,2.5-0.6c0.8-0.4,1.5-0.9,2.1-1.5v1.8h3.5
			L686.8,45.1z"/>
		<path class="st1" d="M703,62.9h-3.6v-1.6c-0.6,0.6-1.3,1.1-2.1,1.4c-0.8,0.3-1.6,0.5-2.5,0.5c-0.9,0.1-1.7,0-2.5-0.4
			c-0.8-0.4-1.4-1-1.8-1.8c-0.3-1.1-0.5-2.2-0.4-3.3v-6.9h3.6v6.9c0,0.8,0.1,1.6,0.4,2.3c0.2,0.3,0.6,0.6,1,0.8
			c0.4,0.2,0.8,0.2,1.2,0.2c0.6,0.1,1.1-0.1,1.6-0.3c0.5-0.3,0.9-0.7,1.1-1.2c0.3-0.7,0.4-1.5,0.4-2.2v-6.5h3.6V62.9z"/>
		<path class="st1" d="M717.3,62.1c-1.4,0.8-3,1.2-4.7,1.2c-1.9,0.1-3.7-0.6-5.1-1.8c-0.7-0.5-1.2-1.2-1.5-2
			c-0.4-0.8-0.5-1.6-0.5-2.5c0-0.9,0.2-1.7,0.5-2.5c0.4-0.8,0.9-1.5,1.6-2c1.5-1.2,3.4-1.9,5.4-1.8c1.4,0,2.9,0.3,4.1,1l-1,1.7
			c-0.8-0.4-1.7-0.6-2.6-0.6c-1.1,0-2.2,0.4-3,1.1c-0.4,0.4-0.7,0.9-0.9,1.4c-0.2,0.5-0.3,1.1-0.3,1.6c0,0.6,0.1,1.1,0.3,1.7
			c0.2,0.5,0.5,1,0.9,1.4c0.4,0.4,0.9,0.7,1.4,0.9c0.5,0.2,1.1,0.3,1.6,0.3c1,0,2-0.3,2.8-0.8L717.3,62.1z"/>
		<path class="st1" d="M727.4,62.5c-1.2,0.5-2.4,0.7-3.7,0.7c-0.6,0.1-1.3,0-1.9-0.3c-0.6-0.2-1.1-0.6-1.6-1.1c-0.5-1-0.8-2-0.7-3.1
			v-6.2h-1.8v-1.6h1.9v-3l3.6-0.7v3.6h3.5v1.6h-3.5V58c-0.1,0.9,0.1,1.7,0.4,2.5c0.2,0.3,0.4,0.5,0.6,0.6s0.6,0.2,0.9,0.1
			c0.6,0,1.2-0.1,1.7-0.4L727.4,62.5z"/>
		<path class="st1" d="M732.9,47.1c0,0.2,0,0.5-0.2,0.7c-0.1,0.2-0.3,0.4-0.4,0.6c-0.2,0.2-0.4,0.3-0.7,0.4
			c-0.3,0.1-0.5,0.1-0.8,0.1c-0.5,0-1.1-0.2-1.5-0.5c-0.2-0.1-0.3-0.3-0.5-0.6c-0.1-0.2-0.2-0.5-0.2-0.7c0-0.3,0-0.5,0.1-0.8
			c0.1-0.2,0.2-0.5,0.4-0.6c0.4-0.4,1-0.5,1.5-0.5c0.3,0,0.5,0,0.8,0.1c0.3,0.1,0.5,0.2,0.7,0.4c0.2,0.2,0.4,0.4,0.5,0.6
			C732.9,46.6,732.9,46.9,732.9,47.1z M732.7,62.9h-3.6V50.8h3.6L732.7,62.9z"/>
		<path class="st1" d="M745,60.3c-0.3,0.4-0.7,0.7-1.1,0.9c-0.4,0.2-0.9,0.3-1.4,0.3c-0.5,0-1-0.1-1.4-0.3c-0.4-0.2-0.8-0.5-1.1-0.9
			c-0.7-1-1-2.2-0.9-3.4c-0.1-1.2,0.3-2.3,0.9-3.3c0.3-0.4,0.6-0.7,1.1-0.9c0.4-0.2,0.9-0.3,1.4-0.3c0.5,0,1,0.1,1.4,0.3
			c0.4,0.2,0.8,0.5,1.1,0.9c0.7,1,1,2.2,0.9,3.3C745.9,58,745.6,59.2,745,60.3z M747.5,52.3c-1.4-1.2-3.2-1.9-5-1.8
			c-1.9-0.1-3.7,0.6-5.1,1.8c-0.6,0.6-1.2,1.2-1.5,2c-0.3,0.8-0.5,1.6-0.5,2.5c0,0.9,0.1,1.7,0.5,2.5c0.3,0.8,0.9,1.5,1.5,2.1
			c1.4,1.2,3.2,1.9,5.1,1.8c1.9,0.1,3.7-0.6,5.1-1.8c0.6-0.6,1.2-1.3,1.5-2.1c0.3-0.8,0.5-1.7,0.5-2.5c0-0.8-0.2-1.7-0.5-2.4
			C748.7,53.6,748.2,52.9,747.5,52.3z"/>
		<path class="st1" d="M764.9,62.9h-3.6V56c0.1-0.8-0.1-1.6-0.4-2.3c-0.2-0.4-0.6-0.6-1-0.8c-0.4-0.2-0.8-0.3-1.2-0.2
			c-0.6-0.1-1.2,0.1-1.7,0.4c-0.5,0.3-0.9,0.8-1.1,1.3c-0.2,0.7-0.3,1.3-0.2,2v6.5H752V50.8h3.6v1.6c0.6-0.6,1.3-1.1,2.1-1.4
			c0.8-0.3,1.6-0.5,2.5-0.5c0.9-0.1,1.7,0,2.5,0.5c0.8,0.4,1.4,1,1.8,1.8c0.3,1.1,0.5,2.2,0.4,3.3V62.9z"/>
		<path class="st1" d="M267,0H0v34h267V0z"/>
		<path class="st2" d="M24.9,19C24.9,19,24.9,19,24.9,19c0,0.1,0,0.2-0.1,0.2s-0.1,0-0.1,0c0,0-0.1,0-0.1,0h-7.3
			c-0.2,0-0.2-0.1-0.2-0.2v-5.2c0-0.1,0.1-0.2,0.2-0.2h7.3c0.2,0,0.3,0,0.3,0.2V19z M22.9,14.9H19v2.7v0.1h3.9c0,0,0.1,0,0.1-0.1
			L22.9,14.9C23,14.9,23,14.9,22.9,14.9z M24.9,19.5l0.5,1.6c-2.6,0.7-5.3,1.1-8,1.3l-0.5-1.6C19.6,20.6,22.3,20.1,24.9,19.5z
			 M34.7,25.2c0,0.3-0.2,0.4-0.5,0.4H14.3c-0.3,0-0.5-0.1-0.5-0.4v-17c0-0.3,0.2-0.4,0.5-0.4h19.9c0.3,0,0.5,0.1,0.5,0.4V25.2z
			 M28.8,10.8c-0.2-0.5-0.4-0.9-0.6-1.4h-1.4c0,0.4,0.1,0.9,0.1,1.4H28.8z M30.3,9.4l0.5,1.4h1.1v1.5h-4.7c0.2,1.7,0.6,3.4,1.1,5.1
			c0.7-1.3,1.3-2.7,1.6-4.2l1.8,0.4c-0.6,2-1.4,3.9-2.6,5.6c-0.1,0.1-0.1,0.1-0.1,0.2c0.2,0.6,0.5,1.1,0.7,1.6
			c0.3,0.5,0.4,0.7,0.5,0.7c0.1,0,0.2-0.2,0.2-0.4c0-0.7,0-1.4-0.1-2.1l1.8,0.4c0,1.2-0.2,2.4-0.6,3.5c-0.1,0.3-0.4,0.4-0.6,0.6
			c-0.2,0.1-0.4,0.1-0.7,0.1c-0.5-0.1-1-0.4-1.4-0.8c-0.5-0.6-0.8-1.3-1.2-2c-0.8,0.9-1.7,1.8-2.7,2.7l-1.5-1c1.3-1,2.5-2.2,3.5-3.5
			c-0.8-2.3-1.4-4.6-1.7-7h-8.3v-1.5h8.1c-0.1-0.5-0.1-0.9-0.1-1.4h-8.9c-0.1,0-0.2,0-0.2,0.2v14.3c0,0.1,0,0.2,0.2,0.2h16.3
			c0.1,0,0.2,0,0.2-0.2V9.6c0-0.1-0.1-0.2-0.2-0.2L30.3,9.4z"/>
		<path class="st2" d="M47.5,8.6V7.2h2.1v1.5h8.6l1.8,0.8c-0.3,1.5-0.8,2.9-1.5,4.3l-1.8-0.6c0.5-1.3,0.9-2.1,1-2.5
			s-0.1-0.3-0.3-0.3H39.9c-0.1,0-0.2,0-0.2,0.2v2.8h-2V9c0-0.2,0.1-0.3,0.4-0.3H47.5z M56,13.8l1.4,1.2c-1.2,1.2-2.6,2.3-4,3.2
			L52,16.9C53.4,16,54.8,15,56,13.8L56,13.8z M49,16.9c-3,2.1-6.3,3.6-9.9,4.5l-1-1.5c3.6-0.8,7-2.4,10-4.5
			c-0.2-0.3-0.4-0.5-0.7-0.7c-2.6,1.5-5.5,2.5-8.5,3.1l-0.8-1.5c2.9-0.5,5.7-1.5,8.3-2.8h-5.4v-1.7h14.6v1.7h-6.1l-0.5,0.3
			c0.7,0.7,1.2,1.5,1.7,2.3c1.8,3.9,5.1,7,9.1,8.6L58.2,26c-2.4-1.3-4.6-3-6.5-5.1c0,1.2-0.2,2.3-0.7,3.4c-0.2,0.4-0.4,0.8-0.8,1.1
			c-0.3,0.3-0.7,0.6-1.2,0.7c-0.5,0.2-1.1,0.2-1.6,0.2c-1.2-0.1-2.3-0.4-3.4-0.8l0.1-1.8c1.3,0.5,2.7,0.7,4,0.6
			c0.3-0.1,0.5-0.3,0.7-0.5c0.2-0.2,0.3-0.5,0.4-0.8c0.4-0.9,0.6-1.9,0.5-2.8c-3.4,2.3-7.2,4-11.2,4.9l-1-1.6
			c4.3-0.9,8.4-2.7,12-5.3C49.4,17.8,49.2,17.4,49,16.9z"/>
		<path class="st2" d="M81.8,15.2l1.5,1.2c-1.6,1.5-3.3,2.9-5.1,4l-1.4-1.3C78.6,18,80.3,16.7,81.8,15.2z M62.1,16.5l1.6-1.2
			c1.7,1.3,3.3,2.7,4.8,4.3l-1.7,1.1C65.4,19.2,63.8,17.8,62.1,16.5z M64.7,7.1l1.8,0.9c-0.7,1.1-1.5,2.1-2.4,3c0,0,0,0,0,0.1
			c1,0.8,1.9,1.6,2.7,2.6L65.2,15c-0.9-1.3-2-2.5-3.2-3.5c-0.2-0.3-0.2-0.6,0-0.8C63.1,9.7,64,8.5,64.7,7.1z M72.8,7.1l1.8,0.9
			c-0.7,1.1-1.6,2.1-2.5,3c0,0,0,0,0,0.1s0,0,0,0.1c0.9,0.6,1.7,1.3,2.4,2.1L73,14.5c-0.8-1.1-1.9-2.1-3-3c-0.2-0.4-0.2-0.6,0-0.8
			C71.2,9.7,72.1,8.4,72.8,7.1L72.8,7.1z M80.3,7.1l1.8,0.9c-0.7,1-1.4,1.9-2.3,2.7c0,0,0,0,0,0.1c1,0.7,1.8,1.6,2.6,2.5l-1.6,1.2
			c-0.9-1.3-1.9-2.4-3.2-3.3c-0.2-0.4-0.2-0.6,0-0.9C78.8,9.5,79.7,8.4,80.3,7.1L80.3,7.1z M73.7,15.6c0,1,0.2,2.1,0.5,3.1
			c0.9,2.5,4.2,4.5,9.8,6l-1.5,1.5l-1-0.3c-5-1.7-8-3.7-9.1-6c-0.3,0.5-0.7,1-1,1.5c-2.5,2.4-5.5,4-8.9,4.7l-1-1.7
			c1.8-0.5,3.6-1.1,5.3-1.9c1.4-0.6,2.6-1.6,3.5-2.8c0.8-1.3,1.3-2.8,1.3-4.3h2.1C73.7,15.4,73.7,15.5,73.7,15.6L73.7,15.6z"/>
		<path class="st2" d="M96,8.6V7.2H98v1.4h8.4l1.8,0.7c-0.2,1.4-0.5,2.7-1,4l-1.9-0.5c0.3-0.7,0.4-1.5,0.6-2.3
			c0-0.2-0.1-0.3-0.3-0.3H88.4c-0.1,0-0.2,0-0.2,0.1v3h-2V8.9c0-0.2,0.1-0.3,0.4-0.3L96,8.6z M98,17.5h9.9v1.7H86.1v-1.7H96v-1.2
			h-7.5v-1.7H96v-1.1h-6.9v-1.7H96v-1.2H98v1.2h6.8v1.7H98v1.1h7.5v1.7H98V17.5z M105.6,25.6c0,0.2-0.1,0.3-0.3,0.3H88.7
			c-0.2,0-0.3-0.1-0.3-0.3v-5.2c0-0.2,0.1-0.2,0.3-0.2h16.6c0.2,0,0.3,0,0.3,0.2V25.6z M103.5,21.8h-13c0,0-0.1,0-0.1,0V24
			c0,0,0,0,0.1,0.1h12.9c0,0,0.1,0,0.1-0.1L103.5,21.8C103.5,21.8,103.5,21.9,103.5,21.8L103.5,21.8z"/>
		<path class="st2" d="M112.8,21.8v4.5h-2.1V8.1c0-0.1,0-0.1,0-0.2c0.1,0,0.2,0,0.2,0h5.8l1.4,0.8l-2,5c0,0-0.1,0.1-0.1,0.1
			c0,0.1,0,0.1,0,0.2c0,0.1,0,0.1,0,0.2c0,0.1,0.1,0.1,0.1,0.1c0.8,0.8,1.4,1.7,1.9,2.8c0.3,0.6,0.4,1.2,0.3,1.9
			c0,0.6-0.2,1.3-0.5,1.8c-0.4,0.5-0.9,0.9-1.5,1.1C115.2,22.1,114,22,112.8,21.8z M115.5,9.3h-2.5h-0.1c0,0,0,0.1,0,0.1v10.4
			c0.8,0.3,1.7,0.4,2.6,0.2c0.2,0,0.3-0.1,0.4-0.2c0.1-0.1,0.2-0.2,0.3-0.4c0.2-0.3,0.3-0.7,0.3-1.1c0-0.9-0.8-2.4-2.4-4.4
			c0-0.1,0-0.2,0-0.3l1.7-4.2C115.9,9.4,115.8,9.4,115.5,9.3L115.5,9.3z M122.8,15.7c0,0,0,0.1,0,0.1c0,2-0.5,4.1-1.5,5.9
			s-2.3,3.4-4,4.6l-1.8-1.2c3.4-2,5.2-5.4,5.3-10.2v-3.1h-2.5v-1.7h5.7V7.3h2.1v2.8h6.2v1.7h-9.4V14h8.1c0.1,0,0.3,0,0.4,0.1
			c0.1,0.1,0.2,0.1,0.3,0.3c0,0,0,1.4,0,3.9c-0.1,3.4-0.4,5.4-0.9,6.2c-0.4,0.7-0.9,1.2-1.6,1.5c-1.2,0.6-3.3,0.4-6.3-0.6l0.1-2.1
			c2.5,1,4.2,1.3,5,0.9c0.4-0.2,0.8-0.6,1.1-1c0.3-0.8,0.5-1.8,0.5-2.7c0.2-1.5,0.2-3.1,0-4.7c0,0-0.1-0.1-0.1-0.1c0,0-0.1,0-0.1,0
			L122.8,15.7z"/>
		<path class="st2" d="M134.8,13.6l1.7-0.7c0.7,1.1,1.4,2.2,2,3.4l-1.7,0.5C136.2,15.7,135.5,14.6,134.8,13.6z M139.4,17.9v-6h-4.8
			v-1.6h4.8v-3h2v3h4.8v1.6h-4.8v12.3c0,0.3-0.1,0.7-0.3,1c-0.2,0.3-0.4,0.5-0.8,0.7c-1.4,0.4-2.9,0.3-4.2-0.2l0.1-1.7
			c0.5,0.2,1,0.3,1.5,0.4c0.5,0.2,1,0.2,1.5,0c0.1-0.1,0.1-0.1,0.2-0.2c0-0.1,0-0.2,0-0.3v-3.6c0,0-0.1,0-0.1,0c0,0,0,0-0.1,0.1
			c-1.1,0.9-2.4,1.7-3.7,2.5l-1.4-1.2C136,20.6,137.8,19.4,139.4,17.9z M144,12.9l1.7,0.7c-0.5,1.2-1.2,2.4-2,3.4l-1.6-0.8
			C142.8,15.2,143.5,14.1,144,12.9z M141.8,18.8l1.5-1c1.4,1.2,2.6,2.5,3.7,4l-1.5,0.9C144.4,21.3,143.2,20,141.8,18.8L141.8,18.8z
			 M142.7,8.4l1.3-1.1c0.8,0.5,1.5,1.1,2.1,1.8l-1.4,1.1c-0.6-0.7-1.3-1.4-2-1.9V8.4z M150.2,20.7c-0.9-1.6-1.6-3.3-1.9-5.1
			c-0.1-0.2-0.1-0.5-0.1-0.8c-0.3,0.6-0.7,1.1-1.1,1.6l-1.8-0.5c1.8-2,2.8-4.7,2.8-7.4V7.4h1.9v1.1c0,0.2,0,0.5-0.1,0.7h6.8v1.6
			h-1.2v0.4c0,3.4-1,6.7-3,9.5c1.3,1.6,2.8,3,4.5,4.3l-1.9,1c-1.3-1.2-2.6-2.5-3.7-3.8c-1.7,1.7-3.6,3.2-5.8,4.2l-1.5-1.4
			c2.4-1,4.5-2.5,6.2-4.5L150.2,20.7z M153.5,11.4v-0.4h-3.6c-0.2,2.8,0.3,5.7,1.5,8.2c1.4-2.4,2.2-5.1,2.2-7.9L153.5,11.4z"/>
		<path class="st2" d="M164.7,17.2v9.1h-2.1v-8.6c-0.7,1.3-1.5,2.5-2.5,3.7l-1.9-0.7c1.7-1.8,3.1-3.9,4.1-6.2h-3.6v-1.7h3.9v-3
			c-1,0.1-2,0.2-3.1,0.3l-0.3-1.8c2.8-0.2,5.5-0.5,8.2-1.1l0.4,1.7c-1,0.2-2,0.4-3.1,0.6v3.2h3.4v1.7h-3.4v0.3
			c1.4,1.3,2.7,2.8,4,4.2l-1.6,1.1C166.4,19.1,165.6,18.2,164.7,17.2z M169.8,9.3l1.6-1.1c2.4,2.3,3.8,3.7,4.2,4.2l-1.6,1
			C172.7,11.9,171.4,10.6,169.8,9.3z M168.8,14.3l1.5-1.1c2,1.7,3.3,3,4.1,3.7l-1.6,1.1C171.5,16.7,170.2,15.5,168.8,14.3
			L168.8,14.3z M176.6,21.1l-9.1,1.3l-0.5-1.7l9.6-1.3V7.2h2.1v11.8l2.2-0.3l0.3,1.7l-2.6,0.4v5.3h-2.1V21.1z"/>
		<path class="st2" d="M185.8,17.5v-4.7H183v-1.7h2.8V7.4h2.1v3.7h2.3v1.7h-2.3v3.7l1.5-0.9l1.3,1.4c-0.8,0.5-1.7,1-2.6,1.4
			l-0.2,0.1v5.8c0,0.4-0.1,0.7-0.3,1c-0.2,0.3-0.5,0.6-0.8,0.7c-1.2,0.3-2.4,0.2-3.5-0.2l0.1-1.8c0.6,0.2,1.2,0.4,1.8,0.5
			c0.1,0,0.2,0,0.2,0c0.1,0,0.1,0,0.2-0.1c0.1-0.1,0.1-0.2,0.2-0.3c0-0.1,0-0.2,0-0.3v-4.5l-2.2,0.8l-1.1-1.5
			C183.8,18.3,184.9,17.9,185.8,17.5z M197.2,22.9c-2.4,1.5-5,2.6-7.8,3.2l-1.3-1.6c2.6-0.5,5.2-1.5,7.5-2.8
			c-1.6-1.3-3.2-2.8-4.5-4.5l1.7-1c1.3,1.6,2.7,3.1,4.3,4.5c1.6-1.4,2.9-3.1,4-4.9c0.1-0.3,0-0.4-0.3-0.4h-9.6v-1.7h4.5V11h-5.4V9.3
			h5.4V7.4h2.1v1.9h6.6V11h-6.6v2.7h5.3l0.8,0.6c0,0.1,0,0.1,0,0.2c-1.1,2.9-2.9,5.5-5.2,7.5c2.1,1.2,4.3,2.2,6.6,2.9l-1.4,1.6
			C201.6,25.5,199.3,24.3,197.2,22.9z"/>
		<path class="st2" d="M228.7,20.7c0,0.3-0.2,0.5-0.6,0.5h-8.9v4.9h-2.2v-4.9h-9c-0.4,0-0.5-0.1-0.5-0.5V10.6c0-0.3,0.2-0.5,0.5-0.5
			h9V7.4h2.2v2.7h9c0.4,0,0.6,0.2,0.6,0.5L228.7,20.7z M226.3,11.8h-7.1v7.5h7.1c0.2,0,0.2,0,0.2-0.2V12
			C226.6,11.9,226.5,11.9,226.3,11.8L226.3,11.8z M217.1,11.8h-7.2c-0.2,0-0.2,0-0.2,0.2v7.2c0,0.1,0.1,0.2,0.2,0.2h7.2V11.8z"/>
		<path class="st2" d="M232.8,10.4l2.1,0.1c0,4.5-0.6,8.9-1.7,13.3l-2.1-0.2C232.2,19.3,232.7,14.9,232.8,10.4z M237,8.6h2.2V23
			c0,0.3,0,0.6,0.2,0.8c0.3,0.3,0.8,0.4,1.2,0.3h5.2c0.3,0,0.6,0,0.8-0.1c0.3-0.1,0.5-0.2,0.7-0.4c0.2-0.2,0.3-0.5,0.3-0.8
			c0.1-1.2,0.1-2.4,0-3.6l2.2,0.3c0.1,1.5,0.1,3,0,4.5c-0.1,0.4-0.3,0.8-0.6,1.2c-0.3,0.3-0.6,0.5-1,0.7c-0.5,0.1-1,0.1-1.5,0.1
			h-6.8c-0.5,0-1-0.1-1.5-0.3c-0.4-0.3-0.7-0.6-0.9-1.1c-0.2-0.4-0.3-0.9-0.2-1.4L237,8.6z M241.2,7.6l2-0.4c1.4,3.9,2.2,8,2.6,12.1
			l-2.1,0.3C243.3,15.5,242.5,11.5,241.2,7.6z M248.6,10l2-0.4c1.6,4.4,2.6,8.9,3,13.5l-2.1,0.3C251.1,18.9,250.1,14.3,248.6,10
			L248.6,10z"/>
	</g>
</g>
</svg>
