<svg width="106" height="64" viewBox="0 0 106 64" fill="none" xmlns="http://www.w3.org/2000/svg">
<path d="M33.0849 10.1108C34.6449 10.13 36.1822 10.4883 37.5889 11.1606C38.9955 11.8328 40.2379 12.8028 41.2292 14.0029C42.5166 15.3897 45.9898 19.4012 46.0197 19.446L46.1692 19.61L59.8525 0.92462H50.4809C50.4809 0.92462 46.5885 5.77113 46.349 6.0992C45.4957 5.23428 41.3037 0.820312 35.3155 0.820312C27.396 0.820312 22.6804 5.93531 19.342 11.4678C17.0515 15.2854 6.10352e-05 43.3804 6.10352e-05 43.3804H6.94626C7.09597 43.112 22.5307 17.4327 23.8032 15.4494C24.7247 13.8097 26.0734 12.4483 27.707 11.5086C29.3407 10.569 31.1986 10.0861 33.0849 10.1108Z" fill="#00498B"/>
<path d="M84.6439 8.54471C81.6498 3.44464 77.6078 0.969238 72.3382 0.969238C67.6523 0.969238 64.134 3.32544 59.7476 9.39482C57.9811 11.8405 48.2951 25.0379 46.9777 26.8274C46.5285 26.1862 44.9718 24.0836 42.7113 21.3248C39.2231 17.0598 36.7229 15.479 33.2347 15.479C28.7436 15.479 26.3633 17.9397 23.6087 22.4731C22.7854 23.8301 11.3628 43.1865 11.243 43.3505H18.5335L27.5159 28.2293C29.8363 24.3819 31.4531 24.3817 32.7406 24.3817C34.0281 24.3817 35.6449 25.038 37.9503 28.2293C40.6451 31.9574 46.6783 40.6065 46.6783 40.6065C46.6783 40.6065 64.7929 15.8966 65.8707 14.4054C68.5954 10.6474 70.5266 9.93165 72.6525 9.93165C74.0298 9.93165 76.6497 10.1702 79.045 14.1518L96.3057 43.2759H105.288L84.6439 8.54471Z" fill="#3DB171"/>
<path d="M78.8501 21.2803C76.5447 17.3434 75.0926 15.5391 72.1733 15.5391C69.7032 15.5391 67.5474 18.0593 65.0173 21.5041L48.9839 43.3955H57.6969L67.188 30.362C69.9725 26.7233 70.3769 25.8882 71.814 25.8882C73.2512 25.8882 73.85 27.0812 75.931 30.362L83.5661 43.3805H92.0094L78.8501 21.2803Z" fill="#C92B20"/>
<path d="M27.1566 63.7207H22.6654L11.0782 52.5961V63.7207H6.58701V47.1978H11.0782L22.6355 58.2479V47.1978H27.1266L27.1566 63.7207Z" fill="#00498B"/>
<path d="M50.2267 63.721H35.3306C33.7037 63.7682 32.1125 63.2399 30.8394 62.2298C30.2633 61.7907 29.7984 61.2236 29.4813 60.5738C29.1642 59.9239 29.0037 59.2092 29.0131 58.4867V52.4324C29.0026 51.7097 29.1622 50.9946 29.4794 50.3446C29.7966 49.6945 30.2624 49.1276 30.8394 48.6893C32.1094 47.6733 33.7027 47.1443 35.3306 47.1981H50.2267V51.1051H35.2561C34.0584 51.1051 33.4593 51.5675 33.4593 52.4771V58.5614C33.4593 59.4859 34.0584 59.9483 35.2561 59.9483H50.2267V63.721Z" fill="#00498B"/>
<path d="M74.5088 58.5614C74.5176 59.2823 74.3586 59.9954 74.0443 60.6448C73.73 61.2942 73.2691 61.8622 72.6974 62.3044C71.4275 63.3204 69.8342 63.8495 68.2063 63.7957H52.0379V53.3569H56.5291V59.9334H68.2212C69.374 59.9334 69.9577 59.471 69.9577 58.5465V52.4772C69.9577 51.5675 69.3736 51.1051 68.2359 51.1051H52.0529V47.2578H68.2212C69.8503 47.1959 71.4464 47.7259 72.7124 48.749C73.2858 49.1896 73.7477 49.7573 74.0622 50.407C74.3767 51.0568 74.5349 51.7708 74.5238 52.4921L74.5088 58.5614Z" fill="#00498B"/>
<path d="M99.0005 63.7208H92.8628L83.2364 54.4751H94.8237C95.662 54.4751 96.0664 53.9084 96.0664 52.7601C96.0664 51.6119 95.662 51.0452 94.8237 51.0452H80.8564V63.7208H76.3652V47.1978H95.0634C95.8311 47.1642 96.5964 47.3021 97.3036 47.6014C98.0107 47.9007 98.6419 48.3539 99.1504 48.9277C100.051 50.0007 100.544 51.3544 100.544 52.7527C100.544 54.151 100.051 55.5049 99.1504 56.5778C98.6431 57.158 98.0106 57.6164 97.3003 57.9185C96.5899 58.2207 95.82 58.3587 95.0485 58.3225H93.3266L99.0005 63.7208Z" fill="#00498B"/>
</svg>
