<svg width="765" height="69" viewBox="0 0 765 69" fill="none" xmlns="http://www.w3.org/2000/svg">
<g clip-path="url(#clip0_77_868)">
<path d="M16.3348 62.9457H13.8198L3.65474 51.1052V62.9011H0.660614V45.9307H3.19056L13.3557 57.7562V45.9307H16.3498L16.3348 62.9457Z" fill="#00498B"/>
<path d="M26.8893 59.3071C26.7092 59.8019 26.3795 60.229 25.946 60.5299C25.4258 60.8988 24.8031 61.0969 24.1646 61.0966C23.9211 61.1014 23.6792 61.0579 23.453 60.9682C23.2267 60.8786 23.0209 60.7447 22.8473 60.5747C22.6772 60.4106 22.5428 60.2135 22.4526 59.9954C22.3624 59.7773 22.3184 59.5429 22.3232 59.3071C22.3232 58.0694 23.476 57.2045 25.7815 56.6975L27.2786 56.3993V57.5623C27.268 58.1641 27.1356 58.7575 26.8893 59.3071ZM30.6769 59.0983V55.8623C30.7017 55.0777 30.6413 54.2928 30.4971 53.5211C30.3565 53.0353 30.117 52.5835 29.7935 52.1939C29.2157 51.6026 28.5128 51.1472 27.7358 50.8608C26.9589 50.5744 26.1274 50.4644 25.3024 50.5386C23.3851 50.5123 21.5088 51.0918 19.9428 52.1939L21.1105 53.6851C22.0741 52.8906 23.2738 52.4346 24.5239 52.3877C25.1713 52.3427 25.8122 52.5414 26.3195 52.9446C26.8269 53.3478 27.1639 53.926 27.2636 54.5649L25.018 55.0273C23.7631 55.254 22.5479 55.6608 21.4102 56.2351C20.7052 56.5184 20.0969 56.9985 19.6588 57.6175C19.2206 58.2364 18.971 58.968 18.9398 59.7247C18.9311 60.2002 19.0285 60.6716 19.2253 61.1049C19.4221 61.5382 19.7133 61.9225 20.0776 62.2299C20.8402 62.9007 21.8304 63.2579 22.8473 63.2291C23.6633 63.236 24.4714 63.0692 25.2176 62.74C25.9637 62.4108 26.6304 61.9268 27.1737 61.3203C27.1812 61.8715 27.2876 62.4171 27.488 62.9309H31.2756C30.8374 61.7019 30.6344 60.4019 30.6769 59.0983Z" fill="#00498B"/>
<path d="M42.279 62.4983C41.125 62.9751 39.8904 63.2281 38.6412 63.2439C37.9921 63.3019 37.3384 63.205 36.7344 62.9612C36.1304 62.7175 35.5934 62.3337 35.1679 61.8421C34.626 60.8918 34.3909 59.7985 34.4943 58.7105V52.4772H32.593V50.8367H34.4943V47.8542L38.0721 47.1533V50.7921H41.6054V52.4324H38.0871V58.0246C38.0212 58.8908 38.165 59.7602 38.5063 60.5596C38.6571 60.8128 38.8795 61.0158 39.1459 61.1432C39.4124 61.2706 39.7108 61.3166 40.0034 61.2754C40.5937 61.27 41.1756 61.1379 41.7099 60.8878L42.279 62.4983Z" fill="#00498B"/>
<path d="M47.8331 47.1084C47.8357 47.3553 47.7835 47.5999 47.6799 47.8242C47.5764 48.0485 47.4243 48.2471 47.2344 48.4058C47.0338 48.5908 46.7979 48.7337 46.5407 48.8259C46.2835 48.9182 46.0103 48.958 45.7373 48.9428C45.1921 48.9673 44.6576 48.7861 44.2403 48.4357C44.0495 48.2867 43.8948 48.0967 43.7885 47.8797C43.6822 47.6627 43.6267 47.4245 43.6262 47.1831C43.6187 46.9252 43.6653 46.6685 43.7633 46.4296C43.8613 46.1908 44.0086 45.975 44.1953 45.7961C44.6133 45.4453 45.146 45.2596 45.6924 45.2742C45.9642 45.2579 46.2365 45.2957 46.4935 45.3853C46.7506 45.4749 46.9872 45.6145 47.1894 45.7961C47.3879 45.9535 47.5485 46.1529 47.6598 46.3799C47.7712 46.6069 47.8304 46.8558 47.8331 47.1084ZM47.5787 62.9455H44.0754V50.8365H47.6533L47.5787 62.9455Z" fill="#00498B"/>
<path d="M59.8546 60.2614C59.5805 60.6579 59.2104 60.9792 58.7786 61.1956C58.3468 61.4119 57.8672 61.5162 57.3842 61.499C56.8979 61.5106 56.4164 61.404 55.9807 61.1883C55.5451 60.9726 55.1687 60.6545 54.8843 60.2614C54.232 59.2398 53.9181 58.0402 53.9862 56.8314C53.922 55.6584 54.2423 54.4965 54.8992 53.5209C55.1724 53.1306 55.5379 52.8135 55.9636 52.5976C56.3892 52.3817 56.8621 52.2738 57.3396 52.2832C57.8233 52.2683 58.3033 52.3703 58.7388 52.5807C59.1742 52.7911 59.5519 53.1034 59.8396 53.4911C60.4926 54.479 60.8074 55.6506 60.7376 56.8314C60.7985 58.0374 60.4908 59.2335 59.8546 60.2614ZM62.4295 52.3428C61.062 51.126 59.2769 50.48 57.4442 50.5384C55.5679 50.469 53.7328 51.0961 52.2944 52.2982C51.6529 52.8523 51.1418 53.5404 50.7977 54.3137C50.4535 55.0869 50.2847 55.9263 50.3032 56.7719C50.277 57.6404 50.4417 58.5041 50.7856 59.3026C51.1295 60.1011 51.6445 60.8151 52.2944 61.3947C53.6987 62.6179 55.5202 63.2583 57.3842 63.1842C59.2453 63.2628 61.0629 62.6094 62.4445 61.3649C63.0944 60.7853 63.6093 60.0712 63.9532 59.2727C64.2972 58.4742 64.4619 57.6106 64.4357 56.742C64.4403 55.9079 64.2634 55.0826 63.9171 54.3231C63.5707 53.5637 63.0632 52.8881 62.4295 52.3428Z" fill="#00498B"/>
<path d="M79.84 62.9456H76.2622V56.0264C76.3201 55.2475 76.1757 54.4668 75.843 53.7597C75.6041 53.4093 75.2756 53.1291 74.8912 52.9481C74.5068 52.7672 74.0807 52.692 73.6573 52.7306C73.0647 52.6579 72.4645 52.7823 71.9501 53.0843C71.4357 53.3863 71.0362 53.8491 70.813 54.4008C70.6117 55.0572 70.5253 55.7433 70.5583 56.4289V62.9456H66.9505V50.8367H70.5583V52.4623C71.1584 51.8463 71.8778 51.3581 72.673 51.0275C73.4682 50.6968 74.3227 50.5304 75.1843 50.5385C76.0416 50.4299 76.9115 50.5898 77.6733 50.996C78.4352 51.4021 79.0514 52.0345 79.4361 52.8052C79.7655 53.8611 79.9021 54.9671 79.84 56.071V62.9456Z" fill="#00498B"/>
<path d="M90.2001 59.3071C90.0199 59.8018 89.6903 60.2289 89.2567 60.5298C88.7366 60.8987 88.1139 61.0968 87.4753 61.0965C87.2319 61.1013 86.99 61.0578 86.7637 60.9681C86.5375 60.8785 86.3317 60.7447 86.1581 60.5746C85.9879 60.4105 85.8535 60.2134 85.7634 59.9953C85.6732 59.7772 85.6291 59.5429 85.634 59.3071C85.634 58.0693 86.7868 57.2044 89.0773 56.6974L90.5743 56.3992V57.5622C90.5591 58.1619 90.4322 58.7535 90.2001 59.3071ZM93.9877 59.0983V55.8622C94.017 55.0768 93.9515 54.2909 93.7929 53.521C93.664 53.0336 93.429 52.5804 93.1043 52.1938C92.5258 51.6034 91.8226 51.1485 91.0458 50.8622C90.2691 50.5759 89.4381 50.4654 88.6131 50.5385C86.7001 50.5092 84.8276 51.0891 83.2685 52.1938L84.4363 53.685C85.3999 52.8905 86.5996 52.4345 87.8496 52.3876C88.4971 52.3426 89.1379 52.5413 89.6453 52.9445C90.1526 53.3477 90.4896 53.926 90.5893 54.5648L88.3288 55.0272C87.0792 55.2561 85.8689 55.6628 84.7356 56.235C84.0305 56.5184 83.4226 56.9985 82.9845 57.6174C82.5464 58.2363 82.2968 58.968 82.2656 59.7246C82.2568 60.2002 82.3543 60.6715 82.551 61.1048C82.7478 61.5382 83.0391 61.9224 83.4034 62.2298C84.166 62.9006 85.1561 63.2578 86.1731 63.229C86.9891 63.2359 87.7968 63.0691 88.5429 62.7399C89.289 62.4107 89.9562 61.9267 90.4994 61.3202C90.507 61.8714 90.6134 62.417 90.8137 62.9309H94.6014C94.1524 61.7043 93.9442 60.4031 93.9877 59.0983Z" fill="#00498B"/>
<path d="M100.964 62.9455H97.3859V45.1401H100.964V62.9455Z" fill="#00498B"/>
<path d="M121.923 58.5614C121.925 59.2362 121.758 59.9009 121.436 60.4948C121.114 61.0887 120.649 61.593 120.081 61.9615C118.681 62.9077 117.011 63.3785 115.321 63.3037C113.332 63.3195 111.379 62.7712 109.692 61.7229L111.189 59.6649C112.297 60.5569 113.658 61.0787 115.081 61.1562C115.849 61.1887 116.607 60.9686 117.237 60.5298C117.501 60.346 117.716 60.1003 117.862 59.8142C118.008 59.5281 118.081 59.2105 118.075 58.8895C118.075 58.0693 117.386 57.115 115.994 55.9965C115.35 55.4746 114.332 54.714 113 53.7298C112.336 53.3575 111.774 52.8281 111.365 52.1883C110.955 51.5485 110.709 50.8181 110.65 50.0614C110.656 49.4591 110.818 48.8684 111.12 48.3462C111.421 47.824 111.852 47.3877 112.371 47.0789C113.68 46.24 115.218 45.8282 116.773 45.9008C118.471 45.8914 120.137 46.362 121.578 47.2578L120.081 49.107C119.193 48.5109 118.157 48.1703 117.087 48.1227C116.46 48.0879 115.839 48.2609 115.321 48.6147C115.106 48.7553 114.931 48.9486 114.813 49.1758C114.695 49.403 114.638 49.6565 114.647 49.9121C114.647 50.5534 115.231 51.3139 116.383 52.1938L119.378 54.3859C120.098 54.8371 120.703 55.4494 121.145 56.1742C121.587 56.899 121.853 57.7164 121.923 58.5614Z" fill="#00498B"/>
<path d="M135.651 62.0805C134.22 62.8616 132.611 63.2623 130.98 63.2437C129.113 63.3143 127.286 62.6865 125.86 61.4839C125.211 60.9339 124.694 60.2474 124.344 59.4737C123.994 58.7 123.822 57.8584 123.839 57.0102C123.824 56.1383 124.005 55.2741 124.371 54.4817C124.736 53.6892 125.276 52.9888 125.95 52.4321C127.467 51.188 129.39 50.5408 131.354 50.6128C132.789 50.5945 134.205 50.9381 135.471 51.6119L134.408 53.3268C133.599 52.941 132.715 52.7373 131.818 52.7303C131.269 52.7137 130.721 52.8052 130.208 52.9997C129.694 53.1942 129.224 53.4878 128.824 53.8637C128.443 54.2594 128.146 54.7273 127.951 55.2397C127.755 55.7521 127.666 56.2984 127.686 56.8462C127.661 57.4182 127.749 57.9895 127.947 58.5271C128.145 59.0647 128.448 59.5578 128.839 59.9777C129.231 60.3685 129.698 60.6757 130.213 60.8808C130.728 61.0859 131.279 61.1846 131.833 61.1708C132.827 61.1375 133.8 60.8773 134.678 60.4103L135.651 62.0805Z" fill="#00498B"/>
<path d="M141.639 47.1084C141.641 47.3553 141.589 47.5999 141.485 47.8242C141.382 48.0486 141.23 48.2471 141.04 48.4058C140.631 48.7738 140.093 48.9669 139.543 48.9428C138.997 48.9688 138.462 48.7875 138.046 48.4357C137.855 48.2867 137.701 48.0967 137.594 47.8797C137.488 47.6628 137.433 47.4245 137.432 47.1831C137.421 46.9247 137.466 46.6669 137.564 46.4274C137.662 46.188 137.811 45.9726 138.001 45.7961C138.416 45.4403 138.951 45.2539 139.498 45.2742C140.046 45.2462 140.584 45.4335 140.995 45.7961C141.191 45.9556 141.35 46.1556 141.461 46.3821C141.572 46.6087 141.633 46.8564 141.639 47.1084ZM141.369 62.9455H137.791V50.8366H141.384L141.369 62.9455Z" fill="#00498B"/>
<path d="M147.867 55.579C147.972 53.357 148.975 52.2386 150.861 52.2386C152.448 52.2386 153.316 53.1482 153.466 54.9824C153.466 55.2359 153.466 55.4298 153.466 55.579H147.867ZM155.936 53.2079C155.461 52.3124 154.729 51.5785 153.832 51.1003C152.936 50.6221 151.917 50.4212 150.906 50.5236C149.153 50.4565 147.437 51.0471 146.1 52.1789C145.454 52.7303 144.939 53.4177 144.592 54.1913C144.246 54.9649 144.076 55.8055 144.094 56.6526C144.068 57.5868 144.257 58.5146 144.646 59.365C145.035 60.2153 145.615 60.9657 146.34 61.5589C147.733 62.6736 149.48 63.2554 151.265 63.1992C153.11 63.173 154.922 62.7077 156.55 61.8421L155.547 60.1869C154.474 60.7977 153.264 61.131 152.029 61.1562C150.931 61.202 149.858 60.8226 149.035 60.0975C148.635 59.7142 148.323 59.249 148.122 58.734C147.92 58.2191 147.833 57.6667 147.867 57.115H155.996C155.996 57.115 156.116 57.0106 156.34 56.9062C156.565 56.8018 156.699 56.7421 156.699 56.6974C156.71 55.4968 156.449 54.3094 155.936 53.2229V53.2079Z" fill="#00498B"/>
<path d="M172.134 62.9452H168.556V56.026C168.613 55.2456 168.463 54.464 168.122 53.7593C167.886 53.4102 167.559 53.1306 167.178 52.9496C166.796 52.7686 166.372 52.6929 165.951 52.7302C165.356 52.6567 164.754 52.7806 164.237 53.0825C163.72 53.3844 163.318 53.8476 163.092 54.4004C162.897 55.058 162.816 55.7438 162.852 56.4285V62.9452H159.229V50.8363H162.852V52.4619C163.449 51.845 164.165 51.3559 164.958 51.0251C165.751 50.6943 166.603 50.5286 167.463 50.5382C168.322 50.433 169.193 50.5942 169.956 50.9998C170.72 51.4054 171.339 52.0358 171.73 52.8049C172.059 53.8607 172.196 54.9667 172.134 56.0706V62.9452Z" fill="#00498B"/>
<path d="M186.476 62.0805C185.04 62.8622 183.426 63.2628 181.79 63.2437C179.923 63.3143 178.097 62.6865 176.67 61.4839C176.019 60.9354 175.498 60.2495 175.146 59.4757C174.794 58.7019 174.619 57.8596 174.634 57.0102C174.622 56.1372 174.806 55.2728 175.174 54.4804C175.542 53.688 176.084 52.988 176.76 52.4321C178.277 51.188 180.2 50.5408 182.164 50.6128C183.599 50.5945 185.016 50.9381 186.281 51.6119L185.218 53.3268C184.409 52.9424 183.525 52.7388 182.629 52.7303C182.079 52.7137 181.532 52.8052 181.018 52.9997C180.504 53.1942 180.034 53.4878 179.634 53.8637C179.254 54.2594 178.957 54.7273 178.761 55.2397C178.566 55.7521 178.476 56.2984 178.497 56.8462C178.468 57.4185 178.555 57.9909 178.753 58.5289C178.951 59.067 179.256 59.5597 179.649 59.9777C180.041 60.3685 180.509 60.6757 181.023 60.8808C181.538 61.0859 182.089 61.1846 182.644 61.1708C183.633 61.1395 184.602 60.8791 185.473 60.4103L186.476 62.0805Z" fill="#00498B"/>
<path d="M191.177 55.579C191.282 53.357 192.285 52.2386 194.171 52.2386C195.758 52.2386 196.641 53.1482 196.776 54.9825C196.776 55.236 196.776 55.4299 196.776 55.579H191.177ZM199.261 53.208C198.784 52.3138 198.052 51.5811 197.156 51.1031C196.26 50.6251 195.242 50.4233 194.231 50.5237C192.473 50.4586 190.754 51.0488 189.41 52.1789C188.766 52.7311 188.254 53.4189 187.909 54.1926C187.565 54.9663 187.398 55.8066 187.419 56.6527C187.393 57.5869 187.582 58.5147 187.971 59.365C188.36 60.2154 188.94 60.9658 189.665 61.5589C191.052 62.6832 192.803 63.2663 194.59 63.1993C196.43 63.173 198.237 62.7076 199.86 61.8422L198.856 60.1869C197.784 60.7995 196.574 61.1329 195.339 61.1563C194.24 61.2052 193.166 60.8254 192.344 60.0975C191.94 59.7168 191.625 59.2523 191.421 58.737C191.216 58.2217 191.128 57.6681 191.162 57.115H199.291C199.291 57.115 199.41 57.0106 199.65 56.9062C199.89 56.8018 199.994 56.7422 199.994 56.6974C200.006 55.4999 199.756 54.3142 199.261 53.2229V53.208Z" fill="#00498B"/>
<path d="M215.923 59.3068C215.743 59.8016 215.413 60.2287 214.98 60.5296C214.46 60.8985 213.837 61.0966 213.198 61.0963C212.957 61.1025 212.717 61.0595 212.493 60.9697C212.269 60.88 212.066 60.7454 211.896 60.5744C211.724 60.412 211.588 60.2151 211.497 59.9966C211.407 59.7781 211.364 59.543 211.372 59.3068C211.372 58.0691 212.51 57.2042 214.815 56.6971L216.312 56.399V57.562C216.302 58.1638 216.169 58.7572 215.923 59.3068ZM219.711 59.098V55.862C219.736 55.0774 219.675 54.2925 219.531 53.5208C219.397 53.0324 219.157 52.5793 218.827 52.1936C218.251 51.6005 217.548 51.1441 216.771 50.8576C215.994 50.5711 215.161 50.4619 214.336 50.5383C212.419 50.512 210.543 51.0915 208.977 52.1936L210.144 53.6848C211.108 52.8903 212.308 52.4343 213.558 52.3874C214.205 52.3424 214.846 52.5411 215.353 52.9443C215.861 53.3475 216.198 53.9257 216.297 54.5646L214.052 55.027C212.796 55.2512 211.58 55.6581 210.444 56.2348C209.739 56.5181 209.131 56.9982 208.693 57.6172C208.255 58.2361 208.005 58.9677 207.974 59.7244C207.965 60.1999 208.062 60.6713 208.259 61.1046C208.456 61.5379 208.747 61.9222 209.112 62.2296C209.87 62.8968 210.854 63.2538 211.866 63.2288C212.685 63.2378 213.496 63.072 214.245 62.7428C214.993 62.4135 215.663 61.9284 216.208 61.32C216.215 61.8712 216.322 62.4168 216.522 62.9306H220.31C219.871 61.7016 219.668 60.4016 219.711 59.098Z" fill="#00498B"/>
<path d="M235.984 62.9452H232.406V56.026C232.462 55.2456 232.313 54.464 231.971 53.7593C231.734 53.4078 231.405 53.1267 231.02 52.9456C230.636 52.7645 230.209 52.6901 229.786 52.7302C229.194 52.6601 228.595 52.7857 228.081 53.0874C227.567 53.3891 227.166 53.8503 226.941 54.4004C226.746 55.058 226.666 55.7438 226.702 56.4285V62.9452H223.079V50.8363H226.717V52.4619C227.313 51.845 228.03 51.3559 228.823 51.0251C229.616 50.6943 230.468 50.5286 231.328 50.5382C232.187 50.433 233.057 50.5942 233.821 50.9998C234.584 51.4054 235.203 52.0358 235.594 52.8049C235.924 53.8607 236.061 54.9667 235.998 56.0706L235.984 62.9452Z" fill="#00498B"/>
<path d="M248.2 60.0526C247.919 60.4561 247.542 60.7842 247.104 61.0079C246.665 61.2317 246.177 61.344 245.684 61.3351C245.205 61.3412 244.731 61.227 244.307 61.0028C243.883 60.7787 243.523 60.4519 243.259 60.0526C242.597 59.0564 242.272 57.8756 242.331 56.6824C242.267 55.5675 242.584 54.4639 243.229 53.5508C243.517 53.1873 243.887 52.8956 244.308 52.6989C244.728 52.5021 245.19 52.4058 245.654 52.4174C246.14 52.3999 246.624 52.496 247.066 52.6979C247.507 52.8999 247.896 53.2023 248.2 53.5806C248.881 54.4787 249.22 55.5883 249.158 56.7122C249.22 57.9008 248.883 59.0762 248.2 60.0526ZM252.691 45.1401H249.173V52.3876C248.649 51.7799 247.995 51.297 247.259 50.9744C246.523 50.6518 245.724 50.4977 244.921 50.5235C244.076 50.5008 243.235 50.6502 242.45 50.9624C241.665 51.2746 240.952 51.7429 240.355 52.339C239.758 52.935 239.29 53.6462 238.978 54.4289C238.667 55.2117 238.519 56.0495 238.543 56.8912C238.48 58.4914 239.013 60.0582 240.04 61.2903C240.597 61.926 241.289 62.4299 242.066 62.7653C242.843 63.1007 243.685 63.2592 244.532 63.229C245.383 63.2076 246.22 63.0126 246.993 62.6561C247.765 62.2996 248.456 61.7891 249.023 61.1561V62.9308H252.481L252.691 45.1401Z" fill="#00498B"/>
<path d="M276.12 48.197H270.132V62.9453H266.329V48.197H260.521V45.9751H276.12V48.197Z" fill="#00498B"/>
<path d="M278.441 55.579C278.545 53.357 279.548 52.2386 281.435 52.2386C283.036 52.2386 283.905 53.1482 284.04 54.9825C284.052 55.1811 284.052 55.3804 284.04 55.579H278.441ZM286.524 53.208C286.048 52.3138 285.315 51.5811 284.42 51.1031C283.524 50.6251 282.506 50.4233 281.495 50.5237C279.737 50.4586 278.018 51.0488 276.674 52.1789C276.03 52.7311 275.517 53.4189 275.173 54.1926C274.829 54.9663 274.661 55.8066 274.683 56.6527C274.657 57.5869 274.846 58.5147 275.235 59.365C275.624 60.2154 276.203 60.9658 276.928 61.5589C278.317 62.682 280.067 63.2649 281.854 63.1993C283.694 63.173 285.501 62.7076 287.124 61.8422L286.12 60.1869C285.049 60.8013 283.839 61.1349 282.602 61.1563C281.504 61.2036 280.431 60.824 279.608 60.0975C279.204 59.7168 278.889 59.2523 278.684 58.737C278.48 58.2217 278.392 57.6681 278.426 57.115H286.599C286.599 57.115 286.704 57.0106 286.944 56.9062C287.183 56.8018 287.288 56.7422 287.288 56.6974C287.314 55.5032 287.079 54.3176 286.599 53.2229L286.524 53.208Z" fill="#00498B"/>
<path d="M300.701 62.0805C299.271 62.8616 297.662 63.2623 296.031 63.2437C294.164 63.3143 292.337 62.6865 290.911 61.4839C290.262 60.9339 289.744 60.2474 289.395 59.4737C289.045 58.7 288.873 57.8584 288.89 57.0102C288.875 56.1383 289.056 55.2741 289.422 54.4817C289.787 53.6892 290.327 52.9888 291.001 52.4321C292.518 51.188 294.441 50.5408 296.405 50.6128C297.84 50.5945 299.256 50.9381 300.522 51.6119L299.459 53.3268C298.649 52.9438 297.766 52.7402 296.869 52.7303C296.32 52.7137 295.772 52.8052 295.259 52.9997C294.745 53.1942 294.275 53.4878 293.875 53.8637C293.492 54.2581 293.192 54.7256 292.994 55.238C292.796 55.7505 292.703 56.2974 292.722 56.8462C292.696 57.4195 292.786 57.9922 292.987 58.5302C293.187 59.0682 293.495 59.5604 293.89 59.9777C294.282 60.3685 294.749 60.6757 295.264 60.8808C295.779 61.0859 296.33 61.1846 296.884 61.1708C297.874 61.1395 298.842 60.8791 299.714 60.4103L300.701 62.0805Z" fill="#00498B"/>
<path d="M315.478 62.9455H311.899V56.0263C311.961 55.2456 311.812 54.4627 311.466 53.7596C311.23 53.4093 310.904 53.1288 310.522 52.9477C310.14 52.7666 309.716 52.6915 309.295 52.7305C308.735 52.6653 308.169 52.7735 307.673 53.0404C307.178 53.3072 306.777 53.7197 306.525 54.2218C306.259 54.9258 306.147 55.6782 306.196 56.4288V62.9455H302.588V45.1401H306.196V52.3876C307.42 51.185 309.072 50.5147 310.792 50.5235C311.653 50.4106 312.529 50.5683 313.297 50.9746C314.064 51.3809 314.685 52.0156 315.073 52.7902C315.403 53.8461 315.54 54.9521 315.478 56.056V62.9455Z" fill="#00498B"/>
<path d="M331.825 62.9452H328.248V56.026C328.304 55.2456 328.155 54.464 327.813 53.7593C327.577 53.4102 327.251 53.1306 326.869 52.9496C326.487 52.7686 326.064 52.6929 325.643 52.7302C325.048 52.6567 324.445 52.7806 323.929 53.0825C323.412 53.3844 323.009 53.8476 322.783 54.4004C322.588 55.058 322.507 55.7438 322.544 56.4285V62.9452H318.921V50.8363H322.529V52.4619C323.125 51.845 323.842 51.3559 324.635 51.0251C325.428 50.6943 326.28 50.5286 327.14 50.5382C327.999 50.433 328.869 50.5942 329.632 50.9998C330.396 51.4054 331.015 52.0358 331.406 52.8049C331.736 53.8607 331.872 54.9667 331.81 56.0706L331.825 62.9452Z" fill="#00498B"/>
<path d="M343.892 60.2614C343.617 60.6569 343.247 60.9774 342.815 61.1936C342.384 61.4098 341.905 61.5149 341.422 61.499C340.936 61.5106 340.454 61.404 340.018 61.1883C339.582 60.9726 339.206 60.6545 338.922 60.2614C338.269 59.2398 337.955 58.0402 338.024 56.8314C337.959 55.6584 338.28 54.4965 338.937 53.5209C339.21 53.1306 339.576 52.8135 340.001 52.5976C340.427 52.3817 340.899 52.2738 341.377 52.2832C341.861 52.2683 342.341 52.3703 342.776 52.5807C343.211 52.7911 343.589 53.1034 343.877 53.4911C344.53 54.479 344.845 55.6506 344.775 56.8314C344.836 58.0374 344.528 59.2335 343.892 60.2614ZM346.482 52.3428C345.107 51.1278 343.318 50.4823 341.482 50.5384C339.605 50.469 337.77 51.0961 336.332 52.2982C335.69 52.8523 335.179 53.5404 334.835 54.3137C334.491 55.0869 334.322 55.9263 334.34 56.7719C334.314 57.6404 334.479 58.5041 334.823 59.3026C335.167 60.1011 335.682 60.8151 336.332 61.3947C337.736 62.6179 339.558 63.2583 341.422 63.1842C343.287 63.2603 345.108 62.6075 346.497 61.3649C347.138 60.7795 347.647 60.0641 347.988 59.2667C348.329 58.4693 348.494 57.6085 348.473 56.742C348.478 55.9094 348.302 55.0855 347.958 54.3264C347.615 53.5673 347.111 52.8907 346.482 52.3428Z" fill="#00498B"/>
<path d="M354.566 62.9455H350.973V45.1401H354.551L354.566 62.9455Z" fill="#00498B"/>
<path d="M366.617 60.2614C366.343 60.6579 365.973 60.9792 365.542 61.1956C365.11 61.4119 364.63 61.5162 364.147 61.499C363.661 61.5106 363.179 61.404 362.743 61.1883C362.308 60.9726 361.931 60.6545 361.647 60.2614C360.995 59.2398 360.681 58.0402 360.749 56.8314C360.692 55.6592 361.012 54.4996 361.662 53.5209C361.935 53.1306 362.301 52.8135 362.727 52.5976C363.152 52.3817 363.625 52.2738 364.102 52.2832C364.586 52.2683 365.066 52.3703 365.501 52.5807C365.937 52.7911 366.315 53.1034 366.602 53.4911C367.255 54.479 367.57 55.6506 367.501 56.8314C367.561 58.0374 367.253 59.2335 366.617 60.2614ZM369.192 52.3428C367.823 51.1287 366.039 50.4831 364.207 50.5384C362.331 50.469 360.495 51.0961 359.057 52.2982C358.416 52.8523 357.905 53.5404 357.561 54.3137C357.217 55.0869 357.048 55.9263 357.066 56.7719C357.04 57.6404 357.205 58.5041 357.549 59.3026C357.893 60.1011 358.407 60.8151 359.057 61.3947C360.461 62.6179 362.283 63.2583 364.147 63.1842C366.012 63.2571 367.832 62.6047 369.222 61.3649C369.862 60.7788 370.368 60.0629 370.706 59.2654C371.045 58.468 371.207 57.6075 371.183 56.742C371.191 55.9089 371.016 55.0841 370.673 54.3246C370.329 53.5651 369.824 52.8888 369.192 52.3428Z" fill="#00498B"/>
<path d="M382.411 60.0524C382.142 60.4531 381.776 60.7803 381.347 61.0042C380.918 61.2282 380.44 61.3419 379.956 61.3348C379.483 61.3403 379.016 61.2254 378.599 61.001C378.183 60.7766 377.83 60.4501 377.576 60.0524C376.919 59.0544 376.599 57.8737 376.662 56.6821C376.6 55.5739 376.9 54.4754 377.516 53.5506C377.785 53.1815 378.142 52.8848 378.555 52.687C378.968 52.4892 379.424 52.3965 379.881 52.4172C380.365 52.3938 380.847 52.4843 381.289 52.6812C381.732 52.8781 382.121 53.1759 382.426 53.5506C383.081 54.4709 383.403 55.5856 383.34 56.712C383.396 57.8956 383.071 59.0662 382.411 60.0524ZM386.902 50.7769H383.354V52.4321C382.877 51.7919 382.25 51.2787 381.527 50.938C380.803 50.5972 380.007 50.4394 379.208 50.4785C378.373 50.4623 377.544 50.6167 376.771 50.9321C375.999 51.2476 375.299 51.7176 374.716 52.3129C374.123 52.9139 373.657 53.6274 373.346 54.4112C373.035 55.1951 372.884 56.0333 372.905 56.876C372.848 58.4752 373.381 60.0396 374.402 61.2751C374.963 61.903 375.657 62.3996 376.433 62.7296C377.209 63.0596 378.049 63.2147 378.893 63.184C379.747 63.1773 380.589 62.989 381.364 62.6315C382.138 62.274 382.827 61.7555 383.384 61.1111V62.0506C383.422 62.8964 383.321 63.7428 383.085 64.556C382.486 66.0472 381.064 66.8971 378.833 66.8971C377.272 66.8702 375.737 66.493 374.342 65.7936L373.638 67.7919C375.445 68.5633 377.392 68.9543 379.357 68.9401C383.349 68.9401 385.76 67.3446 386.588 64.1533C386.806 62.9131 386.897 61.6539 386.857 60.3953L386.902 50.7769Z" fill="#00498B"/>
<path d="M402.023 51.1052L395.45 64.5264C394.9 65.8313 394.079 67.0054 393.04 67.9713C391.783 68.7651 390.304 69.141 388.819 69.0449H387.98V66.8825H388.684C389.345 66.9127 390.005 66.8166 390.63 66.5992C391.16 66.3412 391.614 65.9507 391.948 65.4659C392.612 64.4271 393.188 63.3345 393.669 62.2L388.414 51.2841L391.933 50.6577L395.391 59.1878L399.208 50.6577L402.023 51.1052Z" fill="#00498B"/>
<path d="M425.587 47.0638L424.374 49.1514C423.109 48.5013 421.71 48.1542 420.287 48.1374C418.473 48.054 416.696 48.674 415.331 49.8673C414.706 50.4515 414.215 51.1624 413.889 51.9522C413.564 52.742 413.412 53.5923 413.445 54.4454C413.421 55.2988 413.578 56.1477 413.906 56.9366C414.233 57.7254 414.724 58.4366 415.346 59.0236C416.732 60.2707 418.557 60.9195 420.421 60.828C421.804 60.8336 423.171 60.5277 424.419 59.9333L425.422 62.0061C423.686 62.8419 421.78 63.2655 419.853 63.2438C417.149 63.3483 414.496 62.492 412.367 60.828C411.415 60.0903 410.648 59.1414 410.128 58.0566C409.608 56.9719 409.35 55.7813 409.373 54.5796C409.351 53.3652 409.609 52.1619 410.128 51.063C410.648 49.964 411.414 48.9987 412.367 48.2418C414.501 46.5127 417.194 45.6169 419.943 45.7216C421.904 45.7168 423.839 46.1768 425.587 47.0638Z" fill="#00498B"/>
<path d="M430.602 55.579C430.706 53.357 431.709 52.2386 433.596 52.2386C435.183 52.2386 436.051 53.1482 436.201 54.9824C436.201 55.2359 436.201 55.4298 436.201 55.579H430.602ZM438.671 53.2079C438.199 52.3136 437.469 51.5802 436.575 51.1019C435.682 50.6237 434.665 50.4223 433.656 50.5236C431.897 50.4541 430.177 51.0449 428.835 52.1789C428.189 52.7303 427.674 53.4177 427.327 54.1913C426.981 54.9649 426.81 55.8055 426.829 56.6526C426.803 57.5868 426.992 58.5146 427.381 59.365C427.77 60.2153 428.35 60.9657 429.075 61.5589C430.467 62.6736 432.214 63.2554 434 63.1992C435.845 63.173 437.657 62.7077 439.285 61.8421L438.282 60.1869C437.209 60.7977 435.999 61.131 434.763 61.1562C433.666 61.202 432.593 60.8226 431.769 60.0975C431.37 59.7142 431.058 59.249 430.857 58.734C430.655 58.2191 430.568 57.6667 430.602 57.115H438.731C438.731 57.115 438.851 57.0106 439.075 56.9062C439.3 56.8018 439.434 56.7421 439.434 56.6974C439.445 55.4968 439.184 54.3094 438.671 53.2228V53.2079Z" fill="#00498B"/>
<path d="M454.869 62.9452H451.276V56.026C451.333 55.2456 451.183 54.464 450.842 53.7593C450.605 53.4102 450.279 53.1306 449.897 52.9496C449.516 52.7686 449.092 52.6929 448.671 52.7302C448.076 52.6567 447.474 52.7806 446.957 53.0825C446.44 53.3844 446.038 53.8476 445.812 54.4004C445.617 55.058 445.536 55.7438 445.572 56.4285V62.9452H441.949V50.8363H445.572V52.4619C446.168 51.845 446.885 51.3559 447.678 51.0251C448.471 50.6943 449.323 50.5286 450.183 50.5382C451.042 50.433 451.913 50.5942 452.676 50.9998C453.44 51.4054 454.059 52.0358 454.45 52.8049C454.779 53.8607 454.916 54.9667 454.854 56.0706L454.869 62.9452Z" fill="#00498B"/>
<path d="M466.546 62.4983C465.387 62.9752 464.147 63.2282 462.893 63.2439C462.246 63.3019 461.595 63.2049 460.993 62.961C460.392 62.7172 459.857 62.3335 459.435 61.8421C458.893 60.8918 458.658 59.7985 458.761 58.7105V52.4772H456.86V50.8367H458.761V47.8542L462.339 47.1533V50.7921H465.857V52.4324H462.339V58.0246C462.273 58.8908 462.417 59.7602 462.758 60.5596C462.909 60.8128 463.132 61.0158 463.398 61.1432C463.665 61.2706 463.963 61.3166 464.255 61.2754C464.841 61.2697 465.418 61.1376 465.947 60.8878L466.546 62.4983Z" fill="#00498B"/>
<path d="M470.828 55.579C470.933 53.357 471.936 52.2386 473.822 52.2386C475.409 52.2386 476.292 53.1482 476.427 54.9825C476.427 55.236 476.427 55.4299 476.427 55.579H470.828ZM478.912 53.208C478.435 52.3138 477.703 51.5811 476.807 51.1031C475.911 50.6251 474.893 50.4233 473.882 50.5237C472.124 50.4586 470.405 51.0488 469.061 52.1789C468.417 52.7311 467.905 53.4189 467.56 54.1926C467.216 54.9663 467.049 55.8066 467.07 56.6527C467.044 57.5869 467.233 58.5147 467.622 59.365C468.011 60.2154 468.591 60.9658 469.316 61.5589C470.703 62.6832 472.454 63.2663 474.241 63.1993C476.081 63.173 477.888 62.7076 479.511 61.8422L478.508 60.1869C477.435 60.7995 476.226 61.1329 474.99 61.1563C473.892 61.2036 472.818 60.824 471.996 60.0975C471.591 59.7168 471.276 59.2523 471.072 58.737C470.867 58.2217 470.779 57.6681 470.813 57.115H478.942C478.942 57.115 479.062 57.0106 479.301 56.9062C479.541 56.8018 479.645 56.7422 479.645 56.6974C479.657 55.4999 479.407 54.3142 478.912 53.2229V53.208Z" fill="#00498B"/>
<path d="M491.262 51.6567L489.945 53.9831C489.414 53.7018 488.835 53.5197 488.238 53.4461C487.771 53.4286 487.31 53.5653 486.929 53.8349C486.547 54.1045 486.266 54.492 486.128 54.9373C485.845 55.8744 485.729 56.8535 485.783 57.8304V62.9901H482.205V50.8812H485.783V53.0137L486.292 52.2383C486.522 51.7738 486.869 51.3769 487.3 51.0867C487.73 50.7965 488.229 50.6229 488.747 50.583C489.685 50.64 490.574 51.0194 491.262 51.6567Z" fill="#00498B"/>
<path d="M506.562 45.6918L505.949 47.2577C505.496 47.1014 505.021 47.0207 504.541 47.0191C504.172 46.9701 503.797 47.0525 503.482 47.2515C503.167 47.4506 502.932 47.7536 502.82 48.1076C502.697 48.5183 502.652 48.948 502.685 49.3752V50.8664H505.919V52.5068H502.685V62.9455H499.182V52.5068H496.981V50.8664H499.182V49.6138C499.14 49.0441 499.214 48.4719 499.399 47.9313C499.584 47.3906 499.877 46.8927 500.26 46.4673C500.745 46.0076 501.319 45.6503 501.947 45.4171C502.575 45.1839 503.243 45.0795 503.912 45.1102C504.825 45.1325 505.725 45.33 506.562 45.6918Z" fill="#00498B"/>
<path d="M515.904 60.2614C515.63 60.6579 515.26 60.9792 514.828 61.1956C514.397 61.4119 513.917 61.5162 513.434 61.499C512.948 61.5106 512.466 61.404 512.03 61.1883C511.595 60.9726 511.219 60.6545 510.934 60.2614C510.282 59.2398 509.967 58.0402 510.036 56.8314C509.979 55.6592 510.299 54.4996 510.949 53.5209C511.222 53.1306 511.588 52.8135 512.013 52.5976C512.439 52.3817 512.912 52.2738 513.389 52.2832C513.873 52.2683 514.353 52.3703 514.788 52.5807C515.224 52.7911 515.601 53.1034 515.889 53.4911C516.542 54.479 516.857 55.6506 516.787 56.8314C516.848 58.0374 516.54 59.2335 515.904 60.2614ZM518.479 52.3428C517.111 51.126 515.327 50.48 513.494 50.5384C511.618 50.469 509.783 51.0961 508.344 52.2982C507.703 52.8523 507.192 53.5404 506.847 54.3137C506.503 55.0869 506.335 55.9263 506.353 56.7719C506.327 57.6404 506.492 58.5041 506.835 59.3026C507.179 60.1011 507.694 60.8151 508.344 61.3947C509.749 62.6179 511.57 63.2583 513.434 63.1842C515.299 63.2603 517.12 62.6075 518.509 61.3649C519.149 60.7788 519.655 60.0629 519.993 59.2654C520.331 58.468 520.494 57.6075 520.47 56.742C520.478 55.9089 520.304 55.0841 519.96 54.3246C519.616 53.5651 519.111 52.8888 518.479 52.3428Z" fill="#00498B"/>
<path d="M532.117 51.6567L530.8 53.9831C530.269 53.7018 529.69 53.5197 529.093 53.4461C528.626 53.4286 528.165 53.5653 527.784 53.8349C527.402 54.1045 527.12 54.492 526.982 54.9373C526.707 55.876 526.591 56.8538 526.638 57.8304V62.9901H523.06V50.8812H526.638V53.0137L527.147 52.2383C527.378 51.7717 527.727 51.3734 528.161 51.0831C528.594 50.7927 529.096 50.6204 529.617 50.583C530.55 50.6434 531.433 51.0226 532.117 51.6567Z" fill="#00498B"/>
<path d="M550.561 59.4409C549.94 59.9133 549.226 60.2488 548.465 60.4252C547.392 60.6505 546.297 60.7505 545.202 60.7234H543.704V48.1971H545.351C546.88 48.1193 548.408 48.3526 549.843 48.883C550.807 49.3681 551.601 50.1347 552.117 51.0805C552.633 52.0264 552.848 53.1066 552.732 54.177C552.815 55.1631 552.662 56.1547 552.285 57.0701C551.907 57.9855 551.316 58.7981 550.561 59.4409ZM551.923 47.1083C551.085 46.7107 550.2 46.4202 549.288 46.2434C547.896 46.0387 546.489 45.949 545.082 45.9751H539.857V62.9453H545.082C547.508 63.06 549.928 62.6267 552.163 61.6778C553.617 61.0015 554.834 59.9074 555.659 58.536C556.483 57.1647 556.877 55.5791 556.789 53.9831C556.803 52.4739 556.341 50.9983 555.468 49.7648C554.595 48.5312 553.355 47.6019 551.923 47.1083Z" fill="#00498B"/>
<path d="M563.556 47.1081C563.558 47.355 563.506 47.5995 563.402 47.8239C563.299 48.0482 563.147 48.2468 562.957 48.4055C562.548 48.7735 562.01 48.9665 561.46 48.9425C560.914 48.9685 560.379 48.7871 559.963 48.4353C559.766 48.2921 559.607 48.1032 559.5 47.8848C559.393 47.6665 559.341 47.4255 559.349 47.1827C559.341 46.9248 559.388 46.6681 559.486 46.4293C559.584 46.1904 559.731 45.9746 559.918 45.7958C560.334 45.4425 560.868 45.2565 561.415 45.2739C561.687 45.2584 561.959 45.2965 562.216 45.386C562.473 45.4756 562.709 45.6148 562.912 45.7958C563.108 45.9552 563.267 46.1552 563.378 46.3818C563.489 46.6083 563.55 46.856 563.556 47.1081ZM563.301 62.9451H559.723V50.8362H563.301V62.9451Z" fill="#00498B"/>
<path d="M575.382 59.6049C575.39 60.1355 575.255 60.6584 574.992 61.1198C574.729 61.5812 574.346 61.9642 573.885 62.2295C572.809 62.9391 571.537 63.2939 570.247 63.2436C568.64 63.2571 567.069 62.7666 565.756 61.8417L566.924 60.1419C567.72 60.8681 568.737 61.3089 569.813 61.3945C570.311 61.4118 570.8 61.265 571.206 60.9769C571.373 60.8528 571.508 60.6904 571.599 60.5036C571.69 60.3167 571.735 60.1109 571.729 59.9032C571.728 59.512 571.572 59.137 571.295 58.8593C570.721 58.2974 570.089 57.7975 569.409 57.368C568.702 56.9376 568.04 56.4381 567.433 55.8768C567.148 55.6065 566.919 55.2831 566.76 54.9249C566.601 54.5667 566.514 54.1808 566.505 53.7892C566.502 53.3101 566.619 52.8378 566.847 52.4157C567.074 51.9936 567.405 51.6353 567.807 51.3733C568.79 50.7122 569.961 50.3829 571.146 50.4339C572.499 50.4249 573.83 50.7693 575.008 51.4329L573.96 52.9241C573.277 52.5002 572.489 52.2732 571.684 52.2681C571.261 52.2495 570.841 52.3642 570.487 52.5961C570.343 52.6873 570.223 52.8127 570.14 52.9611C570.056 53.1094 570.011 53.2759 570.008 53.446C570.008 53.9381 570.637 54.5944 571.879 55.4146C572.888 56.0197 573.818 56.7459 574.649 57.5768C574.9 57.8494 575.094 58.1692 575.22 58.5174C575.346 58.8656 575.401 59.2353 575.382 59.6049Z" fill="#00498B"/>
<path d="M584.829 59.3071C584.649 59.8019 584.319 60.229 583.886 60.5299C583.366 60.8988 582.743 61.0969 582.104 61.0966C581.863 61.1028 581.623 61.0598 581.399 60.97C581.175 60.8803 580.971 60.7457 580.802 60.5747C580.627 60.4131 580.489 60.2166 580.396 59.9981C580.304 59.7797 580.258 59.5443 580.263 59.3071C580.263 58.0694 581.415 57.2045 583.721 56.6975L585.218 56.3993V57.5623C585.207 58.1641 585.075 58.7575 584.829 59.3071ZM588.616 59.0983V55.8623C588.641 55.0777 588.581 54.2928 588.437 53.5211C588.303 53.0327 588.062 52.5796 587.733 52.1939C587.155 51.6026 586.452 51.1472 585.675 50.8608C584.898 50.5744 584.067 50.4644 583.242 50.5386C581.325 50.5123 579.449 51.0918 577.883 52.1939L579.05 53.6851C580.014 52.8906 581.213 52.4346 582.463 52.3877C583.111 52.3427 583.752 52.5414 584.259 52.9446C584.766 53.3478 585.103 53.926 585.203 54.5649L582.957 55.0273C581.702 55.254 580.487 55.6608 579.35 56.2351C578.646 56.5191 578.04 56.9996 577.605 57.6187C577.169 58.2378 576.922 58.9692 576.894 59.7247C576.879 60.1997 576.973 60.6718 577.167 61.1057C577.362 61.5396 577.652 61.9239 578.017 62.2299C578.78 62.9007 579.77 63.2579 580.787 63.2291C581.603 63.236 582.411 63.0692 583.157 62.74C583.903 62.4108 584.57 61.9268 585.113 61.3203C585.121 61.8715 585.227 62.4171 585.428 62.9309H589.23C588.78 61.7047 588.571 60.4033 588.616 59.0983Z" fill="#00498B"/>
<path d="M600.413 59.605C600.413 60.1341 600.275 60.6542 600.012 61.1142C599.75 61.5743 599.372 61.9586 598.916 62.2296C597.835 62.9394 596.557 63.2941 595.263 63.2437C593.655 63.2633 592.082 62.7723 590.772 61.8418L591.94 60.142C592.731 60.8671 593.742 61.308 594.814 61.3946C595.312 61.4165 595.803 61.2693 596.206 60.977C596.377 60.8554 596.516 60.6939 596.61 60.5068C596.704 60.3196 596.75 60.1125 596.745 59.9033C596.744 59.5121 596.588 59.1371 596.311 58.8593C595.73 58.2984 595.094 57.7987 594.41 57.3681C593.706 56.9337 593.044 56.4344 592.434 55.8768C591.864 55.3286 591.536 54.5781 591.521 53.7892C591.517 53.3102 591.635 52.8378 591.863 52.4158C592.09 51.9937 592.42 51.6354 592.823 51.3734C593.802 50.7144 594.966 50.3851 596.147 50.4339C597.504 50.4251 598.841 50.7694 600.024 51.433L598.976 52.9242C598.293 52.5003 597.505 52.2733 596.7 52.2681C596.276 52.2496 595.858 52.3643 595.503 52.5962C595.359 52.6874 595.239 52.8128 595.156 52.9612C595.072 53.1095 595.027 53.276 595.024 53.4461C595.024 53.9382 595.638 54.5945 596.895 55.4147C597.9 56.0245 598.83 56.7502 599.665 57.5769C599.919 57.8483 600.116 58.1676 600.244 58.5158C600.373 58.8641 600.43 59.2343 600.413 59.605Z" fill="#00498B"/>
<path d="M611.177 62.4983C610.018 62.9766 608.779 63.2297 607.524 63.2439C606.877 63.3019 606.226 63.2049 605.624 62.961C605.023 62.7172 604.488 62.3335 604.066 61.8421C603.524 60.8918 603.289 59.7985 603.392 58.7105V52.4772H601.491V50.8367H603.392V47.8542L606.97 47.1533V50.7921H610.503V52.4324H606.97V58.0246C606.912 58.8905 607.056 59.758 607.389 60.5596C607.54 60.8128 607.763 61.0158 608.029 61.1432C608.296 61.2706 608.594 61.3166 608.887 61.2754C609.477 61.27 610.059 61.1379 610.593 60.8878L611.177 62.4983Z" fill="#00498B"/>
<path d="M615.474 55.579C615.578 53.357 616.567 52.2386 618.468 52.2386C620.07 52.2386 620.938 53.1482 621.088 54.9824C621.088 55.2359 621.088 55.4298 621.088 55.579H615.474ZM623.543 53.2079C623.068 52.3124 622.336 51.5785 621.44 51.1003C620.543 50.6221 619.524 50.4212 618.513 50.5236C616.759 50.4565 615.044 51.0471 613.707 52.1789C613.059 52.7282 612.542 53.4152 612.195 54.1893C611.848 54.9634 611.679 55.8051 611.701 56.6526C611.675 57.5868 611.864 58.5146 612.253 59.365C612.642 60.2153 613.222 60.9657 613.947 61.5589C615.335 62.682 617.085 63.2649 618.872 63.1992C620.712 63.1729 622.519 62.7075 624.142 61.8421L623.139 60.1869C622.072 60.7989 620.867 61.1323 619.636 61.1562C618.538 61.202 617.465 60.8226 616.641 60.0975C616.239 59.716 615.926 59.2511 615.724 58.7357C615.523 58.2202 615.437 57.667 615.474 57.115H623.603C623.603 57.115 623.723 57.0106 623.947 56.9062C624.172 56.8018 624.307 56.7421 624.307 56.6974C624.31 55.4976 624.049 54.3116 623.543 53.2229V53.2079Z" fill="#00498B"/>
<path d="M635.894 51.6567L634.576 53.9831C634.045 53.7018 633.467 53.5197 632.87 53.4461C632.402 53.4286 631.942 53.5653 631.56 53.8349C631.178 54.1045 630.896 54.492 630.758 54.9373C630.483 55.876 630.367 56.8538 630.414 57.8304V62.9901H626.836V50.8812H630.414V53.0137L630.923 52.2383C631.153 51.7738 631.5 51.3769 631.931 51.0867C632.361 50.7965 632.86 50.6229 633.378 50.583C634.316 50.64 635.205 51.0194 635.894 51.6567Z" fill="#00498B"/>
<path d="M651.568 53.133C650.709 53.774 649.641 54.0719 648.574 53.9682H647.436V48.1225H648.933C649.783 48.0548 650.636 48.2145 651.403 48.5848C651.755 48.8228 652.036 49.1502 652.218 49.5331C652.399 49.9159 652.475 50.3403 652.436 50.762C652.474 51.1964 652.416 51.6339 652.266 52.0435C652.116 52.4532 651.878 52.8251 651.568 53.133ZM652.975 55.3699C653.933 54.9755 654.755 54.3111 655.34 53.4582C655.925 52.6052 656.248 51.6009 656.268 50.5681C656.303 49.8449 656.142 49.1257 655.803 48.4856C655.463 47.8455 654.957 47.308 654.337 46.9294C653.598 46.4566 652.756 46.1654 651.882 46.0795C651.001 46.0004 650.117 45.9657 649.232 45.9752H643.693V62.9454H647.496V56.0707H649.771L653.664 63.2437L657.601 62.5875L652.975 55.3699Z" fill="#00498B"/>
<path d="M662.242 55.579C662.346 53.357 663.349 52.2386 665.236 52.2386C666.823 52.2386 667.706 53.1482 667.841 54.9825C667.841 55.236 667.841 55.4299 667.841 55.579H662.242ZM670.326 53.208C669.85 52.3138 669.117 51.5811 668.221 51.1031C667.325 50.6251 666.307 50.4233 665.296 50.5237C663.538 50.4586 661.819 51.0488 660.475 52.1789C659.829 52.7303 659.314 53.4177 658.968 54.1913C658.621 54.965 658.45 55.8056 658.469 56.6527C658.446 57.5879 658.638 58.516 659.03 59.3663C659.421 60.2165 660.003 60.9665 660.73 61.5589C662.112 62.681 663.858 63.264 665.64 63.1993C667.485 63.1754 669.298 62.7099 670.925 61.8422L669.922 60.1869C668.85 60.7995 667.639 61.1329 666.404 61.1563C665.305 61.2052 664.231 60.8254 663.409 60.0975C663.008 59.715 662.694 59.2502 662.49 58.7353C662.286 58.2205 662.196 57.6677 662.227 57.115H670.356C670.356 57.115 670.476 57.0106 670.715 56.9062C670.955 56.8018 671.06 56.7422 671.06 56.6974C671.072 55.4999 670.821 54.3142 670.326 53.2229V53.208Z" fill="#00498B"/>
<path d="M682.392 60.0526C682.111 60.4561 681.735 60.7842 681.296 61.0079C680.857 61.2317 680.37 61.344 679.877 61.3351C679.397 61.3412 678.924 61.227 678.5 61.0028C678.076 60.7787 677.716 60.4519 677.452 60.0526C676.79 59.0564 676.465 57.8756 676.524 56.6824C676.46 55.5675 676.777 54.4639 677.422 53.5508C677.71 53.1873 678.079 52.8956 678.5 52.6989C678.921 52.5021 679.382 52.4058 679.847 52.4174C680.333 52.3999 680.816 52.496 681.258 52.6979C681.7 52.8999 682.088 53.2023 682.392 53.5806C683.066 54.4822 683.405 55.5893 683.35 56.7122C683.406 57.9001 683.069 59.0733 682.392 60.0526ZM686.809 45.1401H683.32V52.3876C682.796 51.7807 682.142 51.2984 681.407 50.9759C680.671 50.6533 679.872 50.4988 679.069 50.5235C678.224 50.5008 677.383 50.6502 676.598 50.9624C675.813 51.2746 675.1 51.7429 674.503 52.339C673.906 52.935 673.438 53.6462 673.126 54.4289C672.814 55.2117 672.666 56.0495 672.691 56.8912C672.621 58.4924 673.155 60.0618 674.188 61.2903C674.743 61.9277 675.435 62.4329 676.213 62.7684C676.99 63.1039 677.833 63.2613 678.679 63.229C679.545 63.2181 680.4 63.0282 681.188 62.6714C681.977 62.3146 682.682 61.7986 683.26 61.1561V62.9308H686.719L686.809 45.1401Z" fill="#00498B"/>
<path d="M702.977 62.9454H699.399V61.335C698.798 61.945 698.08 62.4284 697.288 62.7563C696.496 63.0842 695.646 63.2501 694.788 63.2438C693.931 63.3582 693.061 63.2043 692.296 62.8035C691.532 62.4026 690.911 61.7748 690.521 61.0069C690.19 59.9413 690.053 58.8251 690.117 57.7113V50.8365H693.695V57.7709C693.647 58.554 693.79 59.3372 694.114 60.0525C694.358 60.3962 694.688 60.6696 695.072 60.8451C695.456 61.0206 695.879 61.0919 696.3 61.0517C696.854 61.1084 697.413 60.9963 697.902 60.7301C698.391 60.4638 698.788 60.056 699.04 59.5605C699.317 58.859 699.44 58.1061 699.399 57.3533V50.8218H702.977V62.9454Z" fill="#00498B"/>
<path d="M717.273 62.0804C715.838 62.8635 714.224 63.2642 712.588 63.2437C710.726 63.3105 708.905 62.683 707.483 61.4839C706.829 60.9374 706.307 60.2519 705.954 59.4777C705.602 58.7034 705.429 57.8601 705.447 57.0102C705.431 56.1367 705.614 55.2711 705.983 54.4782C706.351 53.6853 706.894 52.9859 707.573 52.4321C709.083 51.1853 711.002 50.5375 712.962 50.6128C714.397 50.5925 715.814 50.9363 717.079 51.6119L716.031 53.3268C715.221 52.9438 714.338 52.7402 713.441 52.7303C712.332 52.7 711.256 53.1074 710.447 53.8637C710.065 54.2584 709.767 54.7261 709.571 55.2388C709.376 55.7514 709.287 56.2982 709.309 56.8462C709.283 57.4195 709.373 57.9922 709.574 58.5302C709.774 59.0682 710.081 59.5604 710.477 59.9777C710.867 60.3706 711.334 60.6794 711.85 60.8846C712.365 61.0899 712.916 61.1873 713.471 61.1708C714.465 61.1375 715.438 60.8773 716.315 60.4103L717.273 62.0804Z" fill="#00498B"/>
<path d="M727.379 62.4983C726.22 62.9766 724.98 63.2297 723.726 63.2439C723.079 63.3007 722.428 63.2032 721.827 62.9594C721.226 62.7156 720.691 62.3325 720.268 61.8421C719.726 60.8918 719.491 59.7985 719.594 58.7105V52.4772H717.753V50.8367H719.654V47.8542L723.232 47.1533V50.7921H726.735V52.4324H723.202V58.0246C723.136 58.8908 723.28 59.7602 723.621 60.5596C723.772 60.8128 723.995 61.0158 724.261 61.1432C724.527 61.2706 724.826 61.3166 725.118 61.2754C725.708 61.27 726.291 61.1379 726.825 60.8878L727.379 62.4983Z" fill="#00498B"/>
<path d="M732.933 47.1084C732.936 47.3553 732.883 47.5999 732.78 47.8242C732.676 48.0485 732.524 48.2471 732.334 48.4058C732.134 48.5908 731.898 48.7337 731.64 48.8259C731.383 48.9182 731.11 48.958 730.837 48.9428C730.292 48.9688 729.757 48.7874 729.34 48.4357C729.149 48.2867 728.995 48.0967 728.889 47.8797C728.782 47.6627 728.727 47.4245 728.726 47.1831C728.719 46.9252 728.765 46.6685 728.863 46.4296C728.961 46.1908 729.108 45.975 729.295 45.7961C729.713 45.4453 730.246 45.2596 730.792 45.2742C731.064 45.2579 731.336 45.2957 731.593 45.3853C731.85 45.4749 732.087 45.6145 732.289 45.7961C732.485 45.9555 732.644 46.1556 732.756 46.3821C732.867 46.6086 732.927 46.8563 732.933 47.1084ZM732.678 62.9455H729.101V50.8365H732.723L732.678 62.9455Z" fill="#00498B"/>
<path d="M744.954 60.2614C744.666 60.647 744.291 60.9602 743.86 61.1759C743.428 61.3917 742.952 61.5041 742.469 61.5041C741.987 61.5041 741.511 61.3917 741.079 61.1759C740.648 60.9602 740.273 60.647 739.984 60.2614C739.332 59.2398 739.018 58.0402 739.086 56.8314C739.022 55.6584 739.342 54.4965 739.999 53.5209C740.271 53.1287 740.636 52.8101 741.062 52.594C741.488 52.3778 741.961 52.2711 742.439 52.2832C742.923 52.2683 743.403 52.3703 743.839 52.5807C744.274 52.7911 744.652 53.1034 744.939 53.4911C745.592 54.479 745.908 55.6506 745.838 56.8314C745.899 58.0374 745.591 59.2335 744.954 60.2614ZM747.529 52.3428C746.162 51.126 744.377 50.48 742.544 50.5384C740.668 50.469 738.833 51.0961 737.395 52.2982C736.753 52.8523 736.242 53.5404 735.898 54.3137C735.554 55.0869 735.385 55.9263 735.403 56.7719C735.375 57.6393 735.538 58.5021 735.879 59.3006C736.22 60.099 736.732 60.8138 737.38 61.3947C738.791 62.6162 740.616 63.2561 742.484 63.1842C744.345 63.2628 746.163 62.6094 747.544 61.3649C748.191 60.7839 748.704 60.0692 749.045 59.2707C749.386 58.4723 749.549 57.6094 749.521 56.742C749.528 55.9089 749.354 55.0841 749.01 54.3246C748.667 53.5651 748.161 52.8888 747.529 52.3428Z" fill="#00498B"/>
<path d="M764.94 62.9457H761.362V56.0265C761.42 55.2476 761.276 54.4669 760.943 53.7597C760.704 53.4094 760.375 53.1292 759.991 52.9482C759.607 52.7673 759.18 52.6921 758.757 52.7307C758.162 52.6571 757.56 52.781 757.043 53.0829C756.526 53.3848 756.124 53.848 755.898 54.4009C755.711 55.06 755.63 55.7445 755.658 56.4289V62.9457H752.05V50.8368H755.658V52.4623C756.256 51.8468 756.972 51.3588 757.765 51.0281C758.558 50.6974 759.41 50.5308 760.269 50.5386C761.128 50.429 762.001 50.5883 762.765 50.9944C763.53 51.4005 764.149 52.0334 764.536 52.8053C764.865 53.8612 765.002 54.9671 764.94 56.0711V62.9457Z" fill="#00498B"/>
<path d="M267 0H0V34H267V0Z" fill="#00498B"/>
<path d="M24.883 18.9537C24.8855 18.987 24.8808 19.0206 24.8687 19.0517C24.8566 19.0828 24.8376 19.1109 24.8132 19.1338C24.7888 19.1567 24.7596 19.1737 24.7276 19.1838C24.6957 19.194 24.6618 19.1969 24.6286 19.1924H17.2931C17.1285 19.1924 17.0534 19.1029 17.0534 18.9537V13.7196C17.0534 13.5854 17.1285 13.5108 17.2931 13.5108H24.6286C24.7933 13.5108 24.883 13.5109 24.883 13.7196V18.9537ZM22.9221 14.9424H18.9846V17.6267V17.7011H22.9221C22.9221 17.7011 23.0116 17.7013 23.0116 17.6267V14.9424C23.0116 14.9424 22.982 14.9424 22.9221 14.9424ZM24.9129 19.5204L25.4221 21.1311C22.7919 21.8055 20.1063 22.2447 17.3977 22.4434L16.9339 20.8178C19.622 20.5813 22.2888 20.1477 24.9129 19.5204ZM34.7337 25.232C34.7337 25.5303 34.554 25.6793 34.2096 25.6793H14.3286C13.9993 25.6793 13.8348 25.5303 13.8348 25.232V8.24669C13.8348 7.97827 13.9993 7.8291 14.3286 7.8291H34.2096C34.554 7.8291 34.7337 7.97827 34.7337 8.24669V25.232ZM28.8354 10.7967C28.6644 10.3203 28.4591 9.85695 28.2214 9.40991H26.8442C26.8442 9.84237 26.9342 10.3046 26.9941 10.7967H28.8354ZM30.3325 9.40991L30.8712 10.7967H31.9341V12.3327H27.2484C27.4932 14.0585 27.8482 15.767 28.3113 17.4478C29.0297 16.13 29.5781 14.727 29.9432 13.2722L31.7696 13.6749C31.1878 15.6674 30.3206 17.5659 29.1947 19.3118C29.1376 19.3706 29.0873 19.4357 29.0448 19.5057C29.2844 20.0873 29.5239 20.6241 29.7784 21.1311C30.0329 21.6381 30.1977 21.8319 30.2576 21.817C30.3174 21.8021 30.452 21.638 30.467 21.3845C30.513 20.6779 30.4882 19.9686 30.3924 19.267L32.2338 19.6249C32.2395 20.8298 32.0523 22.0278 31.6797 23.1741C31.5368 23.4276 31.309 23.6229 31.0361 23.7258C30.8253 23.8041 30.6024 23.8444 30.3774 23.8451C29.8473 23.748 29.3634 23.4809 28.9999 23.0845C28.5492 22.4587 28.1629 21.7893 27.8471 21.0863C27.0159 22.0355 26.1258 22.932 25.1823 23.7706L23.6853 22.7714C24.9869 21.7611 26.1631 20.5997 27.1885 19.3118C26.3572 17.0551 25.7751 14.7149 25.452 12.3327H17.1283V10.8414H25.2423C25.1659 10.3824 25.1162 9.91925 25.0928 9.45451H16.2299C16.0802 9.45451 16.0055 9.45452 16.0055 9.64838V23.9496C16.0055 24.0838 16.0054 24.1434 16.2299 24.1434H32.5781C32.7128 24.1434 32.7875 24.1434 32.7875 23.9496V9.64838C32.7875 9.51417 32.7128 9.45451 32.5781 9.45451L30.3325 9.40991Z" fill="white"/>
<path d="M47.5037 8.64945V7.1582H49.5695V8.64945H58.1326L59.9294 9.42493C59.588 10.9111 59.0861 12.356 58.4323 13.7345L56.606 13.0933C57.1449 11.796 57.4741 10.9458 57.5789 10.573C57.6837 10.2002 57.5042 10.3196 57.3245 10.3196H39.9435C39.8237 10.3196 39.764 10.3196 39.764 10.4837V13.2872H37.7878V8.97748C37.7878 8.75379 37.9225 8.64945 38.177 8.64945H47.5037ZM55.962 13.7793L57.3545 14.9872C56.1309 16.1752 54.7917 17.2392 53.3571 18.1636L52.0398 16.9108C53.4442 16.0104 54.7576 14.9767 55.962 13.824V13.7793ZM49.0008 16.9108C46.0076 18.9784 42.6659 20.4937 39.135 21.3846L38.1621 19.8933C41.7578 19.0561 45.158 17.5372 48.1773 15.4196C47.9675 15.1582 47.7373 14.9139 47.4887 14.6889C44.8476 16.1875 41.9737 17.236 38.9855 17.7908L38.1471 16.2996C41.053 15.7673 43.8634 14.8073 46.4858 13.4512H41.0813V11.796H55.6776V13.4512H49.6144L49.0907 13.7793C49.7625 14.464 50.323 15.249 50.7522 16.1057C52.5687 20.0199 55.8202 23.0933 59.8395 24.6953L58.1626 26.0373C55.7138 24.7297 53.5189 22.9977 51.6806 20.9224C51.6987 22.0965 51.4478 23.2594 50.947 24.3225C50.7656 24.7496 50.4996 25.136 50.1652 25.4587C49.8309 25.7815 49.435 26.0342 49.0008 26.2015C48.4872 26.3809 47.9406 26.447 47.3988 26.3953C46.2351 26.2512 45.0905 25.9812 43.9855 25.59L44.1054 23.7707C45.3869 24.2648 46.7613 24.4733 48.1324 24.382C48.398 24.2638 48.6331 24.0869 48.8198 23.8646C49.0066 23.6424 49.1401 23.3808 49.2102 23.0995C49.5901 22.2044 49.7691 21.2374 49.7343 20.2661C46.3353 22.5849 42.533 24.2537 38.5213 25.1873L37.548 23.6067C41.854 22.6611 45.9262 20.8661 49.5245 18.3276C49.4205 17.8324 49.2442 17.3549 49.0008 16.9108Z" fill="white"/>
<path d="M81.8162 15.211L83.3133 16.4337C81.7529 17.9507 80.0369 19.3001 78.1935 20.46L76.8163 19.1477C78.6037 17.9951 80.2776 16.6771 81.8162 15.211ZM62.145 16.5233L63.7316 15.3004C65.4239 16.6176 67.0294 18.0422 68.5375 19.5653L66.8756 20.6837C65.4005 19.1861 63.8197 17.7958 62.145 16.5233ZM64.675 7.12835L66.5163 8.06784C65.8243 9.13831 65.0268 10.1374 64.1358 11.0503C64.1358 11.0503 64.1358 11.0503 64.1358 11.1845C65.1282 11.9572 66.0411 12.8264 66.8606 13.7792L65.1991 14.9872C64.2888 13.6844 63.1944 12.5191 61.9502 11.5275C61.7406 11.1795 61.7406 10.9112 61.9502 10.7223C63.0768 9.70531 64.0013 8.48605 64.675 7.12835ZM72.8339 7.12835L74.6602 8.06784C73.9377 9.145 73.105 10.1445 72.1752 11.0503C72.1673 11.0666 72.1632 11.0845 72.1632 11.1026C72.1632 11.1207 72.1673 11.1384 72.1752 11.1546C73.0606 11.7737 73.8783 12.4835 74.6153 13.2723L72.9987 14.495C72.1562 13.3572 71.1469 12.3518 70.0046 11.5125C69.765 11.1546 69.78 10.8714 70.0046 10.6775C71.1681 9.65764 72.1279 8.42814 72.8339 7.05371V7.12835ZM80.3192 7.12835L82.1605 8.06784C81.4939 9.05827 80.7208 9.97327 79.855 10.7968C79.855 10.7968 79.855 10.7969 79.855 10.9162C80.8158 11.644 81.6988 12.4684 82.4898 13.3766L80.8583 14.5697C79.9798 13.3169 78.9086 12.2098 77.6843 11.289C77.4747 10.9311 77.4747 10.6476 77.6843 10.4389C78.7704 9.5203 79.6611 8.39476 80.3042 7.12835H80.3192ZM73.7322 15.6284C73.7788 16.6667 73.9392 17.697 74.211 18.7004C75.1542 21.1908 78.4328 23.1742 84.0318 24.6654L82.5348 26.1567L81.5169 25.8583C76.5267 24.1285 73.4875 22.1401 72.3997 19.8933C72.0503 20.4202 71.7061 20.9173 71.3668 21.3846C68.9105 23.7465 65.8412 25.3785 62.5043 26.097L61.486 24.3523C63.312 23.875 65.0948 23.2465 66.8156 22.4733C68.2266 21.8888 69.4305 20.8983 70.2732 19.6285C71.1159 18.3587 71.5595 16.8673 71.5466 15.3451H73.6873C73.722 15.4353 73.7324 15.533 73.7173 15.6284H73.7322Z" fill="white"/>
<path d="M95.9933 8.58979V7.21777H98.0445V8.58979H106.428L108.225 9.33541C108.065 10.697 107.722 12.0312 107.206 13.3022L105.335 12.8099C105.591 12.0684 105.777 11.3047 105.889 10.5285C105.889 10.3495 105.814 10.26 105.62 10.26H88.4331C88.3133 10.26 88.2536 10.3047 88.2536 10.3941V13.3766H86.2924V8.90289C86.2924 8.6792 86.4122 8.57486 86.6667 8.57486L95.9933 8.58979ZM98.0445 17.5373H107.895V19.1925H86.098V17.5373H95.9933V16.3145H88.508V14.6443H95.9933V13.511H89.1221V11.8259H95.9933V10.6328H98.0445V11.8259H104.856V13.511H98.0445V14.6443H105.53V16.3145H98.0445V17.5373ZM105.62 25.605C105.62 25.769 105.515 25.8584 105.32 25.8584H88.7028C88.5082 25.8584 88.4185 25.769 88.4185 25.605V20.4155C88.4185 20.2514 88.5082 20.1768 88.7028 20.1768H105.32C105.515 20.1768 105.62 20.1769 105.62 20.4155V25.605ZM103.464 21.847H90.4842C90.4842 21.847 90.3944 21.847 90.4093 21.847V24.0242C90.4093 24.0242 90.4094 24.0242 90.4842 24.1137H103.404C103.404 24.1137 103.509 24.1136 103.509 24.0242V21.847C103.509 21.847 103.524 21.8768 103.464 21.8768V21.847Z" fill="white"/>
<path d="M112.835 21.7573V26.231H110.769V8.06775C110.744 8.00043 110.744 7.92627 110.769 7.85895C110.843 7.83861 110.92 7.83861 110.994 7.85895H116.803L118.18 8.64936L116.144 13.6749C116.104 13.7137 116.072 13.7602 116.051 13.8114C116.029 13.8626 116.018 13.9175 116.018 13.973C116.018 14.0286 116.029 14.0836 116.051 14.1349C116.072 14.1861 116.104 14.2325 116.144 14.2714C116.935 15.0663 117.57 16.002 118.015 17.0302C118.269 17.6228 118.384 18.2655 118.35 18.9091C118.317 19.5528 118.135 20.1803 117.821 20.7433C117.45 21.2548 116.926 21.6359 116.323 21.8319C115.169 22.0593 113.979 22.0338 112.835 21.7573ZM115.47 9.33527H112.94H112.82C112.81 9.36422 112.81 9.39589 112.82 9.42483V19.8636C113.638 20.1668 114.522 20.2439 115.38 20.0871C115.542 20.055 115.695 19.9892 115.829 19.8941C115.963 19.7991 116.075 19.6768 116.159 19.5353C116.344 19.2074 116.442 18.8379 116.443 18.4617C116.443 17.5222 115.65 16.0758 114.033 14.0924C114.033 13.9881 114.033 13.8836 114.033 13.809L115.754 9.58885C115.934 9.43972 115.799 9.3502 115.47 9.3502V9.33527ZM122.821 15.6581C122.806 15.7017 122.806 15.7488 122.821 15.7923C122.792 17.8414 122.278 19.8549 121.321 21.6688C120.364 23.4827 118.99 25.0458 117.311 26.231L115.515 25.0083C118.943 23.0398 120.725 19.6546 120.815 14.8528V11.7959H118.3V10.051H124.033V7.27734H126.084V10.051H132.237V11.7959H122.865V13.973H130.995C131.136 13.9757 131.274 14.0116 131.399 14.0775C131.511 14.1294 131.601 14.2191 131.653 14.3309C131.653 14.3309 131.653 15.688 131.653 18.2529C131.564 21.6231 131.279 23.696 130.8 24.4715C130.448 25.1326 129.884 25.6575 129.198 25.9627C128.001 26.5145 125.875 26.3206 122.851 25.396L122.97 23.3381C125.47 24.2925 127.162 24.5907 128.001 24.2328C128.45 23.9978 128.824 23.6412 129.078 23.2039C129.426 22.3575 129.594 21.4487 129.573 20.5346C129.752 18.9888 129.752 17.4276 129.573 15.8819C129.545 15.84 129.507 15.8058 129.463 15.7823C129.418 15.7588 129.368 15.747 129.318 15.7477L122.821 15.6581Z" fill="white"/>
<path d="M134.812 13.6002L136.489 12.9292C137.209 14.0231 137.864 15.1584 138.45 16.3293L136.728 16.8661C136.181 15.7269 135.54 14.6344 134.812 13.6002ZM139.393 17.9099V11.945H134.573V10.3643H139.393V7.38183H141.384V10.3643H146.16V11.945H141.384V24.2627C141.38 24.6118 141.279 24.9532 141.095 25.25C140.91 25.5469 140.648 25.7881 140.336 25.9478C138.944 26.35 137.456 26.2711 136.115 25.7241L136.22 23.9942C136.708 24.165 137.208 24.2996 137.717 24.3968C138.2 24.5737 138.73 24.5737 139.214 24.3968C139.29 24.3314 139.349 24.2482 139.386 24.1545C139.422 24.0609 139.435 23.9598 139.423 23.86V20.2513C139.394 20.2608 139.367 20.2763 139.343 20.2968C139.32 20.3173 139.302 20.3425 139.289 20.3705C138.151 21.2355 136.908 22.0705 135.576 22.8907L134.153 21.7127C136.034 20.639 137.791 19.3638 139.393 17.9099ZM144.019 12.8695L145.741 13.5258C145.195 14.7442 144.518 15.8993 143.72 16.9704L142.073 16.2099C142.843 15.1709 143.495 14.0507 144.019 12.8695ZM141.819 18.8345L143.316 17.8206C144.677 19.02 145.902 20.3652 146.968 21.8319L145.471 22.7416C144.394 21.2927 143.17 19.9586 141.819 18.7601V18.8345ZM142.687 8.39578L144.019 7.27734C144.787 7.80533 145.49 8.42089 146.115 9.11155L144.723 10.2001C144.111 9.48717 143.43 8.83776 142.687 8.26162V8.39578ZM150.172 20.7135C149.24 19.1419 148.606 17.4131 148.301 15.6134C148.232 15.3639 148.182 15.1097 148.151 14.8528C147.847 15.4173 147.475 15.9432 147.043 16.4187L145.217 15.9416C147.052 13.921 148.051 11.2841 148.016 8.55979V7.42643H149.888V8.55979C149.888 8.78348 149.887 9.02205 149.813 9.27556H156.609V10.9161H155.427V11.3633C155.447 14.7725 154.4 18.1032 152.432 20.8924C153.766 22.4753 155.273 23.9057 156.924 25.1574L155.008 26.1267C153.683 24.9356 152.447 23.6498 151.31 22.2794C149.658 24.0207 147.693 25.4371 145.516 26.4548L144.019 25.068C146.398 24.0559 148.517 22.5215 150.217 20.5793L150.172 20.7135ZM153.466 11.3633V10.9161H149.858C149.619 13.7435 150.136 16.5832 151.355 19.1476C152.775 16.7493 153.52 14.0138 153.511 11.2292L153.466 11.3633Z" fill="white"/>
<path d="M164.709 17.179V26.2308H162.643V17.6414C161.948 18.9536 161.115 20.1883 160.158 21.3247L158.241 20.6685C159.988 18.8732 161.366 16.756 162.298 14.4351H158.72V12.6903H162.643V9.70783C161.654 9.82713 160.607 9.90175 159.499 9.9614L159.214 8.20165C161.978 8.04464 164.726 7.67572 167.433 7.09814L167.807 8.81311C166.849 9.05171 165.816 9.26039 164.709 9.45425V12.6754H168.122V14.4202H164.709V14.6885C166.108 16.0271 167.432 17.441 168.676 18.9238L167.074 19.9825C166.4 19.1176 165.607 18.1781 164.709 17.179ZM169.828 9.34994L171.415 8.24643C173.841 10.5579 175.248 11.9446 175.637 12.4367L173.99 13.421C172.749 11.9237 171.354 10.5593 169.828 9.34994ZM168.811 14.3456L170.308 13.1973C172.284 14.8824 173.646 16.1799 174.395 16.8957L172.793 17.9545C171.545 16.6531 170.188 15.4606 168.736 14.3904L168.811 14.3456ZM176.55 21.086L167.463 22.3834L166.954 20.6834L176.55 19.3412V7.24723H178.601V19.058L180.832 18.7299L181.161 20.43L178.601 20.8028V26.0817H176.55V21.086Z" fill="white"/>
<path d="M185.832 17.5071V12.8395H183.033V11.0948H185.832V7.3667H187.883V11.0948H190.159V12.8395H187.883V16.523L189.38 15.6132L190.637 16.9852C189.805 17.4884 188.945 17.9464 188.063 18.3572L187.838 18.4466V24.2625C187.838 24.6279 187.736 24.986 187.542 25.2968C187.349 25.6076 187.074 25.8589 186.745 26.0222C185.59 26.3404 184.361 26.2615 183.257 25.7985L183.392 23.994C183.955 24.2216 184.543 24.3819 185.143 24.4713C185.218 24.4889 185.295 24.49 185.37 24.4745C185.445 24.4591 185.516 24.4273 185.578 24.3817C185.653 24.303 185.711 24.2092 185.748 24.1063C185.784 24.0034 185.797 23.8939 185.787 23.7853V19.3116L183.631 20.1615L182.494 18.6703C183.811 18.2975 184.919 17.865 185.832 17.5071ZM197.21 22.8905C194.836 24.4109 192.21 25.5014 189.455 26.1116L188.167 24.531C190.794 24.0067 193.321 23.0704 195.653 21.7571C194.006 20.4224 192.502 18.9233 191.162 17.2833L192.838 16.2694C194.098 17.9117 195.533 19.4119 197.12 20.7431C198.713 19.3332 200.068 17.6765 201.132 15.8369C201.282 15.5386 201.132 15.4044 200.863 15.4193H191.252V13.6746H195.743V11.0053H190.293V9.26043H195.743V7.3667H197.793V9.26043H204.426V11.0053H197.793V13.6746H203.108L203.947 14.2563C203.936 14.3204 203.936 14.3859 203.947 14.4501C202.888 17.3509 201.081 19.9226 198.707 21.9064C200.793 23.1292 203.019 24.0955 205.339 24.7844L203.947 26.3652C201.577 25.4623 199.317 24.2967 197.21 22.8905Z" fill="white"/>
<path d="M228.738 20.7431C228.738 21.0563 228.543 21.2053 228.169 21.2053H219.231V26.1414H217.076V21.28H208.093C207.734 21.28 207.554 21.1308 207.554 20.8176V10.558C207.554 10.2448 207.749 10.0807 208.093 10.0807H217.076V7.3667H219.231V10.0807H228.214C228.588 10.0807 228.783 10.2597 228.783 10.558L228.738 20.7431ZM226.343 11.7957H219.231V19.3413H226.298C226.462 19.3413 226.537 19.3413 226.537 19.1474V11.9746C226.582 11.915 226.507 11.8554 226.343 11.8554V11.7957ZM217.121 11.7957H209.95C209.785 11.7957 209.71 11.7957 209.71 11.9746V19.1474C209.71 19.2667 209.785 19.3413 209.95 19.3413H217.121V11.7957Z" fill="white"/>
<path d="M232.81 10.424L234.891 10.5434C234.88 15.0142 234.317 19.4666 233.214 23.8004L231.148 23.5769C232.183 19.2663 232.741 14.8556 232.81 10.424ZM237.016 8.60471H239.172V22.9505C239.142 23.2438 239.199 23.5396 239.337 23.8004C239.672 24.0629 240.096 24.1859 240.52 24.1436H245.729C246.003 24.1788 246.28 24.1499 246.54 24.0593C246.8 23.9687 247.035 23.8187 247.226 23.6215C247.4 23.3946 247.513 23.1281 247.556 22.8462C247.624 21.6392 247.624 20.4293 247.556 19.2224L249.712 19.5058C249.859 20.9935 249.859 22.4919 249.712 23.9796C249.624 24.415 249.417 24.8175 249.113 25.1426C248.833 25.4422 248.484 25.6678 248.095 25.7988C247.601 25.8875 247.1 25.9274 246.598 25.9181H239.771C239.254 25.9159 238.744 25.8041 238.274 25.59C237.891 25.3269 237.59 24.9632 237.402 24.5393C237.214 24.1155 237.148 23.6481 237.211 23.1892L237.016 8.60471ZM241.163 7.59059L243.199 7.21777C244.568 11.1245 245.433 15.1884 245.774 19.3119L243.724 19.5952C243.317 15.5119 242.459 11.4858 241.163 7.59059ZM248.649 9.99165L250.67 9.61884C252.242 13.9871 253.248 18.5373 253.664 23.1593L251.613 23.4425C251.134 18.861 250.135 14.3485 248.634 9.99165H248.649Z" fill="white"/>
<mask id="path-66-outside-1_77_868" maskUnits="userSpaceOnUse" x="275" y="4" width="200" height="27" fill="black">
<rect fill="white" x="275" y="4" width="200" height="27"/>
<path d="M296.63 6.15965C298.013 7.02265 299.621 8.31715 300.383 9.20712L301.597 8.0205C300.806 7.13053 299.17 5.91694 297.787 5.13484L296.63 6.15965ZM287.768 17.0011V18.5653H291.804V22.6915H287.768V24.2826H293.328V17.0011H287.768ZM299.367 13.5491C297.843 20.3182 294.767 25.3344 289.546 28.274C289.941 28.6246 290.675 29.2988 290.985 29.6494C296.235 26.3323 299.508 21.1273 301.23 13.8727L299.367 13.5491ZM283.62 9.315V16.5965C283.62 20.2643 283.366 25.2535 280.826 28.8134C281.277 29.0291 282.096 29.5415 282.434 29.8921C285.087 26.1165 285.511 20.534 285.511 16.5965V9.315H283.62ZM284.777 9.315V11.1489H301.681V9.315H284.777ZM286.696 13.3064V14.8706H293.469V13.3064H286.696ZM286.893 17.0011V25.9277H288.417V17.0011H286.893ZM277.355 6.69903C279.02 7.48112 280.995 8.69472 281.955 9.58468L283.225 7.96656C282.209 7.07659 280.205 5.9439 278.568 5.26969L277.355 6.69903ZM276 14.0076C277.665 14.7087 279.697 15.8414 280.685 16.7044L281.898 15.0593C280.882 14.1963 278.85 13.1446 277.185 12.5243L276 14.0076ZM276.452 28.247L278.342 29.3258C279.584 26.7368 281.052 23.2578 282.124 20.3182L280.431 19.2395C279.274 22.3948 277.609 26.0895 276.452 28.247ZM293.836 5.26969C294.231 18.9159 295.557 29.7303 299.819 29.8382C300.863 29.8382 301.907 28.6785 302.471 24.2826C302.105 24.1208 301.258 23.6624 300.919 23.2578C300.694 25.9547 300.327 27.4649 299.819 27.438C297.533 27.3301 296.009 17.028 295.783 5.26969H293.836Z"/>
<path d="M318.614 16.165L316.639 16.3538C317.937 24.6063 320.9 28.6246 329.733 29.9191C329.987 29.3528 330.523 28.4898 330.975 28.0313C322.593 27.1143 319.63 23.4466 318.614 16.165ZM316.497 15.2751C315.989 21.9094 314.861 26.1704 304.927 28.0313C305.378 28.4898 305.914 29.3258 306.112 29.8382C316.639 27.6807 318.191 22.7454 318.84 15.2751H316.497ZM310.402 5C309.499 6.2945 307.749 8.29018 306.168 9.93528C308.116 11.7422 309.95 13.8457 310.853 15.2481L312.857 14.4121C311.982 13.1985 310.289 11.3646 308.68 9.88134C309.95 8.55987 311.446 6.99569 312.518 5.62028L310.402 5ZM318.473 5C317.513 6.24056 315.764 8.18231 314.127 9.77346C316.131 11.5264 318.05 13.5761 318.981 14.9515L320.985 14.1154C320.082 12.9558 318.332 11.1489 316.695 9.74649C317.993 8.47896 319.489 6.96872 320.618 5.62028L318.473 5ZM326.742 5C325.726 6.2945 323.779 8.34412 322.001 9.98921C324.23 11.8231 326.375 13.9536 327.419 15.383L329.395 14.493C328.379 13.2794 326.46 11.3916 324.653 9.96224C326.064 8.64078 327.701 7.04962 328.887 5.64725L326.742 5ZM310.232 16.7314C309.47 18.754 308.088 20.8846 306.084 22.1251L307.834 23.2578C309.95 21.8554 311.22 19.5631 312.067 17.4056L310.232 16.7314ZM326.77 16.7044C325.895 18.4574 324.315 20.8306 323.045 22.3409L324.879 22.9612C326.149 21.5049 327.758 19.3204 328.999 17.3517L326.77 16.7044Z"/>
<path d="M347.569 10.7443V12.3355H355.217V10.7443H347.569ZM347.287 14.9245V16.5156H355.612V14.9245H347.287ZM350.476 8.452V15.8414H352.197V8.452H350.476ZM345.227 6.13269V7.91262H357.559V6.13269H345.227ZM348.585 18.5653V20.1025H353.411V23.986H348.585V25.5502H355.048V18.5653H348.585ZM347.71 18.5653V26.6019H349.319V18.5653H347.71ZM356.769 6.13269V27.2762C356.769 27.7077 356.656 27.8155 356.233 27.8155C355.753 27.8425 354.286 27.8695 352.733 27.7886C353.044 28.3549 353.298 29.2718 353.383 29.8112C355.499 29.8112 356.91 29.7843 357.7 29.4337C358.491 29.11 358.745 28.4628 358.745 27.2762V6.13269H356.769ZM344.154 6.13269V15.8145C344.154 19.8058 343.985 25.1187 341.755 28.8673C342.235 29.0831 343.082 29.6494 343.42 30C345.791 26.0086 346.101 20.0485 346.101 15.8145V6.13269H344.154ZM334.757 13.1715V14.7896H342.009V13.1715H334.757ZM334.926 5.97087V7.589H341.925V5.97087H334.926ZM334.757 16.7853V18.4035H342.009V16.7853H334.757ZM333.599 9.50378V11.1758H342.715V9.50378H333.599ZM335.744 20.4261V22.0982H340.203V26.6019H335.744V28.274H341.981V20.4261H335.744ZM334.7 20.4261V29.5415H336.45V20.4261H334.7Z"/>
<path d="M368.227 15.6526H362.611V17.5405H366.195V25.1996H368.227V15.6526ZM368.227 24.3905H366.393C365.066 25.5502 363.542 26.7638 362.3 27.6268L363.401 29.5955C364.812 28.4088 366.11 27.2492 367.352 26.0895C369.102 28.2201 371.67 29.164 375.395 29.2988C378.556 29.4337 384.595 29.3797 387.784 29.2449C387.869 28.6516 388.208 27.7077 388.462 27.2492C385.047 27.4649 378.528 27.5458 375.395 27.411C372.037 27.3031 369.553 26.3862 368.227 24.3905ZM362.865 6.8069C364.586 8.12837 366.534 10.0162 367.324 11.3646L369.074 10.0971C368.199 8.77562 366.223 6.91478 364.474 5.70119L362.865 6.8069ZM369.836 7.29234V8.93743H388.01V7.29234H369.836ZM373.786 15.1672V16.5156H383.89V15.1672H373.786ZM377.709 5V8.29018H379.741V5H377.709ZM377.991 13.1715V18.8889H379.628V13.1715H377.991ZM370.851 11.6882V25.8199H372.799V13.3064H385.809V11.6882H370.851ZM375.056 18.4574V24.4175H376.637V18.4574H375.056ZM375.903 18.4574V19.7519H381.096V22.0982H375.903V23.3657H382.676V18.4574H375.903ZM385.047 11.6882V23.6354C385.047 23.959 384.934 24.0399 384.595 24.0669C384.228 24.0938 383.128 24.0939 381.858 24.0399C382.112 24.5523 382.394 25.2805 382.507 25.7929C384.172 25.7929 385.329 25.7659 386.091 25.4693C386.825 25.1456 386.994 24.6602 386.994 23.6624V11.6882H385.047ZM382.366 8.58684C382.055 9.44984 381.406 10.7713 380.926 11.6343L382.62 12.0928C383.156 11.3107 383.749 10.205 384.369 9.09925L382.366 8.58684ZM373.363 9.15318C373.928 10.0701 374.464 11.2567 374.633 12.0658L376.468 11.5804C376.298 10.7713 375.734 9.58468 375.141 8.72168L373.363 9.15318Z"/>
<path d="M396.505 6.64509V8.69471H404.491V6.64509H396.505ZM403.419 6.64509C403.419 11.7152 404.35 23.2039 415.639 29.7303C416.034 29.2449 416.88 28.3819 417.36 28.0313C406.213 21.7206 405.592 11.4725 405.592 6.64509H403.419ZM402.629 11.931C400.907 19.5631 397.379 25.0108 391.114 28.1392C391.679 28.5167 392.638 29.3528 393.033 29.7843C399.27 26.2783 402.995 20.5879 405.027 12.3625L402.629 11.931Z"/>
<path d="M422.44 7.83172V29.164H424.641V9.88134H441.32V29.0291H443.606V7.83172H422.44ZM423.428 24.7681V26.8447H442.9V24.7681H423.428Z"/>
<path d="M465.59 14.6818V18.1338H467.424V14.6818H465.59ZM468.948 8.91046C468.638 10.0701 467.961 11.7961 467.453 12.8749L468.751 13.3333C469.315 12.3355 470.021 10.7713 470.67 9.44984L468.948 8.91046ZM462.655 9.55771C463.219 10.7174 463.756 12.3085 463.897 13.3064L465.364 12.794C465.195 11.8231 464.659 10.2589 464.01 9.09925L462.655 9.55771ZM459.325 6.2945V29.8652H461.244V8.1014H472.843V6.2945H459.325ZM472.053 6.2945V27.5458C472.053 27.9234 471.94 28.0313 471.545 28.0583C471.178 28.0583 469.908 28.0852 468.638 28.0313C468.892 28.5437 469.174 29.3528 469.231 29.8382C471.065 29.8382 472.279 29.7843 473.012 29.5146C473.774 29.1909 474 28.6516 474 27.5458V6.2945H472.053ZM462.316 13.2524V14.8436H470.952V13.2524H462.316ZM462.091 17.6753V19.2665H471.121V17.6753H462.091ZM463.276 18.5653V23.069C463.276 25.0108 463.727 25.658 465.731 25.658C466.098 25.658 468.525 25.658 469.033 25.658C469.71 25.658 470.359 25.658 470.726 25.5232C470.67 25.1187 470.613 24.3635 470.557 23.9051C470.19 23.986 469.428 24.0129 469.005 24.0129C468.525 24.0129 466.239 24.0129 465.731 24.0129C465.195 24.0129 465.11 23.7972 465.11 23.096V18.5653H463.276ZM453.201 5.02697C452.467 6.8069 451.141 9.44984 450.125 11.014L451.564 11.6073C452.665 10.1241 453.991 7.69687 455.064 5.70119L453.201 5.02697ZM456.362 8.1014C454.81 10.9331 452.157 14.9515 450.04 17.3517L451.338 18.0529C453.455 15.7066 456.192 11.877 458.14 8.88349L456.362 8.1014ZM448.686 10.6365C450.181 12.0119 451.875 13.9266 452.58 15.2211L453.794 13.7109C453.06 12.4703 451.338 10.6634 449.814 9.34196L448.686 10.6365ZM455.261 14.2772C456.39 16.0572 457.491 18.4574 457.857 19.9676L459.523 19.2395C459.127 17.7562 457.97 15.4369 456.785 13.657L455.261 14.2772ZM448.46 16.9471L448.686 18.754C451.254 18.5922 454.64 18.4035 457.999 18.1877V16.4887C454.443 16.6775 450.915 16.8393 448.46 16.9471ZM455.995 20.8037C456.672 22.3679 457.265 24.4175 457.434 25.7389L459.071 25.2535C458.873 23.932 458.281 21.9094 457.547 20.3452L455.995 20.8037ZM450.153 20.4261C449.843 22.7724 449.306 25.1996 448.403 26.8447C448.827 27.0334 449.673 27.384 450.012 27.5998C450.915 25.8738 451.564 23.2848 451.931 20.7228L450.153 20.4261ZM453.145 17.7292V29.8112H455.007V17.7292H453.145Z"/>
</mask>
<path d="M296.63 6.15965C298.013 7.02265 299.621 8.31715 300.383 9.20712L301.597 8.0205C300.806 7.13053 299.17 5.91694 297.787 5.13484L296.63 6.15965ZM287.768 17.0011V18.5653H291.804V22.6915H287.768V24.2826H293.328V17.0011H287.768ZM299.367 13.5491C297.843 20.3182 294.767 25.3344 289.546 28.274C289.941 28.6246 290.675 29.2988 290.985 29.6494C296.235 26.3323 299.508 21.1273 301.23 13.8727L299.367 13.5491ZM283.62 9.315V16.5965C283.62 20.2643 283.366 25.2535 280.826 28.8134C281.277 29.0291 282.096 29.5415 282.434 29.8921C285.087 26.1165 285.511 20.534 285.511 16.5965V9.315H283.62ZM284.777 9.315V11.1489H301.681V9.315H284.777ZM286.696 13.3064V14.8706H293.469V13.3064H286.696ZM286.893 17.0011V25.9277H288.417V17.0011H286.893ZM277.355 6.69903C279.02 7.48112 280.995 8.69472 281.955 9.58468L283.225 7.96656C282.209 7.07659 280.205 5.9439 278.568 5.26969L277.355 6.69903ZM276 14.0076C277.665 14.7087 279.697 15.8414 280.685 16.7044L281.898 15.0593C280.882 14.1963 278.85 13.1446 277.185 12.5243L276 14.0076ZM276.452 28.247L278.342 29.3258C279.584 26.7368 281.052 23.2578 282.124 20.3182L280.431 19.2395C279.274 22.3948 277.609 26.0895 276.452 28.247ZM293.836 5.26969C294.231 18.9159 295.557 29.7303 299.819 29.8382C300.863 29.8382 301.907 28.6785 302.471 24.2826C302.105 24.1208 301.258 23.6624 300.919 23.2578C300.694 25.9547 300.327 27.4649 299.819 27.438C297.533 27.3301 296.009 17.028 295.783 5.26969H293.836Z" fill="#00498B"/>
<path d="M318.614 16.165L316.639 16.3538C317.937 24.6063 320.9 28.6246 329.733 29.9191C329.987 29.3528 330.523 28.4898 330.975 28.0313C322.593 27.1143 319.63 23.4466 318.614 16.165ZM316.497 15.2751C315.989 21.9094 314.861 26.1704 304.927 28.0313C305.378 28.4898 305.914 29.3258 306.112 29.8382C316.639 27.6807 318.191 22.7454 318.84 15.2751H316.497ZM310.402 5C309.499 6.2945 307.749 8.29018 306.168 9.93528C308.116 11.7422 309.95 13.8457 310.853 15.2481L312.857 14.4121C311.982 13.1985 310.289 11.3646 308.68 9.88134C309.95 8.55987 311.446 6.99569 312.518 5.62028L310.402 5ZM318.473 5C317.513 6.24056 315.764 8.18231 314.127 9.77346C316.131 11.5264 318.05 13.5761 318.981 14.9515L320.985 14.1154C320.082 12.9558 318.332 11.1489 316.695 9.74649C317.993 8.47896 319.489 6.96872 320.618 5.62028L318.473 5ZM326.742 5C325.726 6.2945 323.779 8.34412 322.001 9.98921C324.23 11.8231 326.375 13.9536 327.419 15.383L329.395 14.493C328.379 13.2794 326.46 11.3916 324.653 9.96224C326.064 8.64078 327.701 7.04962 328.887 5.64725L326.742 5ZM310.232 16.7314C309.47 18.754 308.088 20.8846 306.084 22.1251L307.834 23.2578C309.95 21.8554 311.22 19.5631 312.067 17.4056L310.232 16.7314ZM326.77 16.7044C325.895 18.4574 324.315 20.8306 323.045 22.3409L324.879 22.9612C326.149 21.5049 327.758 19.3204 328.999 17.3517L326.77 16.7044Z" fill="#00498B"/>
<path d="M347.569 10.7443V12.3355H355.217V10.7443H347.569ZM347.287 14.9245V16.5156H355.612V14.9245H347.287ZM350.476 8.452V15.8414H352.197V8.452H350.476ZM345.227 6.13269V7.91262H357.559V6.13269H345.227ZM348.585 18.5653V20.1025H353.411V23.986H348.585V25.5502H355.048V18.5653H348.585ZM347.71 18.5653V26.6019H349.319V18.5653H347.71ZM356.769 6.13269V27.2762C356.769 27.7077 356.656 27.8155 356.233 27.8155C355.753 27.8425 354.286 27.8695 352.733 27.7886C353.044 28.3549 353.298 29.2718 353.383 29.8112C355.499 29.8112 356.91 29.7843 357.7 29.4337C358.491 29.11 358.745 28.4628 358.745 27.2762V6.13269H356.769ZM344.154 6.13269V15.8145C344.154 19.8058 343.985 25.1187 341.755 28.8673C342.235 29.0831 343.082 29.6494 343.42 30C345.791 26.0086 346.101 20.0485 346.101 15.8145V6.13269H344.154ZM334.757 13.1715V14.7896H342.009V13.1715H334.757ZM334.926 5.97087V7.589H341.925V5.97087H334.926ZM334.757 16.7853V18.4035H342.009V16.7853H334.757ZM333.599 9.50378V11.1758H342.715V9.50378H333.599ZM335.744 20.4261V22.0982H340.203V26.6019H335.744V28.274H341.981V20.4261H335.744ZM334.7 20.4261V29.5415H336.45V20.4261H334.7Z" fill="#00498B"/>
<path d="M368.227 15.6526H362.611V17.5405H366.195V25.1996H368.227V15.6526ZM368.227 24.3905H366.393C365.066 25.5502 363.542 26.7638 362.3 27.6268L363.401 29.5955C364.812 28.4088 366.11 27.2492 367.352 26.0895C369.102 28.2201 371.67 29.164 375.395 29.2988C378.556 29.4337 384.595 29.3797 387.784 29.2449C387.869 28.6516 388.208 27.7077 388.462 27.2492C385.047 27.4649 378.528 27.5458 375.395 27.411C372.037 27.3031 369.553 26.3862 368.227 24.3905ZM362.865 6.8069C364.586 8.12837 366.534 10.0162 367.324 11.3646L369.074 10.0971C368.199 8.77562 366.223 6.91478 364.474 5.70119L362.865 6.8069ZM369.836 7.29234V8.93743H388.01V7.29234H369.836ZM373.786 15.1672V16.5156H383.89V15.1672H373.786ZM377.709 5V8.29018H379.741V5H377.709ZM377.991 13.1715V18.8889H379.628V13.1715H377.991ZM370.851 11.6882V25.8199H372.799V13.3064H385.809V11.6882H370.851ZM375.056 18.4574V24.4175H376.637V18.4574H375.056ZM375.903 18.4574V19.7519H381.096V22.0982H375.903V23.3657H382.676V18.4574H375.903ZM385.047 11.6882V23.6354C385.047 23.959 384.934 24.0399 384.595 24.0669C384.228 24.0938 383.128 24.0939 381.858 24.0399C382.112 24.5523 382.394 25.2805 382.507 25.7929C384.172 25.7929 385.329 25.7659 386.091 25.4693C386.825 25.1456 386.994 24.6602 386.994 23.6624V11.6882H385.047ZM382.366 8.58684C382.055 9.44984 381.406 10.7713 380.926 11.6343L382.62 12.0928C383.156 11.3107 383.749 10.205 384.369 9.09925L382.366 8.58684ZM373.363 9.15318C373.928 10.0701 374.464 11.2567 374.633 12.0658L376.468 11.5804C376.298 10.7713 375.734 9.58468 375.141 8.72168L373.363 9.15318Z" fill="#00498B"/>
<path d="M396.505 6.64509V8.69471H404.491V6.64509H396.505ZM403.419 6.64509C403.419 11.7152 404.35 23.2039 415.639 29.7303C416.034 29.2449 416.88 28.3819 417.36 28.0313C406.213 21.7206 405.592 11.4725 405.592 6.64509H403.419ZM402.629 11.931C400.907 19.5631 397.379 25.0108 391.114 28.1392C391.679 28.5167 392.638 29.3528 393.033 29.7843C399.27 26.2783 402.995 20.5879 405.027 12.3625L402.629 11.931Z" fill="#00498B"/>
<path d="M422.44 7.83172V29.164H424.641V9.88134H441.32V29.0291H443.606V7.83172H422.44ZM423.428 24.7681V26.8447H442.9V24.7681H423.428Z" fill="#00498B"/>
<path d="M465.59 14.6818V18.1338H467.424V14.6818H465.59ZM468.948 8.91046C468.638 10.0701 467.961 11.7961 467.453 12.8749L468.751 13.3333C469.315 12.3355 470.021 10.7713 470.67 9.44984L468.948 8.91046ZM462.655 9.55771C463.219 10.7174 463.756 12.3085 463.897 13.3064L465.364 12.794C465.195 11.8231 464.659 10.2589 464.01 9.09925L462.655 9.55771ZM459.325 6.2945V29.8652H461.244V8.1014H472.843V6.2945H459.325ZM472.053 6.2945V27.5458C472.053 27.9234 471.94 28.0313 471.545 28.0583C471.178 28.0583 469.908 28.0852 468.638 28.0313C468.892 28.5437 469.174 29.3528 469.231 29.8382C471.065 29.8382 472.279 29.7843 473.012 29.5146C473.774 29.1909 474 28.6516 474 27.5458V6.2945H472.053ZM462.316 13.2524V14.8436H470.952V13.2524H462.316ZM462.091 17.6753V19.2665H471.121V17.6753H462.091ZM463.276 18.5653V23.069C463.276 25.0108 463.727 25.658 465.731 25.658C466.098 25.658 468.525 25.658 469.033 25.658C469.71 25.658 470.359 25.658 470.726 25.5232C470.67 25.1187 470.613 24.3635 470.557 23.9051C470.19 23.986 469.428 24.0129 469.005 24.0129C468.525 24.0129 466.239 24.0129 465.731 24.0129C465.195 24.0129 465.11 23.7972 465.11 23.096V18.5653H463.276ZM453.201 5.02697C452.467 6.8069 451.141 9.44984 450.125 11.014L451.564 11.6073C452.665 10.1241 453.991 7.69687 455.064 5.70119L453.201 5.02697ZM456.362 8.1014C454.81 10.9331 452.157 14.9515 450.04 17.3517L451.338 18.0529C453.455 15.7066 456.192 11.877 458.14 8.88349L456.362 8.1014ZM448.686 10.6365C450.181 12.0119 451.875 13.9266 452.58 15.2211L453.794 13.7109C453.06 12.4703 451.338 10.6634 449.814 9.34196L448.686 10.6365ZM455.261 14.2772C456.39 16.0572 457.491 18.4574 457.857 19.9676L459.523 19.2395C459.127 17.7562 457.97 15.4369 456.785 13.657L455.261 14.2772ZM448.46 16.9471L448.686 18.754C451.254 18.5922 454.64 18.4035 457.999 18.1877V16.4887C454.443 16.6775 450.915 16.8393 448.46 16.9471ZM455.995 20.8037C456.672 22.3679 457.265 24.4175 457.434 25.7389L459.071 25.2535C458.873 23.932 458.281 21.9094 457.547 20.3452L455.995 20.8037ZM450.153 20.4261C449.843 22.7724 449.306 25.1996 448.403 26.8447C448.827 27.0334 449.673 27.384 450.012 27.5998C450.915 25.8738 451.564 23.2848 451.931 20.7228L450.153 20.4261ZM453.145 17.7292V29.8112H455.007V17.7292H453.145Z" fill="#00498B"/>
<path d="M296.63 6.15965C298.013 7.02265 299.621 8.31715 300.383 9.20712L301.597 8.0205C300.806 7.13053 299.17 5.91694 297.787 5.13484L296.63 6.15965ZM287.768 17.0011V18.5653H291.804V22.6915H287.768V24.2826H293.328V17.0011H287.768ZM299.367 13.5491C297.843 20.3182 294.767 25.3344 289.546 28.274C289.941 28.6246 290.675 29.2988 290.985 29.6494C296.235 26.3323 299.508 21.1273 301.23 13.8727L299.367 13.5491ZM283.62 9.315V16.5965C283.62 20.2643 283.366 25.2535 280.826 28.8134C281.277 29.0291 282.096 29.5415 282.434 29.8921C285.087 26.1165 285.511 20.534 285.511 16.5965V9.315H283.62ZM284.777 9.315V11.1489H301.681V9.315H284.777ZM286.696 13.3064V14.8706H293.469V13.3064H286.696ZM286.893 17.0011V25.9277H288.417V17.0011H286.893ZM277.355 6.69903C279.02 7.48112 280.995 8.69472 281.955 9.58468L283.225 7.96656C282.209 7.07659 280.205 5.9439 278.568 5.26969L277.355 6.69903ZM276 14.0076C277.665 14.7087 279.697 15.8414 280.685 16.7044L281.898 15.0593C280.882 14.1963 278.85 13.1446 277.185 12.5243L276 14.0076ZM276.452 28.247L278.342 29.3258C279.584 26.7368 281.052 23.2578 282.124 20.3182L280.431 19.2395C279.274 22.3948 277.609 26.0895 276.452 28.247ZM293.836 5.26969C294.231 18.9159 295.557 29.7303 299.819 29.8382C300.863 29.8382 301.907 28.6785 302.471 24.2826C302.105 24.1208 301.258 23.6624 300.919 23.2578C300.694 25.9547 300.327 27.4649 299.819 27.438C297.533 27.3301 296.009 17.028 295.783 5.26969H293.836Z" stroke="#00498B" stroke-width="0.4" mask="url(#path-66-outside-1_77_868)"/>
<path d="M318.614 16.165L316.639 16.3538C317.937 24.6063 320.9 28.6246 329.733 29.9191C329.987 29.3528 330.523 28.4898 330.975 28.0313C322.593 27.1143 319.63 23.4466 318.614 16.165ZM316.497 15.2751C315.989 21.9094 314.861 26.1704 304.927 28.0313C305.378 28.4898 305.914 29.3258 306.112 29.8382C316.639 27.6807 318.191 22.7454 318.84 15.2751H316.497ZM310.402 5C309.499 6.2945 307.749 8.29018 306.168 9.93528C308.116 11.7422 309.95 13.8457 310.853 15.2481L312.857 14.4121C311.982 13.1985 310.289 11.3646 308.68 9.88134C309.95 8.55987 311.446 6.99569 312.518 5.62028L310.402 5ZM318.473 5C317.513 6.24056 315.764 8.18231 314.127 9.77346C316.131 11.5264 318.05 13.5761 318.981 14.9515L320.985 14.1154C320.082 12.9558 318.332 11.1489 316.695 9.74649C317.993 8.47896 319.489 6.96872 320.618 5.62028L318.473 5ZM326.742 5C325.726 6.2945 323.779 8.34412 322.001 9.98921C324.23 11.8231 326.375 13.9536 327.419 15.383L329.395 14.493C328.379 13.2794 326.46 11.3916 324.653 9.96224C326.064 8.64078 327.701 7.04962 328.887 5.64725L326.742 5ZM310.232 16.7314C309.47 18.754 308.088 20.8846 306.084 22.1251L307.834 23.2578C309.95 21.8554 311.22 19.5631 312.067 17.4056L310.232 16.7314ZM326.77 16.7044C325.895 18.4574 324.315 20.8306 323.045 22.3409L324.879 22.9612C326.149 21.5049 327.758 19.3204 328.999 17.3517L326.77 16.7044Z" stroke="#00498B" stroke-width="0.4" mask="url(#path-66-outside-1_77_868)"/>
<path d="M347.569 10.7443V12.3355H355.217V10.7443H347.569ZM347.287 14.9245V16.5156H355.612V14.9245H347.287ZM350.476 8.452V15.8414H352.197V8.452H350.476ZM345.227 6.13269V7.91262H357.559V6.13269H345.227ZM348.585 18.5653V20.1025H353.411V23.986H348.585V25.5502H355.048V18.5653H348.585ZM347.71 18.5653V26.6019H349.319V18.5653H347.71ZM356.769 6.13269V27.2762C356.769 27.7077 356.656 27.8155 356.233 27.8155C355.753 27.8425 354.286 27.8695 352.733 27.7886C353.044 28.3549 353.298 29.2718 353.383 29.8112C355.499 29.8112 356.91 29.7843 357.7 29.4337C358.491 29.11 358.745 28.4628 358.745 27.2762V6.13269H356.769ZM344.154 6.13269V15.8145C344.154 19.8058 343.985 25.1187 341.755 28.8673C342.235 29.0831 343.082 29.6494 343.42 30C345.791 26.0086 346.101 20.0485 346.101 15.8145V6.13269H344.154ZM334.757 13.1715V14.7896H342.009V13.1715H334.757ZM334.926 5.97087V7.589H341.925V5.97087H334.926ZM334.757 16.7853V18.4035H342.009V16.7853H334.757ZM333.599 9.50378V11.1758H342.715V9.50378H333.599ZM335.744 20.4261V22.0982H340.203V26.6019H335.744V28.274H341.981V20.4261H335.744ZM334.7 20.4261V29.5415H336.45V20.4261H334.7Z" stroke="#00498B" stroke-width="0.4" mask="url(#path-66-outside-1_77_868)"/>
<path d="M368.227 15.6526H362.611V17.5405H366.195V25.1996H368.227V15.6526ZM368.227 24.3905H366.393C365.066 25.5502 363.542 26.7638 362.3 27.6268L363.401 29.5955C364.812 28.4088 366.11 27.2492 367.352 26.0895C369.102 28.2201 371.67 29.164 375.395 29.2988C378.556 29.4337 384.595 29.3797 387.784 29.2449C387.869 28.6516 388.208 27.7077 388.462 27.2492C385.047 27.4649 378.528 27.5458 375.395 27.411C372.037 27.3031 369.553 26.3862 368.227 24.3905ZM362.865 6.8069C364.586 8.12837 366.534 10.0162 367.324 11.3646L369.074 10.0971C368.199 8.77562 366.223 6.91478 364.474 5.70119L362.865 6.8069ZM369.836 7.29234V8.93743H388.01V7.29234H369.836ZM373.786 15.1672V16.5156H383.89V15.1672H373.786ZM377.709 5V8.29018H379.741V5H377.709ZM377.991 13.1715V18.8889H379.628V13.1715H377.991ZM370.851 11.6882V25.8199H372.799V13.3064H385.809V11.6882H370.851ZM375.056 18.4574V24.4175H376.637V18.4574H375.056ZM375.903 18.4574V19.7519H381.096V22.0982H375.903V23.3657H382.676V18.4574H375.903ZM385.047 11.6882V23.6354C385.047 23.959 384.934 24.0399 384.595 24.0669C384.228 24.0938 383.128 24.0939 381.858 24.0399C382.112 24.5523 382.394 25.2805 382.507 25.7929C384.172 25.7929 385.329 25.7659 386.091 25.4693C386.825 25.1456 386.994 24.6602 386.994 23.6624V11.6882H385.047ZM382.366 8.58684C382.055 9.44984 381.406 10.7713 380.926 11.6343L382.62 12.0928C383.156 11.3107 383.749 10.205 384.369 9.09925L382.366 8.58684ZM373.363 9.15318C373.928 10.0701 374.464 11.2567 374.633 12.0658L376.468 11.5804C376.298 10.7713 375.734 9.58468 375.141 8.72168L373.363 9.15318Z" stroke="#00498B" stroke-width="0.4" mask="url(#path-66-outside-1_77_868)"/>
<path d="M396.505 6.64509V8.69471H404.491V6.64509H396.505ZM403.419 6.64509C403.419 11.7152 404.35 23.2039 415.639 29.7303C416.034 29.2449 416.88 28.3819 417.36 28.0313C406.213 21.7206 405.592 11.4725 405.592 6.64509H403.419ZM402.629 11.931C400.907 19.5631 397.379 25.0108 391.114 28.1392C391.679 28.5167 392.638 29.3528 393.033 29.7843C399.27 26.2783 402.995 20.5879 405.027 12.3625L402.629 11.931Z" stroke="#00498B" stroke-width="0.4" mask="url(#path-66-outside-1_77_868)"/>
<path d="M422.44 7.83172V29.164H424.641V9.88134H441.32V29.0291H443.606V7.83172H422.44ZM423.428 24.7681V26.8447H442.9V24.7681H423.428Z" stroke="#00498B" stroke-width="0.4" mask="url(#path-66-outside-1_77_868)"/>
<path d="M465.59 14.6818V18.1338H467.424V14.6818H465.59ZM468.948 8.91046C468.638 10.0701 467.961 11.7961 467.453 12.8749L468.751 13.3333C469.315 12.3355 470.021 10.7713 470.67 9.44984L468.948 8.91046ZM462.655 9.55771C463.219 10.7174 463.756 12.3085 463.897 13.3064L465.364 12.794C465.195 11.8231 464.659 10.2589 464.01 9.09925L462.655 9.55771ZM459.325 6.2945V29.8652H461.244V8.1014H472.843V6.2945H459.325ZM472.053 6.2945V27.5458C472.053 27.9234 471.94 28.0313 471.545 28.0583C471.178 28.0583 469.908 28.0852 468.638 28.0313C468.892 28.5437 469.174 29.3528 469.231 29.8382C471.065 29.8382 472.279 29.7843 473.012 29.5146C473.774 29.1909 474 28.6516 474 27.5458V6.2945H472.053ZM462.316 13.2524V14.8436H470.952V13.2524H462.316ZM462.091 17.6753V19.2665H471.121V17.6753H462.091ZM463.276 18.5653V23.069C463.276 25.0108 463.727 25.658 465.731 25.658C466.098 25.658 468.525 25.658 469.033 25.658C469.71 25.658 470.359 25.658 470.726 25.5232C470.67 25.1187 470.613 24.3635 470.557 23.9051C470.19 23.986 469.428 24.0129 469.005 24.0129C468.525 24.0129 466.239 24.0129 465.731 24.0129C465.195 24.0129 465.11 23.7972 465.11 23.096V18.5653H463.276ZM453.201 5.02697C452.467 6.8069 451.141 9.44984 450.125 11.014L451.564 11.6073C452.665 10.1241 453.991 7.69687 455.064 5.70119L453.201 5.02697ZM456.362 8.1014C454.81 10.9331 452.157 14.9515 450.04 17.3517L451.338 18.0529C453.455 15.7066 456.192 11.877 458.14 8.88349L456.362 8.1014ZM448.686 10.6365C450.181 12.0119 451.875 13.9266 452.58 15.2211L453.794 13.7109C453.06 12.4703 451.338 10.6634 449.814 9.34196L448.686 10.6365ZM455.261 14.2772C456.39 16.0572 457.491 18.4574 457.857 19.9676L459.523 19.2395C459.127 17.7562 457.97 15.4369 456.785 13.657L455.261 14.2772ZM448.46 16.9471L448.686 18.754C451.254 18.5922 454.64 18.4035 457.999 18.1877V16.4887C454.443 16.6775 450.915 16.8393 448.46 16.9471ZM455.995 20.8037C456.672 22.3679 457.265 24.4175 457.434 25.7389L459.071 25.2535C458.873 23.932 458.281 21.9094 457.547 20.3452L455.995 20.8037ZM450.153 20.4261C449.843 22.7724 449.306 25.1996 448.403 26.8447C448.827 27.0334 449.673 27.384 450.012 27.5998C450.915 25.8738 451.564 23.2848 451.931 20.7228L450.153 20.4261ZM453.145 17.7292V29.8112H455.007V17.7292H453.145Z" stroke="#00498B" stroke-width="0.4" mask="url(#path-66-outside-1_77_868)"/>
</g>
<defs>
<clipPath id="clip0_77_868">
<rect width="765" height="69" fill="white"/>
</clipPath>
</defs>
</svg>
