<svg width="182" height="115" viewBox="0 0 182 115" fill="none" xmlns="http://www.w3.org/2000/svg">
<mask id="path-1-outside-1_79_94" maskUnits="userSpaceOnUse" x="0" y="91.5713" width="182" height="23" fill="black">
<rect fill="white" y="91.5713" width="182" height="23"/>
<path d="M19.7543 93.5653C21.0114 94.305 22.4738 95.4146 23.1665 96.1774L24.2697 95.1603C23.5513 94.3975 22.0633 93.3572 20.8062 92.6869L19.7543 93.5653ZM11.6984 102.858V104.199H15.3672V107.735H11.6984V109.099H16.7526V102.858H11.6984ZM22.2429 99.8991C20.8575 105.701 18.061 110.001 13.3147 112.52C13.6739 112.821 14.3409 113.399 14.6231 113.699C19.3951 110.856 22.3712 106.395 23.9361 100.176L22.2429 99.8991ZM7.92703 96.2699V102.511C7.92703 105.655 7.69612 109.931 5.38712 112.983C5.79761 113.168 6.54162 113.607 6.84949 113.907C9.26112 110.671 9.64595 105.886 9.64595 102.511V96.2699H7.92703ZM8.97891 96.2699V97.8417H24.3466V96.2699H8.97891ZM10.7235 99.691V101.032H16.8808V99.691H10.7235ZM10.9031 102.858V110.509H12.2885V102.858H10.9031ZM2.23147 94.0276C3.74515 94.698 5.54105 95.7382 6.41334 96.501L7.56785 95.1141C6.64424 94.3512 4.82269 93.3804 3.33466 92.8024L2.23147 94.0276ZM1 100.292C2.51368 100.893 4.36089 101.864 5.25884 102.604L6.36203 101.194C5.43843 100.454 3.59122 99.5523 2.07754 99.0207L1 100.292ZM1.41049 112.497L3.12942 113.422C4.25827 111.203 5.59236 108.221 6.56728 105.701L5.02794 104.777C3.97606 107.481 2.46237 110.648 1.41049 112.497ZM17.2144 92.8024C17.5735 104.499 18.7794 113.769 22.6534 113.861C23.6026 113.861 24.5519 112.867 25.065 109.099C24.7315 108.961 23.9618 108.568 23.6539 108.221C23.4487 110.532 23.1152 111.827 22.6534 111.804C20.5753 111.711 19.1899 102.881 18.9846 92.8024H17.2144Z"/>
<path d="M39.74 102.141L37.9441 102.303C39.1243 109.377 41.8181 112.821 49.8484 113.931C50.0793 113.445 50.5667 112.705 50.9772 112.312C43.3575 111.526 40.6636 108.383 39.74 102.141ZM37.8158 101.378C37.354 107.065 36.3278 110.717 27.297 112.312C27.7075 112.705 28.195 113.422 28.3746 113.861C37.9441 112.012 39.3552 107.782 39.9453 101.378H37.8158ZM32.2742 92.5713C31.4533 93.6809 29.8626 95.3914 28.4259 96.8015C30.1961 98.3503 31.8637 100.153 32.6847 101.355L34.5063 100.639C33.7109 99.5986 32.1716 98.0267 30.7092 96.7553C31.8637 95.6226 33.2235 94.2819 34.1984 93.103L32.2742 92.5713ZM39.6117 92.5713C38.7395 93.6346 37.1488 95.299 35.6608 96.6628C37.4823 98.1654 39.2269 99.9222 40.0735 101.101L41.8951 100.385C41.0741 99.3905 39.4835 97.8417 37.9954 96.6397C39.1756 95.5533 40.5354 94.2588 41.5616 93.103L39.6117 92.5713ZM47.1289 92.5713C46.2052 93.6809 44.435 95.4377 42.8187 96.8478C44.8455 98.4196 46.7953 100.246 47.7446 101.471L49.5405 100.708C48.6169 99.6679 46.8723 98.0498 45.2303 96.8246C46.5131 95.692 48.0011 94.3281 49.0787 93.1261L47.1289 92.5713ZM32.1203 102.627C31.4276 104.36 30.1705 106.187 28.3489 107.25L29.9396 108.221C31.8637 107.019 33.0182 105.054 33.7879 103.205L32.1203 102.627ZM47.1545 102.604C46.3592 104.106 44.9225 106.14 43.768 107.435L45.4356 107.967C46.5901 106.718 48.0525 104.846 49.1813 103.158L47.1545 102.604Z"/>
<path d="M66.0627 97.495V98.8589H73.0154V97.495H66.0627ZM65.8062 101.078V102.442H73.3746V101.078H65.8062ZM68.7053 95.5301V101.864H70.2702V95.5301H68.7053ZM63.9333 93.5422V95.0678H75.1448V93.5422H63.9333ZM66.9863 104.199V105.516H71.3734V108.845H66.9863V110.186H72.8615V104.199H66.9863ZM66.191 104.199V111.087H67.6534V104.199H66.191ZM74.4265 93.5422V111.665C74.4265 112.035 74.3238 112.127 73.939 112.127C73.5029 112.151 72.1688 112.174 70.7577 112.104C71.0399 112.59 71.2708 113.376 71.3478 113.838C73.272 113.838 74.5547 113.815 75.2731 113.514C75.9915 113.237 76.2224 112.682 76.2224 111.665V93.5422H74.4265ZM62.9584 93.5422V101.841C62.9584 105.262 62.8045 109.816 60.7777 113.029C61.2138 113.214 61.9835 113.699 62.2913 114C64.4464 110.579 64.7286 105.47 64.7286 101.841V93.5422H62.9584ZM54.4151 99.5754V100.962H61.0086V99.5754H54.4151ZM54.569 93.4035V94.7904H60.9316V93.4035H54.569ZM54.4151 102.673V104.06H61.0086V102.673H54.4151ZM53.3632 96.4317V97.8649H61.6499V96.4317H53.3632ZM55.313 105.794V107.227H59.3666V111.087H55.313V112.52H60.9829V105.794H55.313ZM54.3637 105.794V113.607H55.9544V105.794H54.3637Z"/>
<path d="M84.8427 101.702H79.7372V103.32H82.9955V109.885H84.8427V101.702ZM84.8427 109.192H83.175C81.9692 110.186 80.5838 111.226 79.455 111.966L80.4555 113.653C81.7383 112.636 82.9185 111.642 84.0473 110.648C85.638 112.474 87.9726 113.283 91.3592 113.399C94.2326 113.514 99.7229 113.468 102.622 113.353C102.699 112.844 103.007 112.035 103.238 111.642C100.133 111.827 94.207 111.896 91.3592 111.781C88.3062 111.688 86.0485 110.902 84.8427 109.192ZM79.9681 94.1201C81.5331 95.2527 83.3033 96.8709 84.0217 98.0267L85.6123 96.9402C84.817 95.8075 83.0211 94.2125 81.4305 93.1723L79.9681 94.1201ZM86.305 94.5362V95.9462H102.827V94.5362H86.305ZM89.8968 101.286V102.442H99.0815V101.286H89.8968ZM93.463 92.5713V95.3914H95.3102V92.5713H93.463ZM93.7195 99.5754V104.476H95.2075V99.5754H93.7195ZM87.2286 98.3041V110.417H88.9989V99.691H100.826V98.3041H87.2286ZM91.0513 104.106V109.215H92.488V104.106H91.0513ZM91.821 104.106V105.216H96.5416V107.227H91.821V108.313H97.9783V104.106H91.821ZM100.133 98.3041V108.544C100.133 108.822 100.031 108.891 99.7229 108.914C99.3894 108.937 98.3888 108.937 97.2343 108.891C97.4652 109.33 97.7218 109.955 97.8244 110.394C99.3381 110.394 100.39 110.371 101.083 110.116C101.75 109.839 101.904 109.423 101.904 108.568V98.3041H100.133ZM97.6961 95.6457C97.4139 96.3854 96.8238 97.5181 96.3877 98.2578L97.927 98.6508C98.4145 97.9804 98.9533 97.0327 99.5177 96.0849L97.6961 95.6457ZM89.512 96.1312C90.0251 96.9171 90.5126 97.9342 90.6665 98.6277L92.3341 98.2116C92.1802 97.5181 91.6671 96.501 91.1283 95.7613L89.512 96.1312Z"/>
<path d="M110.55 93.9814V95.7382H117.81V93.9814H110.55ZM116.835 93.9814C116.835 98.3272 117.682 108.175 127.944 113.769C128.303 113.353 129.073 112.613 129.509 112.312C119.375 106.903 118.811 98.1191 118.811 93.9814H116.835ZM116.117 98.5121C114.552 105.054 111.345 109.723 105.649 112.405C106.162 112.728 107.035 113.445 107.394 113.815C113.064 110.81 116.45 105.932 118.298 98.882L116.117 98.5121Z"/>
<path d="M134.127 94.9985V113.283H136.128V96.7553H151.291V113.168H153.369V94.9985H134.127ZM135.025 109.515V111.295H152.728V109.515H135.025Z"/>
<path d="M173.355 100.87V103.829H175.022V100.87H173.355ZM176.408 95.9231C176.125 96.9171 175.51 98.3965 175.048 99.3212L176.228 99.7141C176.741 98.8589 177.383 97.5181 177.973 96.3854L176.408 95.9231ZM170.686 96.4779C171.2 97.4719 171.687 98.8357 171.815 99.691L173.149 99.2518C172.995 98.4196 172.508 97.0789 171.918 96.0849L170.686 96.4779ZM167.659 93.6809V113.884H169.404V95.2296H179.948V93.6809H167.659ZM179.23 93.6809V111.896C179.23 112.22 179.127 112.312 178.768 112.336C178.434 112.336 177.28 112.359 176.125 112.312C176.356 112.752 176.613 113.445 176.664 113.861C178.332 113.861 179.435 113.815 180.102 113.584C180.795 113.306 181 112.844 181 111.896V93.6809H179.23ZM170.379 99.6448V101.009H178.229V99.6448H170.379ZM170.173 103.436V104.8H178.383V103.436H170.173ZM171.251 104.199V108.059C171.251 109.723 171.661 110.278 173.483 110.278C173.816 110.278 176.023 110.278 176.485 110.278C177.1 110.278 177.69 110.278 178.024 110.163C177.973 109.816 177.921 109.169 177.87 108.776C177.536 108.845 176.844 108.868 176.459 108.868C176.023 108.868 173.945 108.868 173.483 108.868C172.995 108.868 172.918 108.683 172.918 108.082V104.199H171.251ZM162.092 92.5944C161.425 94.1201 160.219 96.3854 159.295 97.7262L160.604 98.2347C161.604 96.9633 162.81 94.8829 163.785 93.1723L162.092 92.5944ZM164.965 95.2296C163.554 97.6568 161.143 101.101 159.218 103.158L160.399 103.759C162.323 101.748 164.811 98.4659 166.582 95.9L164.965 95.2296ZM157.987 97.4025C159.347 98.5815 160.886 100.223 161.527 101.332L162.631 100.038C161.964 98.9744 160.399 97.4257 159.013 96.293L157.987 97.4025ZM163.965 100.523C164.991 102.049 165.991 104.106 166.325 105.401L167.839 104.777C167.479 103.505 166.428 101.517 165.35 99.9915L163.965 100.523ZM157.782 102.812L157.987 104.36C160.322 104.222 163.4 104.06 166.453 103.875V102.419C163.221 102.581 160.014 102.719 157.782 102.812ZM164.632 106.117C165.247 107.458 165.786 109.215 165.94 110.348L167.428 109.931C167.249 108.799 166.71 107.065 166.043 105.724L164.632 106.117ZM159.321 105.794C159.039 107.805 158.551 109.885 157.73 111.295C158.115 111.457 158.885 111.758 159.193 111.943C160.014 110.463 160.604 108.244 160.937 106.048L159.321 105.794ZM162.04 103.482V113.838H163.734V103.482H162.04Z"/>
</mask>
<path d="M19.7543 93.5653C21.0114 94.305 22.4738 95.4146 23.1665 96.1774L24.2697 95.1603C23.5513 94.3975 22.0633 93.3572 20.8062 92.6869L19.7543 93.5653ZM11.6984 102.858V104.199H15.3672V107.735H11.6984V109.099H16.7526V102.858H11.6984ZM22.2429 99.8991C20.8575 105.701 18.061 110.001 13.3147 112.52C13.6739 112.821 14.3409 113.399 14.6231 113.699C19.3951 110.856 22.3712 106.395 23.9361 100.176L22.2429 99.8991ZM7.92703 96.2699V102.511C7.92703 105.655 7.69612 109.931 5.38712 112.983C5.79761 113.168 6.54162 113.607 6.84949 113.907C9.26112 110.671 9.64595 105.886 9.64595 102.511V96.2699H7.92703ZM8.97891 96.2699V97.8417H24.3466V96.2699H8.97891ZM10.7235 99.691V101.032H16.8808V99.691H10.7235ZM10.9031 102.858V110.509H12.2885V102.858H10.9031ZM2.23147 94.0276C3.74515 94.698 5.54105 95.7382 6.41334 96.501L7.56785 95.1141C6.64424 94.3512 4.82269 93.3804 3.33466 92.8024L2.23147 94.0276ZM1 100.292C2.51368 100.893 4.36089 101.864 5.25884 102.604L6.36203 101.194C5.43843 100.454 3.59122 99.5523 2.07754 99.0207L1 100.292ZM1.41049 112.497L3.12942 113.422C4.25827 111.203 5.59236 108.221 6.56728 105.701L5.02794 104.777C3.97606 107.481 2.46237 110.648 1.41049 112.497ZM17.2144 92.8024C17.5735 104.499 18.7794 113.769 22.6534 113.861C23.6026 113.861 24.5519 112.867 25.065 109.099C24.7315 108.961 23.9618 108.568 23.6539 108.221C23.4487 110.532 23.1152 111.827 22.6534 111.804C20.5753 111.711 19.1899 102.881 18.9846 92.8024H17.2144Z" fill="#00498B"/>
<path d="M39.74 102.141L37.9441 102.303C39.1243 109.377 41.8181 112.821 49.8484 113.931C50.0793 113.445 50.5667 112.705 50.9772 112.312C43.3575 111.526 40.6636 108.383 39.74 102.141ZM37.8158 101.378C37.354 107.065 36.3278 110.717 27.297 112.312C27.7075 112.705 28.195 113.422 28.3746 113.861C37.9441 112.012 39.3552 107.782 39.9453 101.378H37.8158ZM32.2742 92.5713C31.4533 93.6809 29.8626 95.3914 28.4259 96.8015C30.1961 98.3503 31.8637 100.153 32.6847 101.355L34.5063 100.639C33.7109 99.5986 32.1716 98.0267 30.7092 96.7553C31.8637 95.6226 33.2235 94.2819 34.1984 93.103L32.2742 92.5713ZM39.6117 92.5713C38.7395 93.6346 37.1488 95.299 35.6608 96.6628C37.4823 98.1654 39.2269 99.9222 40.0735 101.101L41.8951 100.385C41.0741 99.3905 39.4835 97.8417 37.9954 96.6397C39.1756 95.5533 40.5354 94.2588 41.5616 93.103L39.6117 92.5713ZM47.1289 92.5713C46.2052 93.6809 44.435 95.4377 42.8187 96.8478C44.8455 98.4196 46.7953 100.246 47.7446 101.471L49.5405 100.708C48.6169 99.6679 46.8723 98.0498 45.2303 96.8246C46.5131 95.692 48.0011 94.3281 49.0787 93.1261L47.1289 92.5713ZM32.1203 102.627C31.4276 104.36 30.1705 106.187 28.3489 107.25L29.9396 108.221C31.8637 107.019 33.0182 105.054 33.7879 103.205L32.1203 102.627ZM47.1545 102.604C46.3592 104.106 44.9225 106.14 43.768 107.435L45.4356 107.967C46.5901 106.718 48.0525 104.846 49.1813 103.158L47.1545 102.604Z" fill="#00498B"/>
<path d="M66.0627 97.495V98.8589H73.0154V97.495H66.0627ZM65.8062 101.078V102.442H73.3746V101.078H65.8062ZM68.7053 95.5301V101.864H70.2702V95.5301H68.7053ZM63.9333 93.5422V95.0678H75.1448V93.5422H63.9333ZM66.9863 104.199V105.516H71.3734V108.845H66.9863V110.186H72.8615V104.199H66.9863ZM66.191 104.199V111.087H67.6534V104.199H66.191ZM74.4265 93.5422V111.665C74.4265 112.035 74.3238 112.127 73.939 112.127C73.5029 112.151 72.1688 112.174 70.7577 112.104C71.0399 112.59 71.2708 113.376 71.3478 113.838C73.272 113.838 74.5547 113.815 75.2731 113.514C75.9915 113.237 76.2224 112.682 76.2224 111.665V93.5422H74.4265ZM62.9584 93.5422V101.841C62.9584 105.262 62.8045 109.816 60.7777 113.029C61.2138 113.214 61.9835 113.699 62.2913 114C64.4464 110.579 64.7286 105.47 64.7286 101.841V93.5422H62.9584ZM54.4151 99.5754V100.962H61.0086V99.5754H54.4151ZM54.569 93.4035V94.7904H60.9316V93.4035H54.569ZM54.4151 102.673V104.06H61.0086V102.673H54.4151ZM53.3632 96.4317V97.8649H61.6499V96.4317H53.3632ZM55.313 105.794V107.227H59.3666V111.087H55.313V112.52H60.9829V105.794H55.313ZM54.3637 105.794V113.607H55.9544V105.794H54.3637Z" fill="#00498B"/>
<path d="M84.8427 101.702H79.7372V103.32H82.9955V109.885H84.8427V101.702ZM84.8427 109.192H83.175C81.9692 110.186 80.5838 111.226 79.455 111.966L80.4555 113.653C81.7383 112.636 82.9185 111.642 84.0473 110.648C85.638 112.474 87.9726 113.283 91.3592 113.399C94.2326 113.514 99.7229 113.468 102.622 113.353C102.699 112.844 103.007 112.035 103.238 111.642C100.133 111.827 94.207 111.896 91.3592 111.781C88.3062 111.688 86.0485 110.902 84.8427 109.192ZM79.9681 94.1201C81.5331 95.2527 83.3033 96.8709 84.0217 98.0267L85.6123 96.9402C84.817 95.8075 83.0211 94.2125 81.4305 93.1723L79.9681 94.1201ZM86.305 94.5362V95.9462H102.827V94.5362H86.305ZM89.8968 101.286V102.442H99.0815V101.286H89.8968ZM93.463 92.5713V95.3914H95.3102V92.5713H93.463ZM93.7195 99.5754V104.476H95.2075V99.5754H93.7195ZM87.2286 98.3041V110.417H88.9989V99.691H100.826V98.3041H87.2286ZM91.0513 104.106V109.215H92.488V104.106H91.0513ZM91.821 104.106V105.216H96.5416V107.227H91.821V108.313H97.9783V104.106H91.821ZM100.133 98.3041V108.544C100.133 108.822 100.031 108.891 99.7229 108.914C99.3894 108.937 98.3888 108.937 97.2343 108.891C97.4652 109.33 97.7218 109.955 97.8244 110.394C99.3381 110.394 100.39 110.371 101.083 110.116C101.75 109.839 101.904 109.423 101.904 108.568V98.3041H100.133ZM97.6961 95.6457C97.4139 96.3854 96.8238 97.5181 96.3877 98.2578L97.927 98.6508C98.4145 97.9804 98.9533 97.0327 99.5177 96.0849L97.6961 95.6457ZM89.512 96.1312C90.0251 96.9171 90.5126 97.9342 90.6665 98.6277L92.3341 98.2116C92.1802 97.5181 91.6671 96.501 91.1283 95.7613L89.512 96.1312Z" fill="#00498B"/>
<path d="M110.55 93.9814V95.7382H117.81V93.9814H110.55ZM116.835 93.9814C116.835 98.3272 117.682 108.175 127.944 113.769C128.303 113.353 129.073 112.613 129.509 112.312C119.375 106.903 118.811 98.1191 118.811 93.9814H116.835ZM116.117 98.5121C114.552 105.054 111.345 109.723 105.649 112.405C106.162 112.728 107.035 113.445 107.394 113.815C113.064 110.81 116.45 105.932 118.298 98.882L116.117 98.5121Z" fill="#00498B"/>
<path d="M134.127 94.9985V113.283H136.128V96.7553H151.291V113.168H153.369V94.9985H134.127ZM135.025 109.515V111.295H152.728V109.515H135.025Z" fill="#00498B"/>
<path d="M173.355 100.87V103.829H175.022V100.87H173.355ZM176.408 95.9231C176.125 96.9171 175.51 98.3965 175.048 99.3212L176.228 99.7141C176.741 98.8589 177.383 97.5181 177.973 96.3854L176.408 95.9231ZM170.686 96.4779C171.2 97.4719 171.687 98.8357 171.815 99.691L173.149 99.2518C172.995 98.4196 172.508 97.0789 171.918 96.0849L170.686 96.4779ZM167.659 93.6809V113.884H169.404V95.2296H179.948V93.6809H167.659ZM179.23 93.6809V111.896C179.23 112.22 179.127 112.312 178.768 112.336C178.434 112.336 177.28 112.359 176.125 112.312C176.356 112.752 176.613 113.445 176.664 113.861C178.332 113.861 179.435 113.815 180.102 113.584C180.795 113.306 181 112.844 181 111.896V93.6809H179.23ZM170.379 99.6448V101.009H178.229V99.6448H170.379ZM170.173 103.436V104.8H178.383V103.436H170.173ZM171.251 104.199V108.059C171.251 109.723 171.661 110.278 173.483 110.278C173.816 110.278 176.023 110.278 176.485 110.278C177.1 110.278 177.69 110.278 178.024 110.163C177.973 109.816 177.921 109.169 177.87 108.776C177.536 108.845 176.844 108.868 176.459 108.868C176.023 108.868 173.945 108.868 173.483 108.868C172.995 108.868 172.918 108.683 172.918 108.082V104.199H171.251ZM162.092 92.5944C161.425 94.1201 160.219 96.3854 159.295 97.7262L160.604 98.2347C161.604 96.9633 162.81 94.8829 163.785 93.1723L162.092 92.5944ZM164.965 95.2296C163.554 97.6568 161.143 101.101 159.218 103.158L160.399 103.759C162.323 101.748 164.811 98.4659 166.582 95.9L164.965 95.2296ZM157.987 97.4025C159.347 98.5815 160.886 100.223 161.527 101.332L162.631 100.038C161.964 98.9744 160.399 97.4257 159.013 96.293L157.987 97.4025ZM163.965 100.523C164.991 102.049 165.991 104.106 166.325 105.401L167.839 104.777C167.479 103.505 166.428 101.517 165.35 99.9915L163.965 100.523ZM157.782 102.812L157.987 104.36C160.322 104.222 163.4 104.06 166.453 103.875V102.419C163.221 102.581 160.014 102.719 157.782 102.812ZM164.632 106.117C165.247 107.458 165.786 109.215 165.94 110.348L167.428 109.931C167.249 108.799 166.71 107.065 166.043 105.724L164.632 106.117ZM159.321 105.794C159.039 107.805 158.551 109.885 157.73 111.295C158.115 111.457 158.885 111.758 159.193 111.943C160.014 110.463 160.604 108.244 160.937 106.048L159.321 105.794ZM162.04 103.482V113.838H163.734V103.482H162.04Z" fill="#00498B"/>
<path d="M19.7543 93.5653C21.0114 94.305 22.4738 95.4146 23.1665 96.1774L24.2697 95.1603C23.5513 94.3975 22.0633 93.3572 20.8062 92.6869L19.7543 93.5653ZM11.6984 102.858V104.199H15.3672V107.735H11.6984V109.099H16.7526V102.858H11.6984ZM22.2429 99.8991C20.8575 105.701 18.061 110.001 13.3147 112.52C13.6739 112.821 14.3409 113.399 14.6231 113.699C19.3951 110.856 22.3712 106.395 23.9361 100.176L22.2429 99.8991ZM7.92703 96.2699V102.511C7.92703 105.655 7.69612 109.931 5.38712 112.983C5.79761 113.168 6.54162 113.607 6.84949 113.907C9.26112 110.671 9.64595 105.886 9.64595 102.511V96.2699H7.92703ZM8.97891 96.2699V97.8417H24.3466V96.2699H8.97891ZM10.7235 99.691V101.032H16.8808V99.691H10.7235ZM10.9031 102.858V110.509H12.2885V102.858H10.9031ZM2.23147 94.0276C3.74515 94.698 5.54105 95.7382 6.41334 96.501L7.56785 95.1141C6.64424 94.3512 4.82269 93.3804 3.33466 92.8024L2.23147 94.0276ZM1 100.292C2.51368 100.893 4.36089 101.864 5.25884 102.604L6.36203 101.194C5.43843 100.454 3.59122 99.5523 2.07754 99.0207L1 100.292ZM1.41049 112.497L3.12942 113.422C4.25827 111.203 5.59236 108.221 6.56728 105.701L5.02794 104.777C3.97606 107.481 2.46237 110.648 1.41049 112.497ZM17.2144 92.8024C17.5735 104.499 18.7794 113.769 22.6534 113.861C23.6026 113.861 24.5519 112.867 25.065 109.099C24.7315 108.961 23.9618 108.568 23.6539 108.221C23.4487 110.532 23.1152 111.827 22.6534 111.804C20.5753 111.711 19.1899 102.881 18.9846 92.8024H17.2144Z" stroke="#00498B" stroke-width="0.4" mask="url(#path-1-outside-1_79_94)"/>
<path d="M39.74 102.141L37.9441 102.303C39.1243 109.377 41.8181 112.821 49.8484 113.931C50.0793 113.445 50.5667 112.705 50.9772 112.312C43.3575 111.526 40.6636 108.383 39.74 102.141ZM37.8158 101.378C37.354 107.065 36.3278 110.717 27.297 112.312C27.7075 112.705 28.195 113.422 28.3746 113.861C37.9441 112.012 39.3552 107.782 39.9453 101.378H37.8158ZM32.2742 92.5713C31.4533 93.6809 29.8626 95.3914 28.4259 96.8015C30.1961 98.3503 31.8637 100.153 32.6847 101.355L34.5063 100.639C33.7109 99.5986 32.1716 98.0267 30.7092 96.7553C31.8637 95.6226 33.2235 94.2819 34.1984 93.103L32.2742 92.5713ZM39.6117 92.5713C38.7395 93.6346 37.1488 95.299 35.6608 96.6628C37.4823 98.1654 39.2269 99.9222 40.0735 101.101L41.8951 100.385C41.0741 99.3905 39.4835 97.8417 37.9954 96.6397C39.1756 95.5533 40.5354 94.2588 41.5616 93.103L39.6117 92.5713ZM47.1289 92.5713C46.2052 93.6809 44.435 95.4377 42.8187 96.8478C44.8455 98.4196 46.7953 100.246 47.7446 101.471L49.5405 100.708C48.6169 99.6679 46.8723 98.0498 45.2303 96.8246C46.5131 95.692 48.0011 94.3281 49.0787 93.1261L47.1289 92.5713ZM32.1203 102.627C31.4276 104.36 30.1705 106.187 28.3489 107.25L29.9396 108.221C31.8637 107.019 33.0182 105.054 33.7879 103.205L32.1203 102.627ZM47.1545 102.604C46.3592 104.106 44.9225 106.14 43.768 107.435L45.4356 107.967C46.5901 106.718 48.0525 104.846 49.1813 103.158L47.1545 102.604Z" stroke="#00498B" stroke-width="0.4" mask="url(#path-1-outside-1_79_94)"/>
<path d="M66.0627 97.495V98.8589H73.0154V97.495H66.0627ZM65.8062 101.078V102.442H73.3746V101.078H65.8062ZM68.7053 95.5301V101.864H70.2702V95.5301H68.7053ZM63.9333 93.5422V95.0678H75.1448V93.5422H63.9333ZM66.9863 104.199V105.516H71.3734V108.845H66.9863V110.186H72.8615V104.199H66.9863ZM66.191 104.199V111.087H67.6534V104.199H66.191ZM74.4265 93.5422V111.665C74.4265 112.035 74.3238 112.127 73.939 112.127C73.5029 112.151 72.1688 112.174 70.7577 112.104C71.0399 112.59 71.2708 113.376 71.3478 113.838C73.272 113.838 74.5547 113.815 75.2731 113.514C75.9915 113.237 76.2224 112.682 76.2224 111.665V93.5422H74.4265ZM62.9584 93.5422V101.841C62.9584 105.262 62.8045 109.816 60.7777 113.029C61.2138 113.214 61.9835 113.699 62.2913 114C64.4464 110.579 64.7286 105.47 64.7286 101.841V93.5422H62.9584ZM54.4151 99.5754V100.962H61.0086V99.5754H54.4151ZM54.569 93.4035V94.7904H60.9316V93.4035H54.569ZM54.4151 102.673V104.06H61.0086V102.673H54.4151ZM53.3632 96.4317V97.8649H61.6499V96.4317H53.3632ZM55.313 105.794V107.227H59.3666V111.087H55.313V112.52H60.9829V105.794H55.313ZM54.3637 105.794V113.607H55.9544V105.794H54.3637Z" stroke="#00498B" stroke-width="0.4" mask="url(#path-1-outside-1_79_94)"/>
<path d="M84.8427 101.702H79.7372V103.32H82.9955V109.885H84.8427V101.702ZM84.8427 109.192H83.175C81.9692 110.186 80.5838 111.226 79.455 111.966L80.4555 113.653C81.7383 112.636 82.9185 111.642 84.0473 110.648C85.638 112.474 87.9726 113.283 91.3592 113.399C94.2326 113.514 99.7229 113.468 102.622 113.353C102.699 112.844 103.007 112.035 103.238 111.642C100.133 111.827 94.207 111.896 91.3592 111.781C88.3062 111.688 86.0485 110.902 84.8427 109.192ZM79.9681 94.1201C81.5331 95.2527 83.3033 96.8709 84.0217 98.0267L85.6123 96.9402C84.817 95.8075 83.0211 94.2125 81.4305 93.1723L79.9681 94.1201ZM86.305 94.5362V95.9462H102.827V94.5362H86.305ZM89.8968 101.286V102.442H99.0815V101.286H89.8968ZM93.463 92.5713V95.3914H95.3102V92.5713H93.463ZM93.7195 99.5754V104.476H95.2075V99.5754H93.7195ZM87.2286 98.3041V110.417H88.9989V99.691H100.826V98.3041H87.2286ZM91.0513 104.106V109.215H92.488V104.106H91.0513ZM91.821 104.106V105.216H96.5416V107.227H91.821V108.313H97.9783V104.106H91.821ZM100.133 98.3041V108.544C100.133 108.822 100.031 108.891 99.7229 108.914C99.3894 108.937 98.3888 108.937 97.2343 108.891C97.4652 109.33 97.7218 109.955 97.8244 110.394C99.3381 110.394 100.39 110.371 101.083 110.116C101.75 109.839 101.904 109.423 101.904 108.568V98.3041H100.133ZM97.6961 95.6457C97.4139 96.3854 96.8238 97.5181 96.3877 98.2578L97.927 98.6508C98.4145 97.9804 98.9533 97.0327 99.5177 96.0849L97.6961 95.6457ZM89.512 96.1312C90.0251 96.9171 90.5126 97.9342 90.6665 98.6277L92.3341 98.2116C92.1802 97.5181 91.6671 96.501 91.1283 95.7613L89.512 96.1312Z" stroke="#00498B" stroke-width="0.4" mask="url(#path-1-outside-1_79_94)"/>
<path d="M110.55 93.9814V95.7382H117.81V93.9814H110.55ZM116.835 93.9814C116.835 98.3272 117.682 108.175 127.944 113.769C128.303 113.353 129.073 112.613 129.509 112.312C119.375 106.903 118.811 98.1191 118.811 93.9814H116.835ZM116.117 98.5121C114.552 105.054 111.345 109.723 105.649 112.405C106.162 112.728 107.035 113.445 107.394 113.815C113.064 110.81 116.45 105.932 118.298 98.882L116.117 98.5121Z" stroke="#00498B" stroke-width="0.4" mask="url(#path-1-outside-1_79_94)"/>
<path d="M134.127 94.9985V113.283H136.128V96.7553H151.291V113.168H153.369V94.9985H134.127ZM135.025 109.515V111.295H152.728V109.515H135.025Z" stroke="#00498B" stroke-width="0.4" mask="url(#path-1-outside-1_79_94)"/>
<path d="M173.355 100.87V103.829H175.022V100.87H173.355ZM176.408 95.9231C176.125 96.9171 175.51 98.3965 175.048 99.3212L176.228 99.7141C176.741 98.8589 177.383 97.5181 177.973 96.3854L176.408 95.9231ZM170.686 96.4779C171.2 97.4719 171.687 98.8357 171.815 99.691L173.149 99.2518C172.995 98.4196 172.508 97.0789 171.918 96.0849L170.686 96.4779ZM167.659 93.6809V113.884H169.404V95.2296H179.948V93.6809H167.659ZM179.23 93.6809V111.896C179.23 112.22 179.127 112.312 178.768 112.336C178.434 112.336 177.28 112.359 176.125 112.312C176.356 112.752 176.613 113.445 176.664 113.861C178.332 113.861 179.435 113.815 180.102 113.584C180.795 113.306 181 112.844 181 111.896V93.6809H179.23ZM170.379 99.6448V101.009H178.229V99.6448H170.379ZM170.173 103.436V104.8H178.383V103.436H170.173ZM171.251 104.199V108.059C171.251 109.723 171.661 110.278 173.483 110.278C173.816 110.278 176.023 110.278 176.485 110.278C177.1 110.278 177.69 110.278 178.024 110.163C177.973 109.816 177.921 109.169 177.87 108.776C177.536 108.845 176.844 108.868 176.459 108.868C176.023 108.868 173.945 108.868 173.483 108.868C172.995 108.868 172.918 108.683 172.918 108.082V104.199H171.251ZM162.092 92.5944C161.425 94.1201 160.219 96.3854 159.295 97.7262L160.604 98.2347C161.604 96.9633 162.81 94.8829 163.785 93.1723L162.092 92.5944ZM164.965 95.2296C163.554 97.6568 161.143 101.101 159.218 103.158L160.399 103.759C162.323 101.748 164.811 98.4659 166.582 95.9L164.965 95.2296ZM157.987 97.4025C159.347 98.5815 160.886 100.223 161.527 101.332L162.631 100.038C161.964 98.9744 160.399 97.4257 159.013 96.293L157.987 97.4025ZM163.965 100.523C164.991 102.049 165.991 104.106 166.325 105.401L167.839 104.777C167.479 103.505 166.428 101.517 165.35 99.9915L163.965 100.523ZM157.782 102.812L157.987 104.36C160.322 104.222 163.4 104.06 166.453 103.875V102.419C163.221 102.581 160.014 102.719 157.782 102.812ZM164.632 106.117C165.247 107.458 165.786 109.215 165.94 110.348L167.428 109.931C167.249 108.799 166.71 107.065 166.043 105.724L164.632 106.117ZM159.321 105.794C159.039 107.805 158.551 109.885 157.73 111.295C158.115 111.457 158.885 111.758 159.193 111.943C160.014 110.463 160.604 108.244 160.937 106.048L159.321 105.794ZM162.04 103.482V113.838H163.734V103.482H162.04Z" stroke="#00498B" stroke-width="0.4" mask="url(#path-1-outside-1_79_94)"/>
<path d="M66.9214 11.1435C70.7091 11.1435 73.7502 12.7236 76.6365 15.8383C78.1844 17.5098 82.3182 22.3143 82.3546 22.3599L82.5368 22.57L98.8532 0.118745H87.6721C87.6721 0.118745 83.0376 5.94623 82.7553 6.32986C81.7264 5.30686 76.7276 0 69.5891 0C60.138 0 54.5202 6.14713 50.5412 12.7875C47.8097 17.3545 27.4686 51.15 27.4686 51.15H35.7453C35.9365 50.8394 54.338 19.985 55.8495 17.6011C58.8269 12.8697 62.6875 11.1435 66.9214 11.1435Z" fill="#00498B"/>
<path d="M128.427 9.27992C124.785 3.15106 120.032 0.145996 113.74 0.145996C108.168 0.145996 103.952 2.97758 98.7349 10.2573C96.6225 13.1984 85.0772 29.0457 83.502 31.2013C82.9557 30.4341 81.1164 27.904 78.4122 24.5792C74.2511 19.4734 71.1827 17.5736 67.0944 17.5736C61.7133 17.5736 58.8998 20.5238 55.6311 25.9676C54.6477 27.5935 41.0628 50.8484 40.8807 51.0768H49.5761L60.2564 32.9185C62.988 28.3059 64.9457 28.306 66.4845 28.306C68.2327 28.306 69.9535 29.0915 72.6941 32.8729C75.9083 37.3668 83.1014 47.752 83.1014 47.752C83.1014 47.752 104.708 18.0668 106.001 16.2765C109.251 11.7644 111.555 10.9971 114.086 10.9971C115.734 10.9971 118.848 11.2803 121.725 16.0665L142.303 51.0402H153.102L128.427 9.27992Z" fill="#3DB171"/>
<path d="M121.516 24.4974C118.784 19.766 117.036 17.6104 113.549 17.6104C110.608 17.6104 108.031 20.6337 105.017 24.817L85.8965 51.1136H96.2855L107.612 35.4672C110.936 31.0829 111.418 30.1148 113.13 30.1148C114.842 30.1148 115.552 31.5488 118.029 35.4764L127.134 51.1136H137.204L121.516 24.4974Z" fill="#C92B20"/>
<path d="M58.7722 75.5469H53.4366L39.6059 62.1839V75.5469H34.2703V55.708H39.6241L53.4183 68.9795V55.708H58.7541L58.7722 75.5469Z" fill="#00498B"/>
<path d="M86.279 75.5468H68.5148C66.5831 75.5857 64.6998 74.9387 63.1974 73.72C62.5106 73.1944 61.9555 72.5153 61.5761 71.7368C61.1968 70.9582 61.0037 70.1017 61.0122 69.2352V61.9281C61.0029 61.0614 61.1957 60.2046 61.5751 59.4259C61.9545 58.6473 62.5101 57.9684 63.1974 57.4433C64.6967 56.2189 66.5821 55.5712 68.5148 55.6165H86.279V60.2383H68.4966C67.0671 60.2383 66.3569 60.7863 66.3569 61.8915V69.1986C66.3569 70.3038 67.0671 70.8519 68.4966 70.8519H86.279V75.5468Z" fill="#00498B"/>
<path d="M115.252 69.2719C115.262 70.1367 115.071 70.992 114.695 71.7703C114.319 72.5486 113.768 73.2286 113.085 73.7565C111.595 74.979 109.719 75.6269 107.795 75.5833H88.5098V63.0699H93.8545V70.9616H107.804C109.179 70.9616 109.861 70.4135 109.861 69.3083V62.0012C109.861 60.896 109.179 60.348 107.813 60.348H88.5098V55.7262H107.795C109.719 55.6777 111.597 56.3262 113.085 57.553C113.768 58.0804 114.32 58.7603 114.696 59.5387C115.072 60.3172 115.262 61.1728 115.252 62.0377V69.2719Z" fill="#00498B"/>
<path d="M144.452 75.5463H137.168L125.695 64.4394H139.517C140.509 64.4394 141.001 63.7544 141.001 62.3843C141.001 61.0142 140.509 60.3292 139.517 60.3292H122.864V75.5463H117.519V55.7075H139.817C140.733 55.6658 141.646 55.8313 142.49 56.1918C143.333 56.5523 144.084 57.0985 144.689 57.7899C145.76 59.0799 146.346 60.7056 146.346 62.3843C146.346 64.0631 145.76 65.6887 144.689 66.9787C144.083 67.6704 143.329 68.2166 142.485 68.577C141.64 68.9375 140.725 69.103 139.808 69.0613H137.751L144.452 75.5463Z" fill="#00498B"/>
</svg>
